<ttFont>
    <TTGlyph name="A" xMin="32" yMin="0" xMax="677" yMax="727">
      <contour>
        <pt x="293" y="727" on="1"/>
        <pt x="416" y="727" on="1"/>
        <pt x="677" y="0" on="1"/>
        <pt x="546" y="0" on="1"/>
        <pt x="358" y="558" on="1"/>
        <pt x="350" y="592" on="1"/>
        <pt x="342" y="557" on="1"/>
        <pt x="247" y="274" on="1"/>
        <pt x="235" y="254" on="1"/>
        <pt x="249" y="256" on="1"/>
        <pt x="347" y="256" on="1"/>
        <pt x="367" y="256" on="0"/>
        <pt x="398" y="239" on="0"/>
        <pt x="420" y="213" on="0"/>
        <pt x="436" y="180" on="0"/>
        <pt x="441" y="165" on="1"/>
        <pt x="211" y="165" on="1"/>
        <pt x="156" y="0" on="1"/>
        <pt x="32" y="0" on="1"/>
      </contour>
    </TTGlyph>
    <TTGlyph name="AE" xMin="8" yMin="0" xMax="915" yMax="727">
      <contour>
        <pt x="719" y="426" on="1"/>
        <pt x="854" y="426" on="1"/>
        <pt x="854" y="337" on="1"/>
        <pt x="617" y="337" on="1"/>
        <pt x="622" y="354" on="0"/>
        <pt x="638" y="386" on="0"/>
        <pt x="662" y="411" on="0"/>
        <pt x="696" y="426" on="0"/>
      </contour>
      <contour>
        <pt x="516" y="0" on="1"/>
        <pt x="433" y="543" on="1"/>
        <pt x="432" y="551" on="0"/>
        <pt x="430" y="565" on="0"/>
        <pt x="429" y="572" on="1"/>
        <pt x="426" y="610" on="1"/>
        <pt x="412" y="573" on="1"/>
        <pt x="265" y="274" on="1"/>
        <pt x="251" y="254" on="1"/>
        <pt x="270" y="256" on="1"/>
        <pt x="360" y="256" on="1"/>
        <pt x="380" y="256" on="0"/>
        <pt x="411" y="239" on="0"/>
        <pt x="433" y="213" on="0"/>
        <pt x="449" y="180" on="0"/>
        <pt x="454" y="165" on="1"/>
        <pt x="214" y="165" on="1"/>
        <pt x="133" y="0" on="1"/>
        <pt x="8" y="0" on="1"/>
        <pt x="379" y="727" on="1"/>
        <pt x="844" y="727" on="1"/>
        <pt x="844" y="636" on="1"/>
        <pt x="536" y="636" on="1"/>
        <pt x="619" y="91" on="1"/>
        <pt x="915" y="91" on="1"/>
        <pt x="915" y="0" on="1"/>
      </contour>
    </TTGlyph>
    <TTGlyph name="Aacute" xMin="21" yMin="0" xMax="666" yMax="890">
      <contour>
        <pt x="491" y="890" on="1"/>
        <pt x="413" y="802" on="1"/>
        <pt x="400" y="787" on="0"/>
        <pt x="366" y="770" on="0"/>
        <pt x="331" y="762" on="0"/>
        <pt x="297" y="762" on="0"/>
        <pt x="285" y="765" on="1"/>
        <pt x="372" y="890" on="1"/>
      </contour>
      <contour>
        <pt x="282" y="727" on="1"/>
        <pt x="404" y="727" on="1"/>
        <pt x="666" y="0" on="1"/>
        <pt x="535" y="0" on="1"/>
        <pt x="339" y="588" on="1"/>
        <pt x="235" y="274" on="1"/>
        <pt x="224" y="254" on="1"/>
        <pt x="238" y="256" on="1"/>
        <pt x="336" y="256" on="1"/>
        <pt x="356" y="256" on="0"/>
        <pt x="387" y="239" on="0"/>
        <pt x="409" y="213" on="0"/>
        <pt x="425" y="180" on="0"/>
        <pt x="430" y="165" on="1"/>
        <pt x="200" y="165" on="1"/>
        <pt x="144" y="0" on="1"/>
        <pt x="21" y="0" on="1"/>
      </contour>
    </TTGlyph>
    <TTGlyph name="Acircumflex" xMin="22" yMin="0" xMax="667" yMax="890">
      <contour>
        <pt x="298" y="890" on="1"/>
        <pt x="383" y="890" on="1"/>
        <pt x="492" y="772" on="1"/>
        <pt x="422" y="758" on="1"/>
        <pt x="340" y="815" on="1"/>
        <pt x="259" y="758" on="1"/>
        <pt x="191" y="772" on="1"/>
      </contour>
      <contour>
        <pt x="283" y="727" on="1"/>
        <pt x="406" y="727" on="1"/>
        <pt x="667" y="0" on="1"/>
        <pt x="536" y="0" on="1"/>
        <pt x="340" y="588" on="1"/>
        <pt x="237" y="274" on="1"/>
        <pt x="225" y="254" on="1"/>
        <pt x="239" y="256" on="1"/>
        <pt x="337" y="256" on="1"/>
        <pt x="357" y="256" on="0"/>
        <pt x="388" y="239" on="0"/>
        <pt x="410" y="213" on="0"/>
        <pt x="426" y="180" on="0"/>
        <pt x="431" y="165" on="1"/>
        <pt x="201" y="165" on="1"/>
        <pt x="146" y="0" on="1"/>
        <pt x="22" y="0" on="1"/>
      </contour>
    </TTGlyph>
    <TTGlyph name="Adieresis" xMin="22" yMin="0" xMax="667" yMax="899">
      <contour>
        <pt x="381" y="840" on="1"/>
        <pt x="381" y="865" on="0"/>
        <pt x="416" y="899" on="0"/>
        <pt x="440" y="899" on="1"/>
        <pt x="465" y="899" on="0"/>
        <pt x="500" y="865" on="0"/>
        <pt x="500" y="840" on="1"/>
        <pt x="500" y="815" on="0"/>
        <pt x="465" y="781" on="0"/>
        <pt x="440" y="781" on="1"/>
        <pt x="416" y="781" on="0"/>
        <pt x="381" y="815" on="0"/>
      </contour>
      <contour>
        <pt x="187" y="840" on="1"/>
        <pt x="187" y="865" on="0"/>
        <pt x="222" y="899" on="0"/>
        <pt x="245" y="899" on="1"/>
        <pt x="270" y="899" on="0"/>
        <pt x="305" y="865" on="0"/>
        <pt x="305" y="840" on="1"/>
        <pt x="305" y="815" on="0"/>
        <pt x="270" y="781" on="0"/>
        <pt x="245" y="781" on="1"/>
        <pt x="222" y="781" on="0"/>
        <pt x="187" y="815" on="0"/>
      </contour>
      <contour>
        <pt x="283" y="727" on="1"/>
        <pt x="406" y="727" on="1"/>
        <pt x="667" y="0" on="1"/>
        <pt x="536" y="0" on="1"/>
        <pt x="340" y="588" on="1"/>
        <pt x="237" y="274" on="1"/>
        <pt x="225" y="254" on="1"/>
        <pt x="239" y="256" on="1"/>
        <pt x="337" y="256" on="1"/>
        <pt x="357" y="256" on="0"/>
        <pt x="388" y="239" on="0"/>
        <pt x="410" y="213" on="0"/>
        <pt x="426" y="180" on="0"/>
        <pt x="431" y="165" on="1"/>
        <pt x="201" y="165" on="1"/>
        <pt x="146" y="0" on="1"/>
        <pt x="22" y="0" on="1"/>
      </contour>
    </TTGlyph>
    <TTGlyph name="Agrave" xMin="22" yMin="0" xMax="667" yMax="890">
      <contour>
        <pt x="283" y="802" on="1"/>
        <pt x="217" y="890" on="1"/>
        <pt x="335" y="890" on="1"/>
        <pt x="409" y="765" on="1"/>
        <pt x="396" y="762" on="0"/>
        <pt x="362" y="762" on="0"/>
        <pt x="326" y="769" on="0"/>
        <pt x="294" y="787" on="0"/>
      </contour>
      <contour>
        <pt x="283" y="727" on="1"/>
        <pt x="406" y="727" on="1"/>
        <pt x="667" y="0" on="1"/>
        <pt x="536" y="0" on="1"/>
        <pt x="340" y="588" on="1"/>
        <pt x="237" y="274" on="1"/>
        <pt x="225" y="254" on="1"/>
        <pt x="239" y="256" on="1"/>
        <pt x="337" y="256" on="1"/>
        <pt x="357" y="256" on="0"/>
        <pt x="388" y="239" on="0"/>
        <pt x="410" y="213" on="0"/>
        <pt x="426" y="180" on="0"/>
        <pt x="431" y="165" on="1"/>
        <pt x="201" y="165" on="1"/>
        <pt x="146" y="0" on="1"/>
        <pt x="22" y="0" on="1"/>
      </contour>
    </TTGlyph>
    <TTGlyph name="Aring" xMin="23" yMin="0" xMax="668" yMax="893">
      <contour>
        <pt x="344" y="757" on="1"/>
        <pt x="364" y="757" on="0"/>
        <pt x="386" y="782" on="0"/>
        <pt x="386" y="801" on="1"/>
        <pt x="386" y="820" on="0"/>
        <pt x="364" y="845" on="0"/>
        <pt x="344" y="845" on="1"/>
        <pt x="326" y="845" on="0"/>
        <pt x="304" y="819" on="0"/>
        <pt x="304" y="799" on="1"/>
        <pt x="304" y="783" on="0"/>
        <pt x="326" y="757" on="0"/>
      </contour>
      <contour>
        <pt x="146" y="0" on="1"/>
        <pt x="23" y="0" on="1"/>
        <pt x="283" y="724" on="1"/>
        <pt x="239" y="749" on="0"/>
        <pt x="239" y="799" on="1"/>
        <pt x="239" y="840" on="0"/>
        <pt x="299" y="893" on="0"/>
        <pt x="345" y="893" on="1"/>
        <pt x="392" y="893" on="0"/>
        <pt x="449" y="842" on="0"/>
        <pt x="449" y="800" on="1"/>
        <pt x="449" y="775" on="0"/>
        <pt x="427" y="737" on="0"/>
        <pt x="407" y="725" on="1"/>
        <pt x="668" y="0" on="1"/>
        <pt x="537" y="0" on="1"/>
        <pt x="491" y="137" on="0"/>
        <pt x="399" y="406" on="0"/>
        <pt x="354" y="543" on="1"/>
        <pt x="341" y="586" on="1"/>
        <pt x="327" y="542" on="1"/>
        <pt x="304" y="475" on="0"/>
        <pt x="260" y="341" on="0"/>
        <pt x="237" y="274" on="1"/>
        <pt x="226" y="254" on="1"/>
        <pt x="238" y="256" on="1"/>
        <pt x="338" y="256" on="1"/>
        <pt x="358" y="256" on="0"/>
        <pt x="389" y="239" on="0"/>
        <pt x="411" y="213" on="0"/>
        <pt x="427" y="180" on="0"/>
        <pt x="432" y="165" on="1"/>
        <pt x="202" y="165" on="1"/>
      </contour>
    </TTGlyph>
    <TTGlyph name="Atilde" xMin="22" yMin="0" xMax="667" yMax="897">
      <contour>
        <pt x="261" y="777" on="1"/>
        <pt x="193" y="783" on="1"/>
        <pt x="195" y="838" on="0"/>
        <pt x="252" y="897" on="0"/>
        <pt x="289" y="897" on="1"/>
        <pt x="311" y="897" on="0"/>
        <pt x="343" y="880" on="0"/>
        <pt x="370" y="860" on="0"/>
        <pt x="393" y="843" on="0"/>
        <pt x="407" y="843" on="1"/>
        <pt x="420" y="843" on="0"/>
        <pt x="436" y="870" on="0"/>
        <pt x="438" y="893" on="1"/>
        <pt x="503" y="887" on="1"/>
        <pt x="502" y="856" on="0"/>
        <pt x="484" y="812" on="0"/>
        <pt x="458" y="785" on="0"/>
        <pt x="427" y="773" on="0"/>
        <pt x="413" y="773" on="1"/>
        <pt x="388" y="773" on="0"/>
        <pt x="355" y="790" on="0"/>
        <pt x="330" y="810" on="0"/>
        <pt x="309" y="827" on="0"/>
        <pt x="296" y="827" on="1"/>
        <pt x="285" y="827" on="0"/>
        <pt x="263" y="805" on="0"/>
      </contour>
      <contour>
        <pt x="283" y="727" on="1"/>
        <pt x="406" y="727" on="1"/>
        <pt x="667" y="0" on="1"/>
        <pt x="536" y="0" on="1"/>
        <pt x="340" y="588" on="1"/>
        <pt x="237" y="274" on="1"/>
        <pt x="225" y="254" on="1"/>
        <pt x="239" y="256" on="1"/>
        <pt x="337" y="256" on="1"/>
        <pt x="357" y="256" on="0"/>
        <pt x="388" y="239" on="0"/>
        <pt x="410" y="213" on="0"/>
        <pt x="426" y="180" on="0"/>
        <pt x="431" y="165" on="1"/>
        <pt x="201" y="165" on="1"/>
        <pt x="146" y="0" on="1"/>
        <pt x="22" y="0" on="1"/>
      </contour>
    </TTGlyph>
    <TTGlyph name="B" xMin="83" yMin="-11" xMax="616" yMax="740">
      <contour>
        <pt x="344" y="80" on="1"/>
        <pt x="349" y="79" on="0"/>
        <pt x="356" y="79" on="0"/>
        <pt x="361" y="79" on="1"/>
        <pt x="414" y="79" on="0"/>
        <pt x="486" y="147" on="0"/>
        <pt x="486" y="204" on="1"/>
        <pt x="486" y="237" on="0"/>
        <pt x="458" y="287" on="0"/>
        <pt x="410" y="321" on="0"/>
        <pt x="344" y="339" on="0"/>
        <pt x="306" y="339" on="1"/>
        <pt x="206" y="339" on="1"/>
        <pt x="206" y="0" on="1"/>
        <pt x="83" y="0" on="1"/>
        <pt x="83" y="717" on="1"/>
        <pt x="119" y="723" on="0"/>
        <pt x="177" y="732" on="0"/>
        <pt x="229" y="738" on="0"/>
        <pt x="279" y="740" on="0"/>
        <pt x="306" y="740" on="1"/>
        <pt x="372" y="740" on="0"/>
        <pt x="472" y="710" on="0"/>
        <pt x="539" y="657" on="0"/>
        <pt x="573" y="584" on="0"/>
        <pt x="573" y="540" on="1"/>
        <pt x="573" y="503" on="0"/>
        <pt x="530" y="425" on="0"/>
        <pt x="493" y="402" on="1"/>
        <pt x="464" y="388" on="1"/>
        <pt x="492" y="381" on="1"/>
        <pt x="548" y="358" on="0"/>
        <pt x="616" y="262" on="0"/>
        <pt x="616" y="205" on="1"/>
        <pt x="616" y="166" on="0"/>
        <pt x="582" y="89" on="0"/>
        <pt x="519" y="28" on="0"/>
        <pt x="428" y="-11" on="0"/>
        <pt x="371" y="-11" on="1"/>
        <pt x="357" y="-11" on="0"/>
        <pt x="330" y="-10" on="0"/>
        <pt x="302" y="-6" on="0"/>
        <pt x="268" y="1" on="0"/>
        <pt x="246" y="6" on="1"/>
        <pt x="252" y="19" on="0"/>
        <pt x="270" y="46" on="0"/>
        <pt x="294" y="68" on="0"/>
        <pt x="325" y="81" on="0"/>
      </contour>
      <contour>
        <pt x="206" y="423" on="1"/>
        <pt x="306" y="423" on="1"/>
        <pt x="336" y="423" on="0"/>
        <pt x="387" y="440" on="0"/>
        <pt x="425" y="471" on="0"/>
        <pt x="446" y="514" on="0"/>
        <pt x="446" y="539" on="1"/>
        <pt x="446" y="560" on="0"/>
        <pt x="430" y="599" on="0"/>
        <pt x="395" y="630" on="0"/>
        <pt x="342" y="649" on="0"/>
        <pt x="306" y="649" on="1"/>
        <pt x="279" y="649" on="0"/>
        <pt x="233" y="646" on="0"/>
        <pt x="206" y="643" on="1"/>
      </contour>
    </TTGlyph>
    <TTGlyph name="C" xMin="57" yMin="-12" xMax="611" yMax="740">
      <contour>
        <pt x="435" y="-12" on="1"/>
        <pt x="348" y="-12" on="0"/>
        <pt x="208" y="44" on="0"/>
        <pt x="110" y="144" on="0"/>
        <pt x="57" y="281" on="0"/>
        <pt x="57" y="363" on="1"/>
        <pt x="57" y="443" on="0"/>
        <pt x="111" y="581" on="0"/>
        <pt x="210" y="682" on="0"/>
        <pt x="349" y="740" on="0"/>
        <pt x="435" y="740" on="1"/>
        <pt x="477" y="740" on="0"/>
        <pt x="564" y="724" on="0"/>
        <pt x="611" y="706" on="1"/>
        <pt x="579" y="624" on="1"/>
        <pt x="534" y="638" on="0"/>
        <pt x="470" y="648" on="0"/>
        <pt x="435" y="648" on="1"/>
        <pt x="378" y="648" on="0"/>
        <pt x="288" y="605" on="0"/>
        <pt x="224" y="528" on="0"/>
        <pt x="190" y="424" on="0"/>
        <pt x="190" y="363" on="1"/>
        <pt x="190" y="305" on="0"/>
        <pt x="224" y="202" on="0"/>
        <pt x="288" y="124" on="0"/>
        <pt x="378" y="79" on="0"/>
        <pt x="435" y="79" on="1"/>
        <pt x="470" y="79" on="0"/>
        <pt x="540" y="96" on="0"/>
        <pt x="578" y="115" on="1"/>
        <pt x="611" y="34" on="1"/>
        <pt x="566" y="10" on="0"/>
        <pt x="477" y="-12" on="0"/>
      </contour>
    </TTGlyph>
    <TTGlyph name="Ccedilla" xMin="57" yMin="-210" xMax="611" yMax="740">
      <contour>
        <pt x="435" y="-12" on="1"/>
        <pt x="426" y="-12" on="0"/>
        <pt x="410" y="-11" on="0"/>
        <pt x="402" y="-11" on="1"/>
        <pt x="393" y="-46" on="1"/>
        <pt x="423" y="-51" on="0"/>
        <pt x="474" y="-91" on="0"/>
        <pt x="474" y="-123" on="1"/>
        <pt x="474" y="-146" on="0"/>
        <pt x="452" y="-178" on="0"/>
        <pt x="417" y="-200" on="0"/>
        <pt x="374" y="-210" on="0"/>
        <pt x="352" y="-210" on="1"/>
        <pt x="335" y="-210" on="0"/>
        <pt x="296" y="-202" on="0"/>
        <pt x="272" y="-191" on="1"/>
        <pt x="288" y="-140" on="1"/>
        <pt x="307" y="-148" on="0"/>
        <pt x="337" y="-153" on="0"/>
        <pt x="352" y="-153" on="1"/>
        <pt x="369" y="-153" on="0"/>
        <pt x="397" y="-140" on="0"/>
        <pt x="397" y="-126" on="1"/>
        <pt x="397" y="-109" on="0"/>
        <pt x="358" y="-92" on="0"/>
        <pt x="323" y="-88" on="1"/>
        <pt x="345" y="-3" on="1"/>
        <pt x="278" y="10" on="0"/>
        <pt x="171" y="74" on="0"/>
        <pt x="97" y="170" on="0"/>
        <pt x="57" y="292" on="0"/>
        <pt x="57" y="363" on="1"/>
        <pt x="57" y="443" on="0"/>
        <pt x="111" y="581" on="0"/>
        <pt x="210" y="682" on="0"/>
        <pt x="349" y="740" on="0"/>
        <pt x="435" y="740" on="1"/>
        <pt x="477" y="740" on="0"/>
        <pt x="564" y="724" on="0"/>
        <pt x="611" y="706" on="1"/>
        <pt x="579" y="624" on="1"/>
        <pt x="534" y="638" on="0"/>
        <pt x="470" y="648" on="0"/>
        <pt x="435" y="648" on="1"/>
        <pt x="378" y="648" on="0"/>
        <pt x="288" y="605" on="0"/>
        <pt x="224" y="528" on="0"/>
        <pt x="190" y="424" on="0"/>
        <pt x="190" y="363" on="1"/>
        <pt x="190" y="303" on="0"/>
        <pt x="224" y="199" on="0"/>
        <pt x="288" y="123" on="0"/>
        <pt x="378" y="79" on="0"/>
        <pt x="435" y="79" on="1"/>
        <pt x="470" y="79" on="0"/>
        <pt x="540" y="96" on="0"/>
        <pt x="578" y="115" on="1"/>
        <pt x="611" y="34" on="1"/>
        <pt x="566" y="10" on="0"/>
        <pt x="477" y="-12" on="0"/>
      </contour>
    </TTGlyph>
    <TTGlyph name="D" xMin="85" yMin="-12" xMax="718" yMax="740">
      <contour>
        <pt x="373" y="-12" on="1"/>
        <pt x="358" y="-12" on="0"/>
        <pt x="331" y="-11" on="0"/>
        <pt x="303" y="-7" on="0"/>
        <pt x="270" y="-1" on="0"/>
        <pt x="248" y="5" on="1"/>
        <pt x="254" y="18" on="0"/>
        <pt x="272" y="45" on="0"/>
        <pt x="296" y="67" on="0"/>
        <pt x="327" y="81" on="0"/>
        <pt x="346" y="80" on="1"/>
        <pt x="352" y="79" on="0"/>
        <pt x="358" y="79" on="0"/>
        <pt x="363" y="79" on="1"/>
        <pt x="417" y="79" on="0"/>
        <pt x="500" y="127" on="0"/>
        <pt x="556" y="207" on="0"/>
        <pt x="585" y="310" on="0"/>
        <pt x="585" y="365" on="1"/>
        <pt x="585" y="429" on="0"/>
        <pt x="552" y="534" on="0"/>
        <pt x="483" y="608" on="0"/>
        <pt x="378" y="648" on="0"/>
        <pt x="305" y="648" on="1"/>
        <pt x="281" y="648" on="0"/>
        <pt x="232" y="644" on="0"/>
        <pt x="209" y="641" on="1"/>
        <pt x="209" y="0" on="1"/>
        <pt x="85" y="0" on="1"/>
        <pt x="85" y="715" on="1"/>
        <pt x="145" y="728" on="0"/>
        <pt x="261" y="740" on="0"/>
        <pt x="305" y="740" on="1"/>
        <pt x="403" y="740" on="0"/>
        <pt x="556" y="689" on="0"/>
        <pt x="662" y="593" on="0"/>
        <pt x="718" y="453" on="0"/>
        <pt x="718" y="365" on="1"/>
        <pt x="718" y="285" on="0"/>
        <pt x="665" y="147" on="0"/>
        <pt x="572" y="46" on="0"/>
        <pt x="446" y="-12" on="0"/>
      </contour>
    </TTGlyph>
    <TTGlyph name="E" xMin="85" yMin="0" xMax="529" yMax="727">
      <contour>
        <pt x="343" y="426" on="1"/>
        <pt x="479" y="426" on="1"/>
        <pt x="479" y="337" on="1"/>
        <pt x="248" y="337" on="1"/>
        <pt x="253" y="352" on="0"/>
        <pt x="269" y="384" on="0"/>
        <pt x="292" y="410" on="0"/>
        <pt x="323" y="426" on="0"/>
      </contour>
      <contour>
        <pt x="85" y="0" on="1"/>
        <pt x="85" y="727" on="1"/>
        <pt x="513" y="727" on="1"/>
        <pt x="513" y="636" on="1"/>
        <pt x="210" y="636" on="1"/>
        <pt x="210" y="91" on="1"/>
        <pt x="529" y="91" on="1"/>
        <pt x="529" y="0" on="1"/>
      </contour>
    </TTGlyph>
    <TTGlyph name="Eacute" xMin="75" yMin="0" xMax="519" yMax="890">
      <contour>
        <pt x="446" y="890" on="1"/>
        <pt x="368" y="802" on="1"/>
        <pt x="355" y="787" on="0"/>
        <pt x="321" y="770" on="0"/>
        <pt x="286" y="762" on="0"/>
        <pt x="252" y="762" on="0"/>
        <pt x="240" y="765" on="1"/>
        <pt x="327" y="890" on="1"/>
      </contour>
      <contour>
        <pt x="333" y="426" on="1"/>
        <pt x="469" y="426" on="1"/>
        <pt x="469" y="337" on="1"/>
        <pt x="238" y="337" on="1"/>
        <pt x="243" y="352" on="0"/>
        <pt x="259" y="384" on="0"/>
        <pt x="282" y="410" on="0"/>
        <pt x="313" y="426" on="0"/>
      </contour>
      <contour>
        <pt x="75" y="0" on="1"/>
        <pt x="75" y="727" on="1"/>
        <pt x="503" y="727" on="1"/>
        <pt x="503" y="636" on="1"/>
        <pt x="200" y="636" on="1"/>
        <pt x="200" y="91" on="1"/>
        <pt x="519" y="91" on="1"/>
        <pt x="519" y="0" on="1"/>
      </contour>
    </TTGlyph>
    <TTGlyph name="Ecircumflex" xMin="75" yMin="0" xMax="519" yMax="890">
      <contour>
        <pt x="260" y="890" on="1"/>
        <pt x="345" y="890" on="1"/>
        <pt x="454" y="772" on="1"/>
        <pt x="384" y="758" on="1"/>
        <pt x="302" y="815" on="1"/>
        <pt x="221" y="758" on="1"/>
        <pt x="153" y="772" on="1"/>
      </contour>
      <contour>
        <pt x="333" y="426" on="1"/>
        <pt x="469" y="426" on="1"/>
        <pt x="469" y="337" on="1"/>
        <pt x="238" y="337" on="1"/>
        <pt x="243" y="352" on="0"/>
        <pt x="259" y="384" on="0"/>
        <pt x="282" y="410" on="0"/>
        <pt x="313" y="426" on="0"/>
      </contour>
      <contour>
        <pt x="75" y="0" on="1"/>
        <pt x="75" y="727" on="1"/>
        <pt x="503" y="727" on="1"/>
        <pt x="503" y="636" on="1"/>
        <pt x="200" y="636" on="1"/>
        <pt x="200" y="91" on="1"/>
        <pt x="519" y="91" on="1"/>
        <pt x="519" y="0" on="1"/>
      </contour>
    </TTGlyph>
    <TTGlyph name="Edieresis" xMin="75" yMin="0" xMax="519" yMax="899">
      <contour>
        <pt x="338" y="840" on="1"/>
        <pt x="338" y="865" on="0"/>
        <pt x="373" y="899" on="0"/>
        <pt x="397" y="899" on="1"/>
        <pt x="422" y="899" on="0"/>
        <pt x="457" y="865" on="0"/>
        <pt x="457" y="840" on="1"/>
        <pt x="457" y="815" on="0"/>
        <pt x="422" y="781" on="0"/>
        <pt x="397" y="781" on="1"/>
        <pt x="373" y="781" on="0"/>
        <pt x="338" y="815" on="0"/>
      </contour>
      <contour>
        <pt x="144" y="840" on="1"/>
        <pt x="144" y="865" on="0"/>
        <pt x="179" y="899" on="0"/>
        <pt x="202" y="899" on="1"/>
        <pt x="227" y="899" on="0"/>
        <pt x="262" y="865" on="0"/>
        <pt x="262" y="840" on="1"/>
        <pt x="262" y="815" on="0"/>
        <pt x="227" y="781" on="0"/>
        <pt x="202" y="781" on="1"/>
        <pt x="179" y="781" on="0"/>
        <pt x="144" y="815" on="0"/>
      </contour>
      <contour>
        <pt x="333" y="426" on="1"/>
        <pt x="469" y="426" on="1"/>
        <pt x="469" y="337" on="1"/>
        <pt x="238" y="337" on="1"/>
        <pt x="243" y="352" on="0"/>
        <pt x="259" y="384" on="0"/>
        <pt x="282" y="410" on="0"/>
        <pt x="313" y="426" on="0"/>
      </contour>
      <contour>
        <pt x="75" y="0" on="1"/>
        <pt x="75" y="727" on="1"/>
        <pt x="503" y="727" on="1"/>
        <pt x="503" y="636" on="1"/>
        <pt x="200" y="636" on="1"/>
        <pt x="200" y="91" on="1"/>
        <pt x="519" y="91" on="1"/>
        <pt x="519" y="0" on="1"/>
      </contour>
    </TTGlyph>
    <TTGlyph name="Egrave" xMin="75" yMin="0" xMax="519" yMax="890">
      <contour>
        <pt x="241" y="802" on="1"/>
        <pt x="176" y="890" on="1"/>
        <pt x="294" y="890" on="1"/>
        <pt x="368" y="765" on="1"/>
        <pt x="355" y="762" on="0"/>
        <pt x="321" y="762" on="0"/>
        <pt x="285" y="769" on="0"/>
        <pt x="252" y="787" on="0"/>
      </contour>
      <contour>
        <pt x="333" y="426" on="1"/>
        <pt x="469" y="426" on="1"/>
        <pt x="469" y="337" on="1"/>
        <pt x="238" y="337" on="1"/>
        <pt x="243" y="352" on="0"/>
        <pt x="259" y="384" on="0"/>
        <pt x="282" y="410" on="0"/>
        <pt x="313" y="426" on="0"/>
      </contour>
      <contour>
        <pt x="75" y="0" on="1"/>
        <pt x="75" y="727" on="1"/>
        <pt x="503" y="727" on="1"/>
        <pt x="503" y="636" on="1"/>
        <pt x="200" y="636" on="1"/>
        <pt x="200" y="91" on="1"/>
        <pt x="519" y="91" on="1"/>
        <pt x="519" y="0" on="1"/>
      </contour>
    </TTGlyph>
    <TTGlyph name="Eth" xMin="-5" yMin="-12" xMax="708" yMax="740">
      <contour>
        <pt x="-5" y="315" on="1"/>
        <pt x="-5" y="396" on="1"/>
        <pt x="75" y="396" on="1"/>
        <pt x="75" y="715" on="1"/>
        <pt x="135" y="728" on="0"/>
        <pt x="251" y="740" on="0"/>
        <pt x="295" y="740" on="1"/>
        <pt x="393" y="740" on="0"/>
        <pt x="546" y="688" on="0"/>
        <pt x="652" y="591" on="0"/>
        <pt x="708" y="452" on="0"/>
        <pt x="708" y="365" on="1"/>
        <pt x="708" y="285" on="0"/>
        <pt x="655" y="147" on="0"/>
        <pt x="562" y="46" on="0"/>
        <pt x="436" y="-12" on="0"/>
        <pt x="363" y="-12" on="1"/>
        <pt x="348" y="-12" on="0"/>
        <pt x="321" y="-11" on="0"/>
        <pt x="293" y="-7" on="0"/>
        <pt x="260" y="-1" on="0"/>
        <pt x="238" y="5" on="1"/>
        <pt x="244" y="18" on="0"/>
        <pt x="262" y="45" on="0"/>
        <pt x="286" y="67" on="0"/>
        <pt x="317" y="81" on="0"/>
        <pt x="336" y="80" on="1"/>
        <pt x="342" y="79" on="0"/>
        <pt x="348" y="79" on="0"/>
        <pt x="353" y="79" on="1"/>
        <pt x="407" y="79" on="0"/>
        <pt x="490" y="127" on="0"/>
        <pt x="546" y="207" on="0"/>
        <pt x="575" y="310" on="0"/>
        <pt x="575" y="365" on="1"/>
        <pt x="575" y="429" on="0"/>
        <pt x="542" y="534" on="0"/>
        <pt x="473" y="608" on="0"/>
        <pt x="368" y="648" on="0"/>
        <pt x="295" y="648" on="1"/>
        <pt x="271" y="648" on="0"/>
        <pt x="222" y="644" on="0"/>
        <pt x="199" y="641" on="1"/>
        <pt x="199" y="396" on="1"/>
        <pt x="411" y="396" on="1"/>
        <pt x="411" y="315" on="1"/>
        <pt x="199" y="315" on="1"/>
        <pt x="199" y="0" on="1"/>
        <pt x="75" y="0" on="1"/>
        <pt x="75" y="315" on="1"/>
      </contour>
    </TTGlyph>
    <TTGlyph name="Euro" xMin="-24" yMin="-11" xMax="528" yMax="713">
      <contour>
        <pt x="293" y="469" on="1"/>
        <pt x="448" y="469" on="1"/>
        <pt x="448" y="398" on="1"/>
        <pt x="208" y="398" on="1"/>
        <pt x="218" y="427" on="0"/>
        <pt x="257" y="469" on="0"/>
      </contour>
      <contour>
        <pt x="-24" y="246" on="1"/>
        <pt x="-24" y="317" on="1"/>
        <pt x="46" y="317" on="1"/>
        <pt x="45" y="325" on="0"/>
        <pt x="45" y="342" on="0"/>
        <pt x="45" y="350" on="1"/>
        <pt x="45" y="362" on="0"/>
        <pt x="45" y="386" on="0"/>
        <pt x="47" y="398" on="1"/>
        <pt x="-24" y="398" on="1"/>
        <pt x="-24" y="469" on="1"/>
        <pt x="58" y="469" on="1"/>
        <pt x="72" y="522" on="0"/>
        <pt x="124" y="611" on="0"/>
        <pt x="200" y="676" on="0"/>
        <pt x="300" y="713" on="0"/>
        <pt x="362" y="713" on="1"/>
        <pt x="404" y="713" on="0"/>
        <pt x="481" y="698" on="0"/>
        <pt x="528" y="681" on="1"/>
        <pt x="496" y="601" on="1"/>
        <pt x="454" y="615" on="0"/>
        <pt x="394" y="624" on="0"/>
        <pt x="362" y="624" on="1"/>
        <pt x="316" y="624" on="0"/>
        <pt x="244" y="581" on="0"/>
        <pt x="195" y="506" on="0"/>
        <pt x="169" y="406" on="0"/>
        <pt x="169" y="350" on="1"/>
        <pt x="169" y="342" on="0"/>
        <pt x="169" y="325" on="0"/>
        <pt x="170" y="317" on="1"/>
        <pt x="448" y="317" on="1"/>
        <pt x="448" y="246" on="1"/>
        <pt x="210" y="246" on="1"/>
        <pt x="202" y="246" on="0"/>
        <pt x="188" y="247" on="0"/>
        <pt x="180" y="247" on="1"/>
        <pt x="195" y="211" on="0"/>
        <pt x="227" y="149" on="0"/>
        <pt x="269" y="104" on="0"/>
        <pt x="324" y="78" on="0"/>
        <pt x="362" y="78" on="1"/>
        <pt x="396" y="78" on="0"/>
        <pt x="458" y="92" on="0"/>
        <pt x="496" y="108" on="1"/>
        <pt x="528" y="28" on="1"/>
        <pt x="485" y="8" on="0"/>
        <pt x="404" y="-11" on="0"/>
        <pt x="362" y="-11" on="1"/>
        <pt x="297" y="-11" on="0"/>
        <pt x="194" y="28" on="0"/>
        <pt x="118" y="97" on="0"/>
        <pt x="68" y="191" on="0"/>
        <pt x="56" y="246" on="1"/>
      </contour>
    </TTGlyph>
    <TTGlyph name="F" xMin="85" yMin="0" xMax="513" yMax="727">
      <contour>
        <pt x="343" y="426" on="1"/>
        <pt x="479" y="426" on="1"/>
        <pt x="479" y="337" on="1"/>
        <pt x="248" y="337" on="1"/>
        <pt x="253" y="352" on="0"/>
        <pt x="269" y="384" on="0"/>
        <pt x="292" y="410" on="0"/>
        <pt x="323" y="426" on="0"/>
      </contour>
      <contour>
        <pt x="85" y="0" on="1"/>
        <pt x="85" y="727" on="1"/>
        <pt x="513" y="727" on="1"/>
        <pt x="513" y="636" on="1"/>
        <pt x="210" y="636" on="1"/>
        <pt x="210" y="0" on="1"/>
      </contour>
    </TTGlyph>
    <TTGlyph name="G" xMin="39" yMin="-12" xMax="644" yMax="740">
      <contour>
        <pt x="429" y="648" on="1"/>
        <pt x="372" y="648" on="0"/>
        <pt x="278" y="606" on="0"/>
        <pt x="211" y="531" on="0"/>
        <pt x="173" y="426" on="0"/>
        <pt x="173" y="363" on="1"/>
        <pt x="173" y="302" on="0"/>
        <pt x="210" y="198" on="0"/>
        <pt x="277" y="122" on="0"/>
        <pt x="370" y="79" on="0"/>
        <pt x="427" y="79" on="1"/>
        <pt x="449" y="79" on="0"/>
        <pt x="497" y="84" on="0"/>
        <pt x="529" y="93" on="1"/>
        <pt x="529" y="337" on="1"/>
        <pt x="644" y="337" on="1"/>
        <pt x="644" y="37" on="1"/>
        <pt x="589" y="11" on="0"/>
        <pt x="470" y="-12" on="0"/>
        <pt x="427" y="-12" on="1"/>
        <pt x="340" y="-12" on="0"/>
        <pt x="197" y="44" on="0"/>
        <pt x="95" y="143" on="0"/>
        <pt x="39" y="281" on="0"/>
        <pt x="39" y="363" on="1"/>
        <pt x="39" y="444" on="0"/>
        <pt x="96" y="582" on="0"/>
        <pt x="200" y="683" on="0"/>
        <pt x="343" y="740" on="0"/>
        <pt x="429" y="740" on="1"/>
        <pt x="472" y="740" on="0"/>
        <pt x="580" y="720" on="0"/>
        <pt x="635" y="696" on="1"/>
        <pt x="603" y="612" on="1"/>
        <pt x="547" y="634" on="0"/>
        <pt x="464" y="648" on="0"/>
      </contour>
    </TTGlyph>
    <TTGlyph name="H" xMin="85" yMin="0" xMax="667" yMax="727">
      <contour>
        <pt x="85" y="0" on="1"/>
        <pt x="85" y="727" on="1"/>
        <pt x="210" y="727" on="1"/>
        <pt x="210" y="0" on="1"/>
      </contour>
      <contour>
        <pt x="343" y="427" on="1"/>
        <pt x="544" y="427" on="1"/>
        <pt x="544" y="727" on="1"/>
        <pt x="667" y="727" on="1"/>
        <pt x="667" y="0" on="1"/>
        <pt x="544" y="0" on="1"/>
        <pt x="544" y="336" on="1"/>
        <pt x="248" y="336" on="1"/>
        <pt x="253" y="352" on="0"/>
        <pt x="269" y="384" on="0"/>
        <pt x="292" y="410" on="0"/>
        <pt x="323" y="427" on="0"/>
      </contour>
    </TTGlyph>
    <TTGlyph name="I" xMin="85" yMin="0" xMax="207" yMax="727">
      <contour>
        <pt x="207" y="727" on="1"/>
        <pt x="207" y="0" on="1"/>
        <pt x="85" y="0" on="1"/>
        <pt x="85" y="727" on="1"/>
      </contour>
    </TTGlyph>
    <TTGlyph name="Iacute" xMin="74" yMin="0" xMax="281" yMax="890">
      <contour>
        <pt x="281" y="890" on="1"/>
        <pt x="203" y="802" on="1"/>
        <pt x="189" y="787" on="0"/>
        <pt x="155" y="770" on="0"/>
        <pt x="120" y="762" on="0"/>
        <pt x="87" y="762" on="0"/>
        <pt x="74" y="765" on="1"/>
        <pt x="161" y="890" on="1"/>
      </contour>
      <contour>
        <pt x="195" y="727" on="1"/>
        <pt x="195" y="0" on="1"/>
        <pt x="74" y="0" on="1"/>
        <pt x="74" y="727" on="1"/>
      </contour>
    </TTGlyph>
    <TTGlyph name="Icircumflex" xMin="10" yMin="0" xMax="311" yMax="890">
      <contour>
        <pt x="117" y="890" on="1"/>
        <pt x="202" y="890" on="1"/>
        <pt x="311" y="772" on="1"/>
        <pt x="241" y="758" on="1"/>
        <pt x="159" y="815" on="1"/>
        <pt x="78" y="758" on="1"/>
        <pt x="10" y="772" on="1"/>
      </contour>
      <contour>
        <pt x="220" y="727" on="1"/>
        <pt x="220" y="0" on="1"/>
        <pt x="99" y="0" on="1"/>
        <pt x="99" y="727" on="1"/>
      </contour>
    </TTGlyph>
    <TTGlyph name="Idieresis" xMin="16" yMin="0" xMax="329" yMax="899">
      <contour>
        <pt x="211" y="840" on="1"/>
        <pt x="211" y="865" on="0"/>
        <pt x="246" y="899" on="0"/>
        <pt x="270" y="899" on="1"/>
        <pt x="294" y="899" on="0"/>
        <pt x="329" y="865" on="0"/>
        <pt x="329" y="840" on="1"/>
        <pt x="329" y="815" on="0"/>
        <pt x="294" y="781" on="0"/>
        <pt x="270" y="781" on="1"/>
        <pt x="246" y="781" on="0"/>
        <pt x="211" y="815" on="0"/>
      </contour>
      <contour>
        <pt x="16" y="840" on="1"/>
        <pt x="16" y="865" on="0"/>
        <pt x="51" y="899" on="0"/>
        <pt x="75" y="899" on="1"/>
        <pt x="100" y="899" on="0"/>
        <pt x="135" y="865" on="0"/>
        <pt x="135" y="840" on="1"/>
        <pt x="135" y="815" on="0"/>
        <pt x="100" y="781" on="0"/>
        <pt x="75" y="781" on="1"/>
        <pt x="51" y="781" on="0"/>
        <pt x="16" y="815" on="0"/>
      </contour>
      <contour>
        <pt x="234" y="727" on="1"/>
        <pt x="234" y="0" on="1"/>
        <pt x="112" y="0" on="1"/>
        <pt x="112" y="727" on="1"/>
      </contour>
    </TTGlyph>
    <TTGlyph name="Igrave" xMin="14" yMin="0" xMax="206" yMax="890">
      <contour>
        <pt x="79" y="802" on="1"/>
        <pt x="14" y="890" on="1"/>
        <pt x="132" y="890" on="1"/>
        <pt x="206" y="765" on="1"/>
        <pt x="193" y="762" on="0"/>
        <pt x="159" y="762" on="0"/>
        <pt x="123" y="769" on="0"/>
        <pt x="90" y="787" on="0"/>
      </contour>
      <contour>
        <pt x="204" y="727" on="1"/>
        <pt x="204" y="0" on="1"/>
        <pt x="82" y="0" on="1"/>
        <pt x="82" y="727" on="1"/>
      </contour>
    </TTGlyph>
    <TTGlyph name="J" xMin="-8" yMin="-217" xMax="279" yMax="727">
      <contour>
        <pt x="279" y="727" on="1"/>
        <pt x="279" y="128" on="1"/>
        <pt x="279" y="60" on="0"/>
        <pt x="248" y="-37" on="0"/>
        <pt x="189" y="-114" on="0"/>
        <pt x="102" y="-180" on="0"/>
        <pt x="47" y="-217" on="1"/>
        <pt x="-8" y="-146" on="1"/>
        <pt x="29" y="-115" on="0"/>
        <pt x="89" y="-63" on="0"/>
        <pt x="131" y="-3" on="0"/>
        <pt x="154" y="74" on="0"/>
        <pt x="154" y="128" on="1"/>
        <pt x="154" y="727" on="1"/>
      </contour>
    </TTGlyph>
    <TTGlyph name="K" xMin="85" yMin="0" xMax="673" yMax="727">
      <contour>
        <pt x="210" y="0" on="1"/>
        <pt x="85" y="0" on="1"/>
        <pt x="85" y="727" on="1"/>
        <pt x="210" y="727" on="1"/>
      </contour>
      <contour>
        <pt x="639" y="727" on="1"/>
        <pt x="414" y="435" on="1"/>
        <pt x="673" y="0" on="1"/>
        <pt x="528" y="0" on="1"/>
        <pt x="353" y="331" on="1"/>
        <pt x="346" y="353" on="1"/>
        <pt x="335" y="333" on="1"/>
        <pt x="266" y="243" on="1"/>
        <pt x="252" y="285" on="0"/>
        <pt x="266" y="388" on="0"/>
        <pt x="291" y="431" on="1"/>
        <pt x="333" y="505" on="0"/>
        <pt x="448" y="655" on="0"/>
        <pt x="501" y="727" on="1"/>
      </contour>
    </TTGlyph>
    <TTGlyph name="L" xMin="85" yMin="0" xMax="488" yMax="727">
      <contour>
        <pt x="85" y="0" on="1"/>
        <pt x="85" y="727" on="1"/>
        <pt x="211" y="727" on="1"/>
        <pt x="211" y="92" on="1"/>
        <pt x="488" y="92" on="1"/>
        <pt x="488" y="0" on="1"/>
      </contour>
    </TTGlyph>
    <TTGlyph name="M" xMin="72" yMin="0" xMax="897" yMax="727">
      <contour>
        <pt x="72" y="0" on="1"/>
        <pt x="146" y="727" on="1"/>
        <pt x="305" y="727" on="1"/>
        <pt x="478" y="157" on="1"/>
        <pt x="485" y="123" on="1"/>
        <pt x="493" y="157" on="1"/>
        <pt x="665" y="727" on="1"/>
        <pt x="824" y="727" on="1"/>
        <pt x="897" y="0" on="1"/>
        <pt x="781" y="0" on="1"/>
        <pt x="735" y="561" on="1"/>
        <pt x="732" y="607" on="1"/>
        <pt x="720" y="561" on="1"/>
        <pt x="547" y="10" on="1"/>
        <pt x="422" y="10" on="1"/>
        <pt x="247" y="562" on="1"/>
        <pt x="235" y="607" on="1"/>
        <pt x="188" y="0" on="1"/>
      </contour>
    </TTGlyph>
    <TTGlyph name="N" xMin="98" yMin="0" xMax="665" yMax="727">
      <contour>
        <pt x="555" y="0" on="1"/>
        <pt x="470" y="135" on="0"/>
        <pt x="303" y="401" on="0"/>
        <pt x="218" y="536" on="1"/>
        <pt x="202" y="571" on="1"/>
        <pt x="204" y="537" on="1"/>
        <pt x="204" y="0" on="1"/>
        <pt x="98" y="0" on="1"/>
        <pt x="98" y="727" on="1"/>
        <pt x="220" y="727" on="1"/>
        <pt x="525" y="240" on="1"/>
        <pt x="530" y="232" on="0"/>
        <pt x="539" y="218" on="0"/>
        <pt x="544" y="210" on="1"/>
        <pt x="557" y="172" on="1"/>
        <pt x="555" y="210" on="1"/>
        <pt x="555" y="727" on="1"/>
        <pt x="665" y="727" on="1"/>
        <pt x="665" y="0" on="1"/>
      </contour>
    </TTGlyph>
    <TTGlyph name="Ntilde" xMin="92" yMin="0" xMax="659" yMax="897">
      <contour>
        <pt x="290" y="777" on="1"/>
        <pt x="223" y="783" on="1"/>
        <pt x="224" y="810" on="0"/>
        <pt x="240" y="853" on="0"/>
        <pt x="266" y="882" on="0"/>
        <pt x="300" y="897" on="0"/>
        <pt x="318" y="897" on="1"/>
        <pt x="340" y="897" on="0"/>
        <pt x="372" y="880" on="0"/>
        <pt x="399" y="860" on="0"/>
        <pt x="423" y="843" on="0"/>
        <pt x="436" y="843" on="1"/>
        <pt x="450" y="843" on="0"/>
        <pt x="465" y="870" on="0"/>
        <pt x="467" y="893" on="1"/>
        <pt x="533" y="887" on="1"/>
        <pt x="531" y="856" on="0"/>
        <pt x="514" y="812" on="0"/>
        <pt x="488" y="785" on="0"/>
        <pt x="457" y="773" on="0"/>
        <pt x="442" y="773" on="1"/>
        <pt x="418" y="773" on="0"/>
        <pt x="385" y="790" on="0"/>
        <pt x="360" y="810" on="0"/>
        <pt x="338" y="827" on="0"/>
        <pt x="325" y="827" on="1"/>
        <pt x="314" y="827" on="0"/>
        <pt x="292" y="805" on="0"/>
      </contour>
      <contour>
        <pt x="549" y="0" on="1"/>
        <pt x="210" y="537" on="1"/>
        <pt x="196" y="571" on="1"/>
        <pt x="198" y="537" on="1"/>
        <pt x="198" y="0" on="1"/>
        <pt x="92" y="0" on="1"/>
        <pt x="92" y="727" on="1"/>
        <pt x="213" y="727" on="1"/>
        <pt x="520" y="239" on="1"/>
        <pt x="525" y="231" on="0"/>
        <pt x="534" y="216" on="0"/>
        <pt x="539" y="208" on="1"/>
        <pt x="551" y="175" on="1"/>
        <pt x="549" y="210" on="1"/>
        <pt x="549" y="727" on="1"/>
        <pt x="659" y="727" on="1"/>
        <pt x="659" y="0" on="1"/>
      </contour>
    </TTGlyph>
    <TTGlyph name="O" xMin="44" yMin="-14" xMax="748" yMax="742">
      <contour>
        <pt x="177" y="364" on="1"/>
        <pt x="177" y="306" on="0"/>
        <pt x="207" y="202" on="0"/>
        <pt x="263" y="123" on="0"/>
        <pt x="345" y="77" on="0"/>
        <pt x="396" y="77" on="1"/>
        <pt x="442" y="77" on="0"/>
        <pt x="522" y="118" on="0"/>
        <pt x="582" y="193" on="0"/>
        <pt x="616" y="299" on="0"/>
        <pt x="616" y="364" on="1"/>
        <pt x="616" y="427" on="0"/>
        <pt x="584" y="533" on="0"/>
        <pt x="526" y="608" on="0"/>
        <pt x="445" y="650" on="0"/>
        <pt x="396" y="650" on="1"/>
        <pt x="346" y="650" on="0"/>
        <pt x="265" y="606" on="0"/>
        <pt x="208" y="530" on="0"/>
        <pt x="177" y="425" on="0"/>
      </contour>
      <contour>
        <pt x="44" y="364" on="1"/>
        <pt x="44" y="449" on="0"/>
        <pt x="97" y="588" on="0"/>
        <pt x="192" y="687" on="0"/>
        <pt x="321" y="742" on="0"/>
        <pt x="396" y="742" on="1"/>
        <pt x="488" y="742" on="0"/>
        <pt x="621" y="677" on="0"/>
        <pt x="707" y="570" on="0"/>
        <pt x="748" y="434" on="0"/>
        <pt x="748" y="364" on="1"/>
        <pt x="748" y="286" on="0"/>
        <pt x="698" y="148" on="0"/>
        <pt x="606" y="45" on="0"/>
        <pt x="476" y="-14" on="0"/>
        <pt x="396" y="-14" on="1"/>
        <pt x="316" y="-14" on="0"/>
        <pt x="186" y="41" on="0"/>
        <pt x="94" y="141" on="0"/>
        <pt x="44" y="280" on="0"/>
      </contour>
    </TTGlyph>
    <TTGlyph name="OE" xMin="29" yMin="-14" xMax="930" yMax="742">
      <contour>
        <pt x="744" y="426" on="1"/>
        <pt x="880" y="426" on="1"/>
        <pt x="880" y="337" on="1"/>
        <pt x="649" y="337" on="1"/>
        <pt x="654" y="352" on="0"/>
        <pt x="670" y="384" on="0"/>
        <pt x="693" y="410" on="0"/>
        <pt x="724" y="426" on="0"/>
      </contour>
      <contour>
        <pt x="382" y="650" on="1"/>
        <pt x="331" y="650" on="0"/>
        <pt x="250" y="606" on="0"/>
        <pt x="193" y="530" on="0"/>
        <pt x="163" y="425" on="0"/>
        <pt x="163" y="364" on="1"/>
        <pt x="163" y="305" on="0"/>
        <pt x="194" y="200" on="0"/>
        <pt x="251" y="122" on="0"/>
        <pt x="332" y="77" on="0"/>
        <pt x="382" y="77" on="1"/>
        <pt x="408" y="77" on="0"/>
        <pt x="460" y="85" on="0"/>
        <pt x="486" y="94" on="1"/>
        <pt x="486" y="633" on="1"/>
        <pt x="437" y="650" on="0"/>
      </contour>
      <contour>
        <pt x="382" y="-14" on="1"/>
        <pt x="303" y="-14" on="0"/>
        <pt x="173" y="40" on="0"/>
        <pt x="80" y="139" on="0"/>
        <pt x="29" y="279" on="0"/>
        <pt x="29" y="364" on="1"/>
        <pt x="29" y="448" on="0"/>
        <pt x="81" y="587" on="0"/>
        <pt x="175" y="687" on="0"/>
        <pt x="305" y="742" on="0"/>
        <pt x="382" y="742" on="1"/>
        <pt x="418" y="742" on="0"/>
        <pt x="494" y="727" on="0"/>
        <pt x="537" y="727" on="1"/>
        <pt x="914" y="727" on="1"/>
        <pt x="914" y="636" on="1"/>
        <pt x="611" y="636" on="1"/>
        <pt x="611" y="91" on="1"/>
        <pt x="930" y="91" on="1"/>
        <pt x="930" y="0" on="1"/>
        <pt x="537" y="0" on="1"/>
        <pt x="490" y="0" on="0"/>
        <pt x="414" y="-14" on="0"/>
      </contour>
    </TTGlyph>
    <TTGlyph name="Oacute" xMin="29" yMin="-14" xMax="733" yMax="890">
      <contour>
        <pt x="542" y="890" on="1"/>
        <pt x="464" y="802" on="1"/>
        <pt x="451" y="787" on="0"/>
        <pt x="417" y="770" on="0"/>
        <pt x="382" y="762" on="0"/>
        <pt x="348" y="762" on="0"/>
        <pt x="336" y="765" on="1"/>
        <pt x="423" y="890" on="1"/>
      </contour>
      <contour>
        <pt x="601" y="364" on="1"/>
        <pt x="601" y="425" on="0"/>
        <pt x="570" y="530" on="0"/>
        <pt x="513" y="606" on="0"/>
        <pt x="432" y="650" on="0"/>
        <pt x="381" y="650" on="1"/>
        <pt x="331" y="650" on="0"/>
        <pt x="250" y="606" on="0"/>
        <pt x="193" y="530" on="0"/>
        <pt x="162" y="425" on="0"/>
        <pt x="162" y="364" on="1"/>
        <pt x="162" y="305" on="0"/>
        <pt x="193" y="200" on="0"/>
        <pt x="250" y="122" on="0"/>
        <pt x="331" y="77" on="0"/>
        <pt x="381" y="77" on="1"/>
        <pt x="432" y="77" on="0"/>
        <pt x="513" y="122" on="0"/>
        <pt x="570" y="200" on="0"/>
        <pt x="601" y="305" on="0"/>
      </contour>
      <contour>
        <pt x="733" y="364" on="1"/>
        <pt x="733" y="280" on="0"/>
        <pt x="679" y="141" on="0"/>
        <pt x="584" y="41" on="0"/>
        <pt x="456" y="-14" on="0"/>
        <pt x="381" y="-14" on="1"/>
        <pt x="302" y="-14" on="0"/>
        <pt x="172" y="40" on="0"/>
        <pt x="80" y="139" on="0"/>
        <pt x="29" y="279" on="0"/>
        <pt x="29" y="364" on="1"/>
        <pt x="29" y="448" on="0"/>
        <pt x="81" y="587" on="0"/>
        <pt x="175" y="687" on="0"/>
        <pt x="304" y="742" on="0"/>
        <pt x="381" y="742" on="1"/>
        <pt x="460" y="742" on="0"/>
        <pt x="590" y="687" on="0"/>
        <pt x="683" y="588" on="0"/>
        <pt x="733" y="449" on="0"/>
      </contour>
    </TTGlyph>
    <TTGlyph name="Ocircumflex" xMin="29" yMin="-14" xMax="733" yMax="890">
      <contour>
        <pt x="341" y="890" on="1"/>
        <pt x="426" y="890" on="1"/>
        <pt x="535" y="772" on="1"/>
        <pt x="465" y="758" on="1"/>
        <pt x="383" y="815" on="1"/>
        <pt x="302" y="758" on="1"/>
        <pt x="234" y="772" on="1"/>
      </contour>
      <contour>
        <pt x="601" y="364" on="1"/>
        <pt x="601" y="425" on="0"/>
        <pt x="570" y="530" on="0"/>
        <pt x="513" y="606" on="0"/>
        <pt x="432" y="650" on="0"/>
        <pt x="381" y="650" on="1"/>
        <pt x="331" y="650" on="0"/>
        <pt x="250" y="606" on="0"/>
        <pt x="193" y="530" on="0"/>
        <pt x="162" y="425" on="0"/>
        <pt x="162" y="364" on="1"/>
        <pt x="162" y="305" on="0"/>
        <pt x="193" y="200" on="0"/>
        <pt x="250" y="122" on="0"/>
        <pt x="331" y="77" on="0"/>
        <pt x="381" y="77" on="1"/>
        <pt x="432" y="77" on="0"/>
        <pt x="513" y="122" on="0"/>
        <pt x="570" y="200" on="0"/>
        <pt x="601" y="305" on="0"/>
      </contour>
      <contour>
        <pt x="733" y="364" on="1"/>
        <pt x="733" y="280" on="0"/>
        <pt x="679" y="141" on="0"/>
        <pt x="584" y="41" on="0"/>
        <pt x="456" y="-14" on="0"/>
        <pt x="381" y="-14" on="1"/>
        <pt x="302" y="-14" on="0"/>
        <pt x="172" y="40" on="0"/>
        <pt x="80" y="139" on="0"/>
        <pt x="29" y="279" on="0"/>
        <pt x="29" y="364" on="1"/>
        <pt x="29" y="448" on="0"/>
        <pt x="81" y="587" on="0"/>
        <pt x="175" y="687" on="0"/>
        <pt x="304" y="742" on="0"/>
        <pt x="381" y="742" on="1"/>
        <pt x="460" y="742" on="0"/>
        <pt x="590" y="687" on="0"/>
        <pt x="683" y="588" on="0"/>
        <pt x="733" y="449" on="0"/>
      </contour>
    </TTGlyph>
    <TTGlyph name="Odieresis" xMin="29" yMin="-14" xMax="734" yMax="899">
      <contour>
        <pt x="422" y="840" on="1"/>
        <pt x="422" y="865" on="0"/>
        <pt x="457" y="899" on="0"/>
        <pt x="481" y="899" on="1"/>
        <pt x="505" y="899" on="0"/>
        <pt x="540" y="865" on="0"/>
        <pt x="540" y="840" on="1"/>
        <pt x="540" y="815" on="0"/>
        <pt x="505" y="781" on="0"/>
        <pt x="481" y="781" on="1"/>
        <pt x="457" y="781" on="0"/>
        <pt x="422" y="815" on="0"/>
      </contour>
      <contour>
        <pt x="227" y="840" on="1"/>
        <pt x="227" y="865" on="0"/>
        <pt x="262" y="899" on="0"/>
        <pt x="286" y="899" on="1"/>
        <pt x="311" y="899" on="0"/>
        <pt x="346" y="865" on="0"/>
        <pt x="346" y="840" on="1"/>
        <pt x="346" y="815" on="0"/>
        <pt x="311" y="781" on="0"/>
        <pt x="286" y="781" on="1"/>
        <pt x="262" y="781" on="0"/>
        <pt x="227" y="815" on="0"/>
      </contour>
      <contour>
        <pt x="601" y="364" on="1"/>
        <pt x="601" y="425" on="0"/>
        <pt x="571" y="530" on="0"/>
        <pt x="514" y="606" on="0"/>
        <pt x="433" y="650" on="0"/>
        <pt x="382" y="650" on="1"/>
        <pt x="331" y="650" on="0"/>
        <pt x="250" y="606" on="0"/>
        <pt x="193" y="530" on="0"/>
        <pt x="163" y="425" on="0"/>
        <pt x="163" y="364" on="1"/>
        <pt x="163" y="305" on="0"/>
        <pt x="194" y="200" on="0"/>
        <pt x="251" y="122" on="0"/>
        <pt x="332" y="77" on="0"/>
        <pt x="382" y="77" on="1"/>
        <pt x="433" y="77" on="0"/>
        <pt x="514" y="122" on="0"/>
        <pt x="571" y="200" on="0"/>
        <pt x="601" y="305" on="0"/>
      </contour>
      <contour>
        <pt x="734" y="364" on="1"/>
        <pt x="734" y="280" on="0"/>
        <pt x="680" y="141" on="0"/>
        <pt x="585" y="41" on="0"/>
        <pt x="457" y="-14" on="0"/>
        <pt x="382" y="-14" on="1"/>
        <pt x="303" y="-14" on="0"/>
        <pt x="173" y="40" on="0"/>
        <pt x="80" y="139" on="0"/>
        <pt x="29" y="279" on="0"/>
        <pt x="29" y="364" on="1"/>
        <pt x="29" y="448" on="0"/>
        <pt x="81" y="587" on="0"/>
        <pt x="175" y="687" on="0"/>
        <pt x="305" y="742" on="0"/>
        <pt x="382" y="742" on="1"/>
        <pt x="461" y="742" on="0"/>
        <pt x="591" y="687" on="0"/>
        <pt x="683" y="588" on="0"/>
        <pt x="734" y="449" on="0"/>
      </contour>
    </TTGlyph>
    <TTGlyph name="Ograve" xMin="30" yMin="-14" xMax="735" yMax="890">
      <contour>
        <pt x="290" y="802" on="1"/>
        <pt x="225" y="890" on="1"/>
        <pt x="343" y="890" on="1"/>
        <pt x="417" y="765" on="1"/>
        <pt x="404" y="762" on="0"/>
        <pt x="370" y="762" on="0"/>
        <pt x="334" y="769" on="0"/>
        <pt x="301" y="787" on="0"/>
      </contour>
      <contour>
        <pt x="602" y="364" on="1"/>
        <pt x="602" y="425" on="0"/>
        <pt x="571" y="530" on="0"/>
        <pt x="514" y="606" on="0"/>
        <pt x="433" y="650" on="0"/>
        <pt x="383" y="650" on="1"/>
        <pt x="332" y="650" on="0"/>
        <pt x="251" y="606" on="0"/>
        <pt x="194" y="530" on="0"/>
        <pt x="163" y="425" on="0"/>
        <pt x="163" y="364" on="1"/>
        <pt x="163" y="305" on="0"/>
        <pt x="194" y="200" on="0"/>
        <pt x="251" y="122" on="0"/>
        <pt x="332" y="77" on="0"/>
        <pt x="383" y="77" on="1"/>
        <pt x="433" y="77" on="0"/>
        <pt x="514" y="122" on="0"/>
        <pt x="571" y="200" on="0"/>
        <pt x="602" y="305" on="0"/>
      </contour>
      <contour>
        <pt x="735" y="364" on="1"/>
        <pt x="735" y="280" on="0"/>
        <pt x="681" y="141" on="0"/>
        <pt x="586" y="41" on="0"/>
        <pt x="458" y="-14" on="0"/>
        <pt x="383" y="-14" on="1"/>
        <pt x="303" y="-14" on="0"/>
        <pt x="173" y="40" on="0"/>
        <pt x="81" y="139" on="0"/>
        <pt x="30" y="279" on="0"/>
        <pt x="30" y="364" on="1"/>
        <pt x="30" y="448" on="0"/>
        <pt x="82" y="587" on="0"/>
        <pt x="176" y="687" on="0"/>
        <pt x="306" y="742" on="0"/>
        <pt x="383" y="742" on="1"/>
        <pt x="462" y="742" on="0"/>
        <pt x="592" y="687" on="0"/>
        <pt x="684" y="588" on="0"/>
        <pt x="735" y="449" on="0"/>
      </contour>
    </TTGlyph>
    <TTGlyph name="Oslash" xMin="29" yMin="-60" xMax="734" yMax="789">
      <contour>
        <pt x="603" y="364" on="1"/>
        <pt x="603" y="423" on="0"/>
        <pt x="573" y="523" on="0"/>
        <pt x="547" y="561" on="1"/>
        <pt x="298" y="140" on="1"/>
        <pt x="287" y="153" on="0"/>
        <pt x="269" y="184" on="0"/>
        <pt x="259" y="218" on="0"/>
        <pt x="260" y="255" on="0"/>
        <pt x="270" y="274" on="1"/>
        <pt x="480" y="625" on="1"/>
        <pt x="437" y="651" on="0"/>
        <pt x="382" y="651" on="1"/>
        <pt x="331" y="651" on="0"/>
        <pt x="250" y="607" on="0"/>
        <pt x="192" y="530" on="0"/>
        <pt x="161" y="425" on="0"/>
        <pt x="161" y="364" on="1"/>
        <pt x="161" y="305" on="0"/>
        <pt x="192" y="200" on="0"/>
        <pt x="250" y="122" on="0"/>
        <pt x="332" y="77" on="0"/>
        <pt x="382" y="77" on="1"/>
        <pt x="433" y="77" on="0"/>
        <pt x="514" y="122" on="0"/>
        <pt x="572" y="200" on="0"/>
        <pt x="603" y="305" on="0"/>
      </contour>
      <contour>
        <pt x="681" y="789" on="1"/>
        <pt x="608" y="665" on="1"/>
        <pt x="668" y="615" on="0"/>
        <pt x="734" y="461" on="0"/>
        <pt x="734" y="364" on="1"/>
        <pt x="734" y="280" on="0"/>
        <pt x="680" y="141" on="0"/>
        <pt x="585" y="41" on="0"/>
        <pt x="457" y="-14" on="0"/>
        <pt x="382" y="-14" on="1"/>
        <pt x="340" y="-14" on="0"/>
        <pt x="266" y="2" on="0"/>
        <pt x="232" y="16" on="1"/>
        <pt x="188" y="-60" on="1"/>
        <pt x="85" y="-60" on="1"/>
        <pt x="157" y="62" on="1"/>
        <pt x="96" y="112" on="0"/>
        <pt x="29" y="265" on="0"/>
        <pt x="29" y="364" on="1"/>
        <pt x="29" y="448" on="0"/>
        <pt x="81" y="587" on="0"/>
        <pt x="175" y="687" on="0"/>
        <pt x="305" y="742" on="0"/>
        <pt x="382" y="742" on="1"/>
        <pt x="463" y="742" on="0"/>
        <pt x="531" y="711" on="1"/>
        <pt x="578" y="789" on="1"/>
      </contour>
    </TTGlyph>
    <TTGlyph name="Otilde" xMin="29" yMin="-14" xMax="734" yMax="897">
      <contour>
        <pt x="299" y="777" on="1"/>
        <pt x="232" y="783" on="1"/>
        <pt x="233" y="810" on="0"/>
        <pt x="249" y="853" on="0"/>
        <pt x="275" y="882" on="0"/>
        <pt x="309" y="897" on="0"/>
        <pt x="327" y="897" on="1"/>
        <pt x="349" y="897" on="0"/>
        <pt x="381" y="880" on="0"/>
        <pt x="408" y="860" on="0"/>
        <pt x="432" y="843" on="0"/>
        <pt x="445" y="843" on="1"/>
        <pt x="459" y="843" on="0"/>
        <pt x="474" y="870" on="0"/>
        <pt x="476" y="893" on="1"/>
        <pt x="542" y="887" on="1"/>
        <pt x="540" y="856" on="0"/>
        <pt x="523" y="812" on="0"/>
        <pt x="497" y="785" on="0"/>
        <pt x="466" y="773" on="0"/>
        <pt x="451" y="773" on="1"/>
        <pt x="427" y="773" on="0"/>
        <pt x="394" y="790" on="0"/>
        <pt x="369" y="810" on="0"/>
        <pt x="347" y="827" on="0"/>
        <pt x="334" y="827" on="1"/>
        <pt x="323" y="827" on="0"/>
        <pt x="301" y="805" on="0"/>
      </contour>
      <contour>
        <pt x="601" y="364" on="1"/>
        <pt x="601" y="425" on="0"/>
        <pt x="571" y="530" on="0"/>
        <pt x="514" y="606" on="0"/>
        <pt x="433" y="650" on="0"/>
        <pt x="382" y="650" on="1"/>
        <pt x="331" y="650" on="0"/>
        <pt x="250" y="606" on="0"/>
        <pt x="193" y="530" on="0"/>
        <pt x="163" y="425" on="0"/>
        <pt x="163" y="364" on="1"/>
        <pt x="163" y="305" on="0"/>
        <pt x="194" y="200" on="0"/>
        <pt x="251" y="122" on="0"/>
        <pt x="332" y="77" on="0"/>
        <pt x="382" y="77" on="1"/>
        <pt x="433" y="77" on="0"/>
        <pt x="514" y="122" on="0"/>
        <pt x="571" y="200" on="0"/>
        <pt x="601" y="305" on="0"/>
      </contour>
      <contour>
        <pt x="734" y="364" on="1"/>
        <pt x="734" y="280" on="0"/>
        <pt x="680" y="141" on="0"/>
        <pt x="585" y="41" on="0"/>
        <pt x="457" y="-14" on="0"/>
        <pt x="382" y="-14" on="1"/>
        <pt x="303" y="-14" on="0"/>
        <pt x="173" y="40" on="0"/>
        <pt x="80" y="139" on="0"/>
        <pt x="29" y="279" on="0"/>
        <pt x="29" y="364" on="1"/>
        <pt x="29" y="448" on="0"/>
        <pt x="81" y="587" on="0"/>
        <pt x="175" y="687" on="0"/>
        <pt x="305" y="742" on="0"/>
        <pt x="382" y="742" on="1"/>
        <pt x="461" y="742" on="0"/>
        <pt x="591" y="687" on="0"/>
        <pt x="683" y="588" on="0"/>
        <pt x="734" y="449" on="0"/>
      </contour>
    </TTGlyph>
    <TTGlyph name="P" xMin="85" yMin="0" xMax="582" yMax="741">
      <contour>
        <pt x="582" y="516" on="1"/>
        <pt x="582" y="467" on="0"/>
        <pt x="543" y="389" on="0"/>
        <pt x="478" y="332" on="0"/>
        <pt x="395" y="299" on="0"/>
        <pt x="350" y="295" on="1"/>
        <pt x="327" y="293" on="0"/>
        <pt x="277" y="296" on="0"/>
        <pt x="249" y="304" on="1"/>
        <pt x="255" y="317" on="0"/>
        <pt x="271" y="345" on="0"/>
        <pt x="292" y="367" on="0"/>
        <pt x="319" y="382" on="0"/>
        <pt x="336" y="383" on="1"/>
        <pt x="358" y="384" on="0"/>
        <pt x="401" y="405" on="0"/>
        <pt x="433" y="441" on="0"/>
        <pt x="453" y="489" on="0"/>
        <pt x="453" y="516" on="1"/>
        <pt x="453" y="544" on="0"/>
        <pt x="431" y="592" on="0"/>
        <pt x="391" y="628" on="0"/>
        <pt x="337" y="649" on="0"/>
        <pt x="305" y="649" on="1"/>
        <pt x="277" y="649" on="0"/>
        <pt x="238" y="646" on="0"/>
        <pt x="211" y="643" on="1"/>
        <pt x="211" y="0" on="1"/>
        <pt x="85" y="1" on="1"/>
        <pt x="85" y="719" on="1"/>
        <pt x="121" y="725" on="0"/>
        <pt x="178" y="734" on="0"/>
        <pt x="229" y="739" on="0"/>
        <pt x="278" y="741" on="0"/>
        <pt x="305" y="741" on="1"/>
        <pt x="365" y="741" on="0"/>
        <pt x="467" y="708" on="0"/>
        <pt x="541" y="649" on="0"/>
        <pt x="582" y="566" on="0"/>
      </contour>
    </TTGlyph>
    <TTGlyph name="Q" xMin="47" yMin="-21" xMax="751" yMax="742">
      <contour>
        <pt x="661" y="115" on="1"/>
        <pt x="728" y="46" on="1"/>
        <pt x="660" y="-21" on="1"/>
        <pt x="413" y="231" on="1"/>
        <pt x="481" y="298" on="1"/>
        <pt x="568" y="208" on="1"/>
        <pt x="581" y="188" on="1"/>
        <pt x="588" y="213" on="1"/>
        <pt x="605" y="248" on="0"/>
        <pt x="618" y="326" on="0"/>
        <pt x="618" y="364" on="1"/>
        <pt x="618" y="425" on="0"/>
        <pt x="588" y="530" on="0"/>
        <pt x="531" y="606" on="0"/>
        <pt x="450" y="650" on="0"/>
        <pt x="399" y="650" on="1"/>
        <pt x="349" y="650" on="0"/>
        <pt x="268" y="606" on="0"/>
        <pt x="211" y="530" on="0"/>
        <pt x="180" y="425" on="0"/>
        <pt x="180" y="364" on="1"/>
        <pt x="180" y="305" on="0"/>
        <pt x="210" y="201" on="0"/>
        <pt x="265" y="123" on="0"/>
        <pt x="343" y="78" on="0"/>
        <pt x="391" y="78" on="1"/>
        <pt x="402" y="78" on="0"/>
        <pt x="428" y="80" on="0"/>
        <pt x="439" y="82" on="1"/>
        <pt x="470" y="84" on="0"/>
        <pt x="527" y="55" on="0"/>
        <pt x="543" y="37" on="1"/>
        <pt x="505" y="11" on="0"/>
        <pt x="428" y="-14" on="0"/>
        <pt x="391" y="-14" on="1"/>
        <pt x="314" y="-14" on="0"/>
        <pt x="187" y="41" on="0"/>
        <pt x="97" y="141" on="0"/>
        <pt x="47" y="280" on="0"/>
        <pt x="47" y="364" on="1"/>
        <pt x="47" y="448" on="0"/>
        <pt x="99" y="587" on="0"/>
        <pt x="193" y="687" on="0"/>
        <pt x="322" y="742" on="0"/>
        <pt x="399" y="742" on="1"/>
        <pt x="478" y="742" on="0"/>
        <pt x="608" y="687" on="0"/>
        <pt x="701" y="588" on="0"/>
        <pt x="751" y="449" on="0"/>
        <pt x="751" y="364" on="1"/>
        <pt x="751" y="295" on="0"/>
        <pt x="704" y="172" on="0"/>
      </contour>
    </TTGlyph>
    <TTGlyph name="R" xMin="85" yMin="0" xMax="612" yMax="741">
      <contour>
        <pt x="582" y="521" on="1"/>
        <pt x="582" y="461" on="0"/>
        <pt x="524" y="372" on="0"/>
        <pt x="476" y="345" on="1"/>
        <pt x="449" y="335" on="1"/>
        <pt x="491" y="313" on="0"/>
        <pt x="534" y="242" on="0"/>
        <pt x="563" y="154" on="0"/>
        <pt x="588" y="52" on="0"/>
        <pt x="612" y="0" on="1"/>
        <pt x="483" y="0" on="1"/>
        <pt x="465" y="40" on="0"/>
        <pt x="442" y="131" on="0"/>
        <pt x="417" y="216" on="0"/>
        <pt x="381" y="286" on="0"/>
        <pt x="349" y="305" on="1"/>
        <pt x="334" y="303" on="0"/>
        <pt x="317" y="305" on="1"/>
        <pt x="301" y="305" on="0"/>
        <pt x="267" y="309" on="0"/>
        <pt x="249" y="314" on="1"/>
        <pt x="255" y="327" on="0"/>
        <pt x="271" y="355" on="0"/>
        <pt x="292" y="378" on="0"/>
        <pt x="319" y="393" on="0"/>
        <pt x="336" y="394" on="1"/>
        <pt x="358" y="395" on="0"/>
        <pt x="401" y="416" on="0"/>
        <pt x="433" y="449" on="0"/>
        <pt x="453" y="494" on="0"/>
        <pt x="453" y="521" on="1"/>
        <pt x="453" y="548" on="0"/>
        <pt x="430" y="595" on="0"/>
        <pt x="390" y="630" on="0"/>
        <pt x="336" y="649" on="0"/>
        <pt x="305" y="649" on="1"/>
        <pt x="291" y="649" on="0"/>
        <pt x="270" y="648" on="0"/>
        <pt x="249" y="647" on="0"/>
        <pt x="226" y="644" on="0"/>
        <pt x="211" y="642" on="1"/>
        <pt x="211" y="0" on="1"/>
        <pt x="85" y="0" on="1"/>
        <pt x="85" y="718" on="1"/>
        <pt x="121" y="724" on="0"/>
        <pt x="178" y="733" on="0"/>
        <pt x="229" y="739" on="0"/>
        <pt x="278" y="741" on="0"/>
        <pt x="305" y="741" on="1"/>
        <pt x="364" y="741" on="0"/>
        <pt x="466" y="709" on="0"/>
        <pt x="540" y="652" on="0"/>
        <pt x="582" y="570" on="0"/>
      </contour>
    </TTGlyph>
    <TTGlyph name="S" xMin="54" yMin="-13" xMax="521" yMax="740">
      <contour>
        <pt x="286" y="650" on="1"/>
        <pt x="236" y="650" on="0"/>
        <pt x="181" y="599" on="0"/>
        <pt x="181" y="561" on="1"/>
        <pt x="181" y="525" on="0"/>
        <pt x="231" y="473" on="0"/>
        <pt x="307" y="428" on="0"/>
        <pt x="395" y="382" on="0"/>
        <pt x="471" y="323" on="0"/>
        <pt x="521" y="242" on="0"/>
        <pt x="521" y="185" on="1"/>
        <pt x="521" y="141" on="0"/>
        <pt x="486" y="68" on="0"/>
        <pt x="422" y="16" on="0"/>
        <pt x="330" y="-13" on="0"/>
        <pt x="273" y="-13" on="1"/>
        <pt x="230" y="-13" on="0"/>
        <pt x="116" y="10" on="0"/>
        <pt x="54" y="39" on="1"/>
        <pt x="87" y="121" on="1"/>
        <pt x="138" y="98" on="0"/>
        <pt x="231" y="79" on="0"/>
        <pt x="268" y="79" on="1"/>
        <pt x="298" y="79" on="0"/>
        <pt x="347" y="95" on="0"/>
        <pt x="382" y="124" on="0"/>
        <pt x="401" y="162" on="0"/>
        <pt x="401" y="184" on="1"/>
        <pt x="401" y="223" on="0"/>
        <pt x="351" y="277" on="0"/>
        <pt x="276" y="322" on="0"/>
        <pt x="188" y="365" on="0"/>
        <pt x="113" y="422" on="0"/>
        <pt x="63" y="498" on="0"/>
        <pt x="63" y="553" on="1"/>
        <pt x="63" y="598" on="0"/>
        <pt x="96" y="668" on="0"/>
        <pt x="154" y="715" on="0"/>
        <pt x="232" y="740" on="0"/>
        <pt x="277" y="740" on="1"/>
        <pt x="299" y="740" on="0"/>
        <pt x="342" y="737" on="0"/>
        <pt x="388" y="730" on="0"/>
        <pt x="438" y="717" on="0"/>
        <pt x="467" y="708" on="1"/>
        <pt x="434" y="627" on="1"/>
        <pt x="389" y="640" on="0"/>
        <pt x="317" y="650" on="0"/>
      </contour>
    </TTGlyph>
    <TTGlyph name="Scaron" xMin="49" yMin="-13" xMax="516" yMax="893">
      <contour>
        <pt x="323" y="761" on="1"/>
        <pt x="238" y="761" on="1"/>
        <pt x="131" y="879" on="1"/>
        <pt x="199" y="893" on="1"/>
        <pt x="280" y="836" on="1"/>
        <pt x="362" y="893" on="1"/>
        <pt x="432" y="879" on="1"/>
      </contour>
      <contour>
        <pt x="281" y="650" on="1"/>
        <pt x="231" y="650" on="0"/>
        <pt x="176" y="599" on="0"/>
        <pt x="176" y="561" on="1"/>
        <pt x="176" y="525" on="0"/>
        <pt x="226" y="473" on="0"/>
        <pt x="302" y="428" on="0"/>
        <pt x="390" y="382" on="0"/>
        <pt x="466" y="323" on="0"/>
        <pt x="516" y="242" on="0"/>
        <pt x="516" y="185" on="1"/>
        <pt x="516" y="141" on="0"/>
        <pt x="481" y="68" on="0"/>
        <pt x="417" y="16" on="0"/>
        <pt x="325" y="-13" on="0"/>
        <pt x="268" y="-13" on="1"/>
        <pt x="225" y="-13" on="0"/>
        <pt x="111" y="10" on="0"/>
        <pt x="49" y="39" on="1"/>
        <pt x="83" y="121" on="1"/>
        <pt x="134" y="98" on="0"/>
        <pt x="226" y="79" on="0"/>
        <pt x="263" y="79" on="1"/>
        <pt x="293" y="79" on="0"/>
        <pt x="342" y="95" on="0"/>
        <pt x="377" y="124" on="0"/>
        <pt x="396" y="162" on="0"/>
        <pt x="396" y="184" on="1"/>
        <pt x="396" y="223" on="0"/>
        <pt x="346" y="277" on="0"/>
        <pt x="271" y="322" on="0"/>
        <pt x="183" y="365" on="0"/>
        <pt x="108" y="422" on="0"/>
        <pt x="58" y="498" on="0"/>
        <pt x="58" y="553" on="1"/>
        <pt x="58" y="598" on="0"/>
        <pt x="91" y="668" on="0"/>
        <pt x="149" y="715" on="0"/>
        <pt x="227" y="740" on="0"/>
        <pt x="272" y="740" on="1"/>
        <pt x="294" y="740" on="0"/>
        <pt x="337" y="737" on="0"/>
        <pt x="383" y="730" on="0"/>
        <pt x="433" y="717" on="0"/>
        <pt x="462" y="708" on="1"/>
        <pt x="429" y="627" on="1"/>
        <pt x="384" y="640" on="0"/>
        <pt x="312" y="650" on="0"/>
      </contour>
    </TTGlyph>
    <TTGlyph name="T" xMin="7" yMin="0" xMax="529" yMax="727">
      <contour>
        <pt x="205" y="636" on="1"/>
        <pt x="7" y="636" on="1"/>
        <pt x="7" y="727" on="1"/>
        <pt x="529" y="727" on="1"/>
        <pt x="529" y="636" on="1"/>
        <pt x="330" y="636" on="1"/>
        <pt x="330" y="0" on="1"/>
        <pt x="205" y="0" on="1"/>
      </contour>
    </TTGlyph>
    <TTGlyph name="Thorn" xMin="79" yMin="0" xMax="570" yMax="727">
      <contour>
        <pt x="570" y="364" on="1"/>
        <pt x="570" y="313" on="0"/>
        <pt x="531" y="234" on="0"/>
        <pt x="466" y="177" on="0"/>
        <pt x="382" y="144" on="0"/>
        <pt x="337" y="140" on="1"/>
        <pt x="314" y="138" on="0"/>
        <pt x="264" y="141" on="0"/>
        <pt x="236" y="149" on="1"/>
        <pt x="242" y="162" on="0"/>
        <pt x="258" y="190" on="0"/>
        <pt x="279" y="212" on="0"/>
        <pt x="306" y="227" on="0"/>
        <pt x="323" y="228" on="1"/>
        <pt x="345" y="229" on="0"/>
        <pt x="388" y="251" on="0"/>
        <pt x="420" y="287" on="0"/>
        <pt x="440" y="335" on="0"/>
        <pt x="440" y="364" on="1"/>
        <pt x="440" y="393" on="0"/>
        <pt x="418" y="443" on="0"/>
        <pt x="379" y="479" on="0"/>
        <pt x="324" y="500" on="0"/>
        <pt x="292" y="500" on="1"/>
        <pt x="265" y="500" on="0"/>
        <pt x="225" y="497" on="0"/>
        <pt x="198" y="494" on="1"/>
        <pt x="198" y="0" on="1"/>
        <pt x="79" y="0" on="1"/>
        <pt x="79" y="727" on="1"/>
        <pt x="198" y="727" on="1"/>
        <pt x="198" y="588" on="1"/>
        <pt x="221" y="590" on="0"/>
        <pt x="266" y="592" on="0"/>
        <pt x="292" y="592" on="1"/>
        <pt x="353" y="592" on="0"/>
        <pt x="455" y="559" on="0"/>
        <pt x="529" y="499" on="0"/>
        <pt x="570" y="415" on="0"/>
      </contour>
    </TTGlyph>
    <TTGlyph name="U" xMin="81" yMin="-14" xMax="646" yMax="727">
      <contour>
        <pt x="364" y="-14" on="1"/>
        <pt x="298" y="-14" on="0"/>
        <pt x="193" y="25" on="0"/>
        <pt x="120" y="99" on="0"/>
        <pt x="81" y="206" on="0"/>
        <pt x="81" y="274" on="1"/>
        <pt x="81" y="727" on="1"/>
        <pt x="204" y="727" on="1"/>
        <pt x="204" y="259" on="1"/>
        <pt x="204" y="217" on="0"/>
        <pt x="228" y="149" on="0"/>
        <pt x="270" y="102" on="0"/>
        <pt x="329" y="77" on="0"/>
        <pt x="364" y="77" on="1"/>
        <pt x="434" y="77" on="0"/>
        <pt x="523" y="174" on="0"/>
        <pt x="523" y="259" on="1"/>
        <pt x="523" y="727" on="1"/>
        <pt x="646" y="727" on="1"/>
        <pt x="646" y="274" on="1"/>
        <pt x="646" y="209" on="0"/>
        <pt x="606" y="102" on="0"/>
        <pt x="532" y="27" on="0"/>
        <pt x="428" y="-14" on="0"/>
      </contour>
    </TTGlyph>
    <TTGlyph name="Uacute" xMin="64" yMin="-14" xMax="629" yMax="890">
      <contour>
        <pt x="502" y="890" on="1"/>
        <pt x="424" y="802" on="1"/>
        <pt x="411" y="787" on="0"/>
        <pt x="377" y="770" on="0"/>
        <pt x="342" y="762" on="0"/>
        <pt x="308" y="762" on="0"/>
        <pt x="296" y="765" on="1"/>
        <pt x="383" y="890" on="1"/>
      </contour>
      <contour>
        <pt x="347" y="-14" on="1"/>
        <pt x="281" y="-14" on="0"/>
        <pt x="176" y="25" on="0"/>
        <pt x="103" y="99" on="0"/>
        <pt x="64" y="206" on="0"/>
        <pt x="64" y="274" on="1"/>
        <pt x="64" y="727" on="1"/>
        <pt x="188" y="727" on="1"/>
        <pt x="188" y="259" on="1"/>
        <pt x="188" y="174" on="0"/>
        <pt x="276" y="77" on="0"/>
        <pt x="347" y="77" on="1"/>
        <pt x="417" y="77" on="0"/>
        <pt x="506" y="174" on="0"/>
        <pt x="506" y="259" on="1"/>
        <pt x="506" y="727" on="1"/>
        <pt x="629" y="727" on="1"/>
        <pt x="629" y="274" on="1"/>
        <pt x="629" y="209" on="0"/>
        <pt x="589" y="102" on="0"/>
        <pt x="515" y="27" on="0"/>
        <pt x="411" y="-14" on="0"/>
      </contour>
    </TTGlyph>
    <TTGlyph name="Ucircumflex" xMin="64" yMin="-14" xMax="629" yMax="890">
      <contour>
        <pt x="304" y="890" on="1"/>
        <pt x="389" y="890" on="1"/>
        <pt x="498" y="772" on="1"/>
        <pt x="428" y="758" on="1"/>
        <pt x="346" y="815" on="1"/>
        <pt x="265" y="758" on="1"/>
        <pt x="197" y="772" on="1"/>
      </contour>
      <contour>
        <pt x="347" y="-14" on="1"/>
        <pt x="281" y="-14" on="0"/>
        <pt x="176" y="25" on="0"/>
        <pt x="103" y="99" on="0"/>
        <pt x="64" y="206" on="0"/>
        <pt x="64" y="274" on="1"/>
        <pt x="64" y="727" on="1"/>
        <pt x="188" y="727" on="1"/>
        <pt x="188" y="259" on="1"/>
        <pt x="188" y="174" on="0"/>
        <pt x="276" y="77" on="0"/>
        <pt x="347" y="77" on="1"/>
        <pt x="417" y="77" on="0"/>
        <pt x="506" y="174" on="0"/>
        <pt x="506" y="259" on="1"/>
        <pt x="506" y="727" on="1"/>
        <pt x="629" y="727" on="1"/>
        <pt x="629" y="274" on="1"/>
        <pt x="629" y="209" on="0"/>
        <pt x="589" y="102" on="0"/>
        <pt x="515" y="27" on="0"/>
        <pt x="411" y="-14" on="0"/>
      </contour>
    </TTGlyph>
    <TTGlyph name="Udieresis" xMin="64" yMin="-14" xMax="628" yMax="899">
      <contour>
        <pt x="386" y="840" on="1"/>
        <pt x="386" y="865" on="0"/>
        <pt x="421" y="899" on="0"/>
        <pt x="445" y="899" on="1"/>
        <pt x="469" y="899" on="0"/>
        <pt x="504" y="865" on="0"/>
        <pt x="504" y="840" on="1"/>
        <pt x="504" y="815" on="0"/>
        <pt x="469" y="781" on="0"/>
        <pt x="445" y="781" on="1"/>
        <pt x="421" y="781" on="0"/>
        <pt x="386" y="815" on="0"/>
      </contour>
      <contour>
        <pt x="191" y="840" on="1"/>
        <pt x="191" y="865" on="0"/>
        <pt x="226" y="899" on="0"/>
        <pt x="250" y="899" on="1"/>
        <pt x="275" y="899" on="0"/>
        <pt x="310" y="865" on="0"/>
        <pt x="310" y="840" on="1"/>
        <pt x="310" y="815" on="0"/>
        <pt x="275" y="781" on="0"/>
        <pt x="250" y="781" on="1"/>
        <pt x="226" y="781" on="0"/>
        <pt x="191" y="815" on="0"/>
      </contour>
      <contour>
        <pt x="346" y="-14" on="1"/>
        <pt x="280" y="-14" on="0"/>
        <pt x="176" y="25" on="0"/>
        <pt x="103" y="99" on="0"/>
        <pt x="64" y="206" on="0"/>
        <pt x="64" y="274" on="1"/>
        <pt x="64" y="727" on="1"/>
        <pt x="187" y="727" on="1"/>
        <pt x="187" y="259" on="1"/>
        <pt x="187" y="174" on="0"/>
        <pt x="276" y="77" on="0"/>
        <pt x="346" y="77" on="1"/>
        <pt x="381" y="77" on="0"/>
        <pt x="440" y="102" on="0"/>
        <pt x="482" y="149" on="0"/>
        <pt x="506" y="217" on="0"/>
        <pt x="506" y="259" on="1"/>
        <pt x="506" y="727" on="1"/>
        <pt x="628" y="727" on="1"/>
        <pt x="628" y="274" on="1"/>
        <pt x="628" y="209" on="0"/>
        <pt x="588" y="102" on="0"/>
        <pt x="515" y="27" on="0"/>
        <pt x="410" y="-14" on="0"/>
      </contour>
    </TTGlyph>
    <TTGlyph name="Ugrave" xMin="65" yMin="-14" xMax="630" yMax="890">
      <contour>
        <pt x="274" y="802" on="1"/>
        <pt x="208" y="890" on="1"/>
        <pt x="327" y="890" on="1"/>
        <pt x="401" y="765" on="1"/>
        <pt x="388" y="762" on="0"/>
        <pt x="354" y="762" on="0"/>
        <pt x="318" y="769" on="0"/>
        <pt x="285" y="787" on="0"/>
      </contour>
      <contour>
        <pt x="348" y="-14" on="1"/>
        <pt x="282" y="-14" on="0"/>
        <pt x="177" y="25" on="0"/>
        <pt x="104" y="99" on="0"/>
        <pt x="65" y="206" on="0"/>
        <pt x="65" y="274" on="1"/>
        <pt x="65" y="727" on="1"/>
        <pt x="188" y="727" on="1"/>
        <pt x="188" y="259" on="1"/>
        <pt x="188" y="217" on="0"/>
        <pt x="212" y="149" on="0"/>
        <pt x="254" y="102" on="0"/>
        <pt x="313" y="77" on="0"/>
        <pt x="348" y="77" on="1"/>
        <pt x="418" y="77" on="0"/>
        <pt x="507" y="174" on="0"/>
        <pt x="507" y="259" on="1"/>
        <pt x="507" y="727" on="1"/>
        <pt x="630" y="727" on="1"/>
        <pt x="630" y="274" on="1"/>
        <pt x="630" y="209" on="0"/>
        <pt x="590" y="102" on="0"/>
        <pt x="516" y="27" on="0"/>
        <pt x="412" y="-14" on="0"/>
      </contour>
    </TTGlyph>
    <TTGlyph name="V" xMin="10" yMin="0" xMax="647" yMax="727">
      <contour>
        <pt x="394" y="0" on="1"/>
        <pt x="265" y="0" on="1"/>
        <pt x="10" y="727" on="1"/>
        <pt x="143" y="727" on="1"/>
        <pt x="324" y="158" on="1"/>
        <pt x="331" y="122" on="1"/>
        <pt x="338" y="157" on="1"/>
        <pt x="518" y="727" on="1"/>
        <pt x="647" y="727" on="1"/>
      </contour>
    </TTGlyph>
    <TTGlyph name="W" xMin="27" yMin="0" xMax="999" yMax="727">
      <contour>
        <pt x="448" y="717" on="1"/>
        <pt x="585" y="717" on="1"/>
        <pt x="721" y="172" on="1"/>
        <pt x="731" y="119" on="1"/>
        <pt x="740" y="170" on="1"/>
        <pt x="879" y="727" on="1"/>
        <pt x="999" y="727" on="1"/>
        <pt x="798" y="0" on="1"/>
        <pt x="668" y="0" on="1"/>
        <pt x="523" y="547" on="1"/>
        <pt x="515" y="588" on="1"/>
        <pt x="507" y="548" on="1"/>
        <pt x="363" y="0" on="1"/>
        <pt x="229" y="0" on="1"/>
        <pt x="27" y="727" on="1"/>
        <pt x="150" y="727" on="1"/>
        <pt x="290" y="172" on="1"/>
        <pt x="298" y="119" on="1"/>
        <pt x="309" y="172" on="1"/>
      </contour>
    </TTGlyph>
    <TTGlyph name="X" xMin="31" yMin="0" xMax="615" yMax="727">
      <contour>
        <pt x="259" y="170" on="1"/>
        <pt x="165" y="0" on="1"/>
        <pt x="31" y="0" on="1"/>
        <pt x="230" y="327" on="1"/>
        <pt x="239" y="315" on="0"/>
        <pt x="259" y="277" on="0"/>
        <pt x="271" y="235" on="0"/>
        <pt x="270" y="190" on="0"/>
      </contour>
      <contour>
        <pt x="478" y="0" on="1"/>
        <pt x="43" y="727" on="1"/>
        <pt x="183" y="727" on="1"/>
        <pt x="315" y="478" on="1"/>
        <pt x="325" y="449" on="1"/>
        <pt x="333" y="478" on="1"/>
        <pt x="465" y="727" on="1"/>
        <pt x="603" y="727" on="1"/>
        <pt x="388" y="371" on="1"/>
        <pt x="615" y="0" on="1"/>
      </contour>
    </TTGlyph>
    <TTGlyph name="Y" xMin="26" yMin="0" xMax="639" yMax="727">
      <contour>
        <pt x="398" y="536" on="1"/>
        <pt x="504" y="727" on="1"/>
        <pt x="639" y="727" on="1"/>
        <pt x="427" y="377" on="1"/>
        <pt x="417" y="389" on="0"/>
        <pt x="397" y="426" on="0"/>
        <pt x="385" y="469" on="0"/>
        <pt x="386" y="515" on="0"/>
      </contour>
      <contour>
        <pt x="164" y="727" on="1"/>
        <pt x="397" y="338" on="1"/>
        <pt x="397" y="0" on="1"/>
        <pt x="276" y="0" on="1"/>
        <pt x="276" y="317" on="1"/>
        <pt x="26" y="727" on="1"/>
      </contour>
    </TTGlyph>
    <TTGlyph name="Yacute" xMin="14" yMin="0" xMax="627" yMax="890">
      <contour>
        <pt x="498" y="890" on="1"/>
        <pt x="420" y="802" on="1"/>
        <pt x="407" y="787" on="0"/>
        <pt x="373" y="770" on="0"/>
        <pt x="338" y="762" on="0"/>
        <pt x="304" y="762" on="0"/>
        <pt x="292" y="765" on="1"/>
        <pt x="379" y="890" on="1"/>
      </contour>
      <contour>
        <pt x="385" y="536" on="1"/>
        <pt x="491" y="727" on="1"/>
        <pt x="627" y="727" on="1"/>
        <pt x="414" y="377" on="1"/>
        <pt x="405" y="389" on="0"/>
        <pt x="384" y="426" on="0"/>
        <pt x="372" y="469" on="0"/>
        <pt x="373" y="515" on="0"/>
      </contour>
      <contour>
        <pt x="152" y="727" on="1"/>
        <pt x="385" y="338" on="1"/>
        <pt x="385" y="0" on="1"/>
        <pt x="264" y="0" on="1"/>
        <pt x="264" y="317" on="1"/>
        <pt x="14" y="727" on="1"/>
      </contour>
    </TTGlyph>
    <TTGlyph name="Ydieresis" xMin="12" yMin="0" xMax="626" yMax="899">
      <contour>
        <pt x="362" y="840" on="1"/>
        <pt x="362" y="865" on="0"/>
        <pt x="397" y="899" on="0"/>
        <pt x="421" y="899" on="1"/>
        <pt x="446" y="899" on="0"/>
        <pt x="481" y="865" on="0"/>
        <pt x="481" y="840" on="1"/>
        <pt x="481" y="815" on="0"/>
        <pt x="446" y="781" on="0"/>
        <pt x="421" y="781" on="1"/>
        <pt x="397" y="781" on="0"/>
        <pt x="362" y="815" on="0"/>
      </contour>
      <contour>
        <pt x="168" y="840" on="1"/>
        <pt x="168" y="865" on="0"/>
        <pt x="203" y="899" on="0"/>
        <pt x="226" y="899" on="1"/>
        <pt x="251" y="899" on="0"/>
        <pt x="286" y="865" on="0"/>
        <pt x="286" y="840" on="1"/>
        <pt x="286" y="815" on="0"/>
        <pt x="251" y="781" on="0"/>
        <pt x="226" y="781" on="1"/>
        <pt x="203" y="781" on="0"/>
        <pt x="168" y="815" on="0"/>
      </contour>
      <contour>
        <pt x="384" y="536" on="1"/>
        <pt x="490" y="727" on="1"/>
        <pt x="626" y="727" on="1"/>
        <pt x="413" y="377" on="1"/>
        <pt x="404" y="389" on="0"/>
        <pt x="383" y="426" on="0"/>
        <pt x="371" y="469" on="0"/>
        <pt x="372" y="515" on="0"/>
      </contour>
      <contour>
        <pt x="150" y="727" on="1"/>
        <pt x="384" y="338" on="1"/>
        <pt x="384" y="0" on="1"/>
        <pt x="263" y="0" on="1"/>
        <pt x="263" y="317" on="1"/>
        <pt x="12" y="727" on="1"/>
      </contour>
    </TTGlyph>
    <TTGlyph name="Z" xMin="61" yMin="0" xMax="599" yMax="727">
      <contour>
        <pt x="97" y="637" on="1"/>
        <pt x="97" y="727" on="1"/>
        <pt x="589" y="727" on="1"/>
        <pt x="589" y="676" on="1"/>
        <pt x="222" y="103" on="1"/>
        <pt x="206" y="88" on="1"/>
        <pt x="229" y="91" on="1"/>
        <pt x="599" y="91" on="1"/>
        <pt x="599" y="0" on="1"/>
        <pt x="61" y="0" on="1"/>
        <pt x="61" y="51" on="1"/>
        <pt x="428" y="623" on="1"/>
        <pt x="444" y="640" on="1"/>
        <pt x="420" y="637" on="1"/>
      </contour>
    </TTGlyph>
    <TTGlyph name="Zcaron" xMin="78" yMin="0" xMax="615" yMax="893">
      <contour>
        <pt x="406" y="761" on="1"/>
        <pt x="321" y="761" on="1"/>
        <pt x="214" y="879" on="1"/>
        <pt x="282" y="893" on="1"/>
        <pt x="363" y="836" on="1"/>
        <pt x="445" y="893" on="1"/>
        <pt x="515" y="879" on="1"/>
      </contour>
      <contour>
        <pt x="113" y="637" on="1"/>
        <pt x="113" y="727" on="1"/>
        <pt x="605" y="727" on="1"/>
        <pt x="605" y="676" on="1"/>
        <pt x="238" y="103" on="1"/>
        <pt x="222" y="88" on="1"/>
        <pt x="245" y="91" on="1"/>
        <pt x="615" y="91" on="1"/>
        <pt x="615" y="0" on="1"/>
        <pt x="78" y="0" on="1"/>
        <pt x="78" y="51" on="1"/>
        <pt x="444" y="623" on="1"/>
        <pt x="460" y="640" on="1"/>
        <pt x="436" y="637" on="1"/>
      </contour>
    </TTGlyph>
    <TTGlyph name="a" xMin="42" yMin="-12" xMax="489" yMax="528">
      <contour>
        <pt x="473" y="312" on="1"/>
        <pt x="473" y="172" on="1"/>
        <pt x="473" y="123" on="0"/>
        <pt x="478" y="42" on="0"/>
        <pt x="489" y="0" on="1"/>
        <pt x="399" y="0" on="1"/>
        <pt x="382" y="10" on="0"/>
        <pt x="362" y="50" on="0"/>
        <pt x="360" y="70" on="1"/>
        <pt x="349" y="52" on="1"/>
        <pt x="328" y="32" on="0"/>
        <pt x="291" y="7" on="0"/>
        <pt x="256" y="-7" on="0"/>
        <pt x="221" y="-12" on="0"/>
        <pt x="202" y="-12" on="1"/>
        <pt x="165" y="-12" on="0"/>
        <pt x="106" y="12" on="0"/>
        <pt x="64" y="52" on="0"/>
        <pt x="42" y="106" on="0"/>
        <pt x="42" y="136" on="1"/>
        <pt x="42" y="170" on="0"/>
        <pt x="69" y="227" on="0"/>
        <pt x="134" y="271" on="0"/>
        <pt x="239" y="302" on="0"/>
        <pt x="317" y="309" on="1"/>
        <pt x="313" y="280" on="0"/>
        <pt x="282" y="228" on="0"/>
        <pt x="248" y="222" on="1"/>
        <pt x="200" y="214" on="0"/>
        <pt x="163" y="172" on="0"/>
        <pt x="163" y="146" on="1"/>
        <pt x="163" y="118" on="0"/>
        <pt x="202" y="79" on="0"/>
        <pt x="233" y="79" on="1"/>
        <pt x="264" y="79" on="0"/>
        <pt x="326" y="116" on="0"/>
        <pt x="353" y="150" on="1"/>
        <pt x="353" y="315" on="1"/>
        <pt x="353" y="370" on="0"/>
        <pt x="296" y="436" on="0"/>
        <pt x="237" y="436" on="1"/>
        <pt x="211" y="436" on="0"/>
        <pt x="156" y="426" on="0"/>
        <pt x="121" y="413" on="1"/>
        <pt x="91" y="491" on="1"/>
        <pt x="137" y="512" on="0"/>
        <pt x="224" y="528" on="0"/>
        <pt x="258" y="528" on="1"/>
        <pt x="361" y="528" on="0"/>
        <pt x="473" y="416" on="0"/>
      </contour>
    </TTGlyph>
    <TTGlyph name="aacute" xMin="33" yMin="-12" xMax="482" yMax="740">
      <contour>
        <pt x="466" y="312" on="1"/>
        <pt x="466" y="172" on="1"/>
        <pt x="466" y="123" on="0"/>
        <pt x="471" y="42" on="0"/>
        <pt x="482" y="0" on="1"/>
        <pt x="390" y="0" on="1"/>
        <pt x="373" y="9" on="0"/>
        <pt x="354" y="47" on="0"/>
        <pt x="350" y="65" on="1"/>
        <pt x="307" y="18" on="0"/>
        <pt x="233" y="-12" on="0"/>
        <pt x="193" y="-12" on="1"/>
        <pt x="156" y="-12" on="0"/>
        <pt x="97" y="12" on="0"/>
        <pt x="55" y="52" on="0"/>
        <pt x="33" y="106" on="0"/>
        <pt x="33" y="136" on="1"/>
        <pt x="33" y="170" on="0"/>
        <pt x="60" y="227" on="0"/>
        <pt x="125" y="271" on="0"/>
        <pt x="230" y="302" on="0"/>
        <pt x="308" y="309" on="1"/>
        <pt x="303" y="280" on="0"/>
        <pt x="273" y="228" on="0"/>
        <pt x="239" y="222" on="1"/>
        <pt x="190" y="214" on="0"/>
        <pt x="154" y="172" on="0"/>
        <pt x="154" y="146" on="1"/>
        <pt x="154" y="118" on="0"/>
        <pt x="193" y="79" on="0"/>
        <pt x="224" y="79" on="1"/>
        <pt x="255" y="79" on="0"/>
        <pt x="317" y="116" on="0"/>
        <pt x="344" y="150" on="1"/>
        <pt x="344" y="315" on="1"/>
        <pt x="344" y="370" on="0"/>
        <pt x="287" y="436" on="0"/>
        <pt x="228" y="436" on="1"/>
        <pt x="202" y="436" on="0"/>
        <pt x="147" y="426" on="0"/>
        <pt x="112" y="413" on="1"/>
        <pt x="82" y="491" on="1"/>
        <pt x="128" y="512" on="0"/>
        <pt x="205" y="528" on="0"/>
        <pt x="240" y="528" on="1"/>
        <pt x="350" y="528" on="0"/>
        <pt x="466" y="416" on="0"/>
      </contour>
      <contour>
        <pt x="418" y="740" on="1"/>
        <pt x="335" y="640" on="1"/>
        <pt x="322" y="624" on="0"/>
        <pt x="289" y="605" on="0"/>
        <pt x="253" y="598" on="0"/>
        <pt x="220" y="599" on="0"/>
        <pt x="207" y="602" on="1"/>
        <pt x="295" y="740" on="1"/>
      </contour>
    </TTGlyph>
    <TTGlyph name="acircumflex" xMin="34" yMin="-12" xMax="482" yMax="743">
      <contour>
        <pt x="466" y="312" on="1"/>
        <pt x="466" y="172" on="1"/>
        <pt x="466" y="123" on="0"/>
        <pt x="471" y="42" on="0"/>
        <pt x="482" y="0" on="1"/>
        <pt x="390" y="0" on="1"/>
        <pt x="373" y="9" on="0"/>
        <pt x="354" y="47" on="0"/>
        <pt x="350" y="65" on="1"/>
        <pt x="307" y="18" on="0"/>
        <pt x="233" y="-12" on="0"/>
        <pt x="193" y="-12" on="1"/>
        <pt x="156" y="-12" on="0"/>
        <pt x="97" y="12" on="0"/>
        <pt x="56" y="52" on="0"/>
        <pt x="34" y="106" on="0"/>
        <pt x="34" y="136" on="1"/>
        <pt x="34" y="170" on="0"/>
        <pt x="61" y="227" on="0"/>
        <pt x="125" y="271" on="0"/>
        <pt x="231" y="302" on="0"/>
        <pt x="309" y="309" on="1"/>
        <pt x="304" y="280" on="0"/>
        <pt x="273" y="228" on="0"/>
        <pt x="239" y="222" on="1"/>
        <pt x="191" y="214" on="0"/>
        <pt x="154" y="172" on="0"/>
        <pt x="154" y="146" on="1"/>
        <pt x="154" y="118" on="0"/>
        <pt x="193" y="79" on="0"/>
        <pt x="225" y="79" on="1"/>
        <pt x="255" y="79" on="0"/>
        <pt x="317" y="116" on="0"/>
        <pt x="345" y="150" on="1"/>
        <pt x="345" y="315" on="1"/>
        <pt x="345" y="370" on="0"/>
        <pt x="288" y="436" on="0"/>
        <pt x="229" y="436" on="1"/>
        <pt x="203" y="436" on="0"/>
        <pt x="147" y="426" on="0"/>
        <pt x="112" y="413" on="1"/>
        <pt x="82" y="491" on="1"/>
        <pt x="128" y="512" on="0"/>
        <pt x="206" y="528" on="0"/>
        <pt x="240" y="528" on="1"/>
        <pt x="350" y="528" on="0"/>
        <pt x="466" y="416" on="0"/>
      </contour>
      <contour>
        <pt x="224" y="743" on="1"/>
        <pt x="309" y="743" on="1"/>
        <pt x="418" y="601" on="1"/>
        <pt x="348" y="587" on="1"/>
        <pt x="266" y="664" on="1"/>
        <pt x="185" y="587" on="1"/>
        <pt x="117" y="601" on="1"/>
      </contour>
    </TTGlyph>
    <TTGlyph name="acute" xMin="59" yMin="598" xMax="270" yMax="740">
      <contour>
        <pt x="270" y="740" on="1"/>
        <pt x="187" y="640" on="1"/>
        <pt x="174" y="624" on="0"/>
        <pt x="141" y="605" on="0"/>
        <pt x="105" y="598" on="0"/>
        <pt x="72" y="599" on="0"/>
        <pt x="59" y="602" on="1"/>
        <pt x="147" y="740" on="1"/>
      </contour>
    </TTGlyph>
    <TTGlyph name="adieresis" xMin="34" yMin="-12" xMax="483" yMax="729">
      <contour>
        <pt x="467" y="312" on="1"/>
        <pt x="467" y="172" on="1"/>
        <pt x="467" y="123" on="0"/>
        <pt x="472" y="42" on="0"/>
        <pt x="483" y="0" on="1"/>
        <pt x="391" y="0" on="1"/>
        <pt x="374" y="9" on="0"/>
        <pt x="355" y="47" on="0"/>
        <pt x="351" y="65" on="1"/>
        <pt x="308" y="18" on="0"/>
        <pt x="234" y="-12" on="0"/>
        <pt x="194" y="-12" on="1"/>
        <pt x="157" y="-12" on="0"/>
        <pt x="98" y="12" on="0"/>
        <pt x="56" y="52" on="0"/>
        <pt x="34" y="106" on="0"/>
        <pt x="34" y="136" on="1"/>
        <pt x="34" y="170" on="0"/>
        <pt x="61" y="227" on="0"/>
        <pt x="126" y="271" on="0"/>
        <pt x="231" y="302" on="0"/>
        <pt x="309" y="309" on="1"/>
        <pt x="304" y="280" on="0"/>
        <pt x="274" y="228" on="0"/>
        <pt x="240" y="222" on="1"/>
        <pt x="191" y="214" on="0"/>
        <pt x="155" y="172" on="0"/>
        <pt x="155" y="146" on="1"/>
        <pt x="155" y="118" on="0"/>
        <pt x="194" y="79" on="0"/>
        <pt x="225" y="79" on="1"/>
        <pt x="256" y="79" on="0"/>
        <pt x="318" y="116" on="0"/>
        <pt x="345" y="150" on="1"/>
        <pt x="345" y="315" on="1"/>
        <pt x="345" y="370" on="0"/>
        <pt x="288" y="436" on="0"/>
        <pt x="229" y="436" on="1"/>
        <pt x="203" y="436" on="0"/>
        <pt x="148" y="426" on="0"/>
        <pt x="113" y="413" on="1"/>
        <pt x="83" y="491" on="1"/>
        <pt x="129" y="512" on="0"/>
        <pt x="206" y="528" on="0"/>
        <pt x="241" y="528" on="1"/>
        <pt x="351" y="528" on="0"/>
        <pt x="467" y="416" on="0"/>
      </contour>
      <contour>
        <pt x="306" y="670" on="1"/>
        <pt x="306" y="695" on="0"/>
        <pt x="341" y="729" on="0"/>
        <pt x="365" y="729" on="1"/>
        <pt x="389" y="729" on="0"/>
        <pt x="424" y="695" on="0"/>
        <pt x="424" y="670" on="1"/>
        <pt x="424" y="645" on="0"/>
        <pt x="389" y="611" on="0"/>
        <pt x="365" y="611" on="1"/>
        <pt x="341" y="611" on="0"/>
        <pt x="306" y="645" on="0"/>
      </contour>
      <contour>
        <pt x="111" y="670" on="1"/>
        <pt x="111" y="695" on="0"/>
        <pt x="146" y="729" on="0"/>
        <pt x="170" y="729" on="1"/>
        <pt x="195" y="729" on="0"/>
        <pt x="230" y="695" on="0"/>
        <pt x="230" y="670" on="1"/>
        <pt x="230" y="645" on="0"/>
        <pt x="195" y="611" on="0"/>
        <pt x="170" y="611" on="1"/>
        <pt x="146" y="611" on="0"/>
        <pt x="111" y="645" on="0"/>
      </contour>
    </TTGlyph>
    <TTGlyph name="ae" xMin="34" yMin="-12" xMax="807" yMax="529">
      <contour>
        <pt x="584" y="317" on="1"/>
        <pt x="688" y="317" on="1"/>
        <pt x="691" y="342" on="0"/>
        <pt x="679" y="387" on="0"/>
        <pt x="654" y="421" on="0"/>
        <pt x="616" y="441" on="0"/>
        <pt x="593" y="441" on="1"/>
        <pt x="568" y="441" on="0"/>
        <pt x="522" y="420" on="0"/>
        <pt x="487" y="377" on="0"/>
        <pt x="466" y="312" on="0"/>
        <pt x="466" y="268" on="1"/>
        <pt x="466" y="180" on="0"/>
        <pt x="548" y="79" on="0"/>
        <pt x="614" y="79" on="1"/>
        <pt x="649" y="79" on="0"/>
        <pt x="714" y="96" on="0"/>
        <pt x="757" y="116" on="1"/>
        <pt x="789" y="33" on="1"/>
        <pt x="737" y="8" on="0"/>
        <pt x="644" y="-12" on="0"/>
        <pt x="601" y="-12" on="1"/>
        <pt x="567" y="-12" on="0"/>
        <pt x="505" y="11" on="0"/>
        <pt x="454" y="49" on="0"/>
        <pt x="417" y="99" on="0"/>
        <pt x="408" y="125" on="1"/>
        <pt x="394" y="90" on="0"/>
        <pt x="350" y="39" on="0"/>
        <pt x="297" y="5" on="0"/>
        <pt x="238" y="-12" on="0"/>
        <pt x="210" y="-12" on="1"/>
        <pt x="130" y="-12" on="0"/>
        <pt x="34" y="69" on="0"/>
        <pt x="34" y="136" on="1"/>
        <pt x="34" y="170" on="0"/>
        <pt x="61" y="227" on="0"/>
        <pt x="126" y="271" on="0"/>
        <pt x="231" y="302" on="0"/>
        <pt x="309" y="309" on="1"/>
        <pt x="306" y="287" on="0"/>
        <pt x="285" y="243" on="0"/>
        <pt x="262" y="232" on="1"/>
        <pt x="236" y="216" on="0"/>
        <pt x="196" y="202" on="0"/>
        <pt x="169" y="189" on="0"/>
        <pt x="155" y="168" on="0"/>
        <pt x="155" y="146" on="1"/>
        <pt x="155" y="118" on="0"/>
        <pt x="194" y="79" on="0"/>
        <pt x="225" y="79" on="1"/>
        <pt x="282" y="79" on="0"/>
        <pt x="345" y="179" on="0"/>
        <pt x="345" y="264" on="1"/>
        <pt x="345" y="315" on="1"/>
        <pt x="345" y="370" on="0"/>
        <pt x="288" y="436" on="0"/>
        <pt x="229" y="436" on="1"/>
        <pt x="203" y="436" on="0"/>
        <pt x="148" y="426" on="0"/>
        <pt x="113" y="413" on="1"/>
        <pt x="83" y="491" on="1"/>
        <pt x="129" y="512" on="0"/>
        <pt x="216" y="528" on="0"/>
        <pt x="250" y="528" on="1"/>
        <pt x="302" y="528" on="0"/>
        <pt x="391" y="471" on="0"/>
        <pt x="417" y="420" on="1"/>
        <pt x="430" y="444" on="0"/>
        <pt x="471" y="485" on="0"/>
        <pt x="519" y="513" on="0"/>
        <pt x="574" y="529" on="0"/>
        <pt x="601" y="529" on="1"/>
        <pt x="655" y="529" on="0"/>
        <pt x="742" y="484" on="0"/>
        <pt x="795" y="406" on="0"/>
        <pt x="807" y="301" on="0"/>
        <pt x="787" y="241" on="1"/>
        <pt x="504" y="241" on="1"/>
        <pt x="515" y="273" on="0"/>
        <pt x="555" y="317" on="0"/>
      </contour>
    </TTGlyph>
    <TTGlyph name="agrave" xMin="34" yMin="-12" xMax="480" yMax="740">
      <contour>
        <pt x="464" y="312" on="1"/>
        <pt x="464" y="172" on="1"/>
        <pt x="464" y="123" on="0"/>
        <pt x="469" y="42" on="0"/>
        <pt x="480" y="0" on="1"/>
        <pt x="390" y="0" on="1"/>
        <pt x="373" y="9" on="0"/>
        <pt x="354" y="47" on="0"/>
        <pt x="350" y="65" on="1"/>
        <pt x="307" y="18" on="0"/>
        <pt x="233" y="-12" on="0"/>
        <pt x="193" y="-12" on="1"/>
        <pt x="156" y="-12" on="0"/>
        <pt x="97" y="12" on="0"/>
        <pt x="56" y="52" on="0"/>
        <pt x="34" y="106" on="0"/>
        <pt x="34" y="136" on="1"/>
        <pt x="34" y="170" on="0"/>
        <pt x="61" y="227" on="0"/>
        <pt x="125" y="271" on="0"/>
        <pt x="231" y="302" on="0"/>
        <pt x="309" y="309" on="1"/>
        <pt x="304" y="280" on="0"/>
        <pt x="273" y="228" on="0"/>
        <pt x="239" y="222" on="1"/>
        <pt x="191" y="214" on="0"/>
        <pt x="154" y="172" on="0"/>
        <pt x="154" y="146" on="1"/>
        <pt x="154" y="118" on="0"/>
        <pt x="193" y="79" on="0"/>
        <pt x="225" y="79" on="1"/>
        <pt x="255" y="79" on="0"/>
        <pt x="317" y="116" on="0"/>
        <pt x="345" y="150" on="1"/>
        <pt x="345" y="315" on="1"/>
        <pt x="345" y="370" on="0"/>
        <pt x="288" y="436" on="0"/>
        <pt x="229" y="436" on="1"/>
        <pt x="203" y="436" on="0"/>
        <pt x="147" y="426" on="0"/>
        <pt x="112" y="413" on="1"/>
        <pt x="82" y="491" on="1"/>
        <pt x="128" y="512" on="0"/>
        <pt x="206" y="528" on="0"/>
        <pt x="240" y="528" on="1"/>
        <pt x="350" y="528" on="0"/>
        <pt x="464" y="416" on="0"/>
      </contour>
      <contour>
        <pt x="181" y="642" on="1"/>
        <pt x="114" y="740" on="1"/>
        <pt x="233" y="740" on="1"/>
        <pt x="306" y="602" on="1"/>
        <pt x="293" y="599" on="0"/>
        <pt x="261" y="599" on="0"/>
        <pt x="227" y="608" on="0"/>
        <pt x="194" y="626" on="0"/>
      </contour>
    </TTGlyph>
    <TTGlyph name="ampersand" xMin="114" yMin="-11" xMax="726" yMax="737">
      <contour>
        <pt x="388" y="86" on="1"/>
        <pt x="423" y="92" on="0"/>
        <pt x="475" y="66" on="0"/>
        <pt x="497" y="44" on="1"/>
        <pt x="462" y="17" on="0"/>
        <pt x="384" y="-11" on="0"/>
        <pt x="335" y="-11" on="1"/>
        <pt x="284" y="-11" on="0"/>
        <pt x="203" y="23" on="0"/>
        <pt x="145" y="82" on="0"/>
        <pt x="114" y="162" on="0"/>
        <pt x="114" y="209" on="1"/>
        <pt x="114" y="276" on="0"/>
        <pt x="183" y="378" on="0"/>
        <pt x="232" y="415" on="1"/>
        <pt x="200" y="460" on="0"/>
        <pt x="178" y="524" on="0"/>
        <pt x="178" y="555" on="1"/>
        <pt x="178" y="597" on="0"/>
        <pt x="209" y="665" on="0"/>
        <pt x="265" y="712" on="0"/>
        <pt x="344" y="737" on="0"/>
        <pt x="391" y="737" on="1"/>
        <pt x="424" y="737" on="0"/>
        <pt x="506" y="720" on="0"/>
        <pt x="541" y="703" on="1"/>
        <pt x="514" y="622" on="1"/>
        <pt x="484" y="633" on="0"/>
        <pt x="416" y="645" on="0"/>
        <pt x="389" y="645" on="1"/>
        <pt x="345" y="645" on="0"/>
        <pt x="289" y="599" on="0"/>
        <pt x="289" y="564" on="1"/>
        <pt x="290" y="523" on="0"/>
        <pt x="338" y="453" on="0"/>
        <pt x="379" y="404" on="1"/>
        <pt x="534" y="219" on="1"/>
        <pt x="551" y="261" on="0"/>
        <pt x="577" y="333" on="0"/>
        <pt x="584" y="379" on="1"/>
        <pt x="683" y="379" on="1"/>
        <pt x="669" y="313" on="0"/>
        <pt x="631" y="198" on="0"/>
        <pt x="600" y="147" on="1"/>
        <pt x="726" y="0" on="1"/>
        <pt x="583" y="0" on="1"/>
        <pt x="308" y="320" on="1"/>
        <pt x="288" y="347" on="1"/>
        <pt x="267" y="318" on="0"/>
        <pt x="234" y="264" on="0"/>
        <pt x="234" y="222" on="1"/>
        <pt x="234" y="160" on="0"/>
        <pt x="293" y="81" on="0"/>
        <pt x="350" y="81" on="1"/>
        <pt x="361" y="81" on="0"/>
        <pt x="377" y="84" on="0"/>
      </contour>
    </TTGlyph>
    <TTGlyph name="aring" xMin="34" yMin="-12" xMax="483" yMax="749">
      <contour>
        <pt x="267" y="613" on="1"/>
        <pt x="287" y="613" on="0"/>
        <pt x="309" y="638" on="0"/>
        <pt x="309" y="657" on="1"/>
        <pt x="309" y="676" on="0"/>
        <pt x="287" y="701" on="0"/>
        <pt x="267" y="701" on="1"/>
        <pt x="249" y="701" on="0"/>
        <pt x="227" y="675" on="0"/>
        <pt x="227" y="655" on="1"/>
        <pt x="227" y="639" on="0"/>
        <pt x="248" y="613" on="0"/>
      </contour>
      <contour>
        <pt x="267" y="564" on="1"/>
        <pt x="221" y="564" on="0"/>
        <pt x="162" y="616" on="0"/>
        <pt x="162" y="655" on="1"/>
        <pt x="162" y="696" on="0"/>
        <pt x="222" y="749" on="0"/>
        <pt x="268" y="749" on="1"/>
        <pt x="315" y="749" on="0"/>
        <pt x="372" y="698" on="0"/>
        <pt x="372" y="656" on="1"/>
        <pt x="372" y="615" on="0"/>
        <pt x="311" y="564" on="0"/>
      </contour>
      <contour>
        <pt x="467" y="312" on="1"/>
        <pt x="467" y="172" on="1"/>
        <pt x="467" y="123" on="0"/>
        <pt x="472" y="42" on="0"/>
        <pt x="483" y="0" on="1"/>
        <pt x="391" y="0" on="1"/>
        <pt x="374" y="9" on="0"/>
        <pt x="355" y="47" on="0"/>
        <pt x="351" y="65" on="1"/>
        <pt x="308" y="18" on="0"/>
        <pt x="234" y="-12" on="0"/>
        <pt x="194" y="-12" on="1"/>
        <pt x="157" y="-12" on="0"/>
        <pt x="98" y="12" on="0"/>
        <pt x="56" y="52" on="0"/>
        <pt x="34" y="106" on="0"/>
        <pt x="34" y="136" on="1"/>
        <pt x="34" y="170" on="0"/>
        <pt x="61" y="227" on="0"/>
        <pt x="126" y="271" on="0"/>
        <pt x="231" y="302" on="0"/>
        <pt x="309" y="309" on="1"/>
        <pt x="304" y="280" on="0"/>
        <pt x="274" y="228" on="0"/>
        <pt x="240" y="222" on="1"/>
        <pt x="191" y="214" on="0"/>
        <pt x="155" y="172" on="0"/>
        <pt x="155" y="146" on="1"/>
        <pt x="155" y="118" on="0"/>
        <pt x="194" y="79" on="0"/>
        <pt x="225" y="79" on="1"/>
        <pt x="256" y="79" on="0"/>
        <pt x="318" y="116" on="0"/>
        <pt x="345" y="150" on="1"/>
        <pt x="345" y="315" on="1"/>
        <pt x="345" y="370" on="0"/>
        <pt x="288" y="436" on="0"/>
        <pt x="229" y="436" on="1"/>
        <pt x="203" y="436" on="0"/>
        <pt x="148" y="426" on="0"/>
        <pt x="113" y="413" on="1"/>
        <pt x="83" y="491" on="1"/>
        <pt x="129" y="512" on="0"/>
        <pt x="216" y="528" on="0"/>
        <pt x="250" y="528" on="1"/>
        <pt x="353" y="528" on="0"/>
        <pt x="467" y="416" on="0"/>
      </contour>
    </TTGlyph>
    <TTGlyph name="asciicircum" xMin="65" yMin="210" xMax="566" yMax="727">
      <contour>
        <pt x="309" y="557" on="1"/>
        <pt x="175" y="210" on="1"/>
        <pt x="65" y="210" on="1"/>
        <pt x="274" y="727" on="1"/>
        <pt x="357" y="727" on="1"/>
        <pt x="566" y="210" on="1"/>
        <pt x="458" y="210" on="1"/>
        <pt x="332" y="534" on="1"/>
        <pt x="330" y="539" on="0"/>
        <pt x="325" y="551" on="0"/>
        <pt x="323" y="557" on="1"/>
        <pt x="316" y="586" on="1"/>
      </contour>
    </TTGlyph>
    <TTGlyph name="asciitilde" xMin="63" yMin="222" xMax="569" yMax="391">
      <contour>
        <pt x="167" y="228" on="1"/>
        <pt x="63" y="236" on="1"/>
        <pt x="64" y="274" on="0"/>
        <pt x="90" y="331" on="0"/>
        <pt x="132" y="370" on="0"/>
        <pt x="187" y="391" on="0"/>
        <pt x="217" y="391" on="1"/>
        <pt x="251" y="391" on="0"/>
        <pt x="304" y="367" on="0"/>
        <pt x="350" y="338" on="0"/>
        <pt x="392" y="314" on="0"/>
        <pt x="416" y="314" on="1"/>
        <pt x="438" y="314" on="0"/>
        <pt x="463" y="353" on="0"/>
        <pt x="467" y="385" on="1"/>
        <pt x="569" y="377" on="1"/>
        <pt x="567" y="334" on="0"/>
        <pt x="539" y="275" on="0"/>
        <pt x="498" y="238" on="0"/>
        <pt x="447" y="222" on="0"/>
        <pt x="422" y="222" on="1"/>
        <pt x="384" y="222" on="0"/>
        <pt x="330" y="245" on="0"/>
        <pt x="286" y="274" on="0"/>
        <pt x="247" y="298" on="0"/>
        <pt x="224" y="298" on="1"/>
        <pt x="204" y="298" on="0"/>
        <pt x="170" y="265" on="0"/>
      </contour>
    </TTGlyph>
    <TTGlyph name="asterisk" xMin="51" yMin="349" xMax="450" yMax="743">
      <contour>
        <pt x="250" y="590" on="1"/>
        <pt x="309" y="743" on="1"/>
        <pt x="392" y="694" on="1"/>
        <pt x="372" y="669" on="0"/>
        <pt x="341" y="631" on="0"/>
        <pt x="317" y="601" on="0"/>
        <pt x="298" y="578" on="0"/>
        <pt x="289" y="568" on="1"/>
        <pt x="450" y="593" on="1"/>
        <pt x="450" y="497" on="1"/>
        <pt x="418" y="502" on="0"/>
        <pt x="369" y="509" on="0"/>
        <pt x="330" y="515" on="0"/>
        <pt x="300" y="520" on="0"/>
        <pt x="287" y="523" on="1"/>
        <pt x="391" y="397" on="1"/>
        <pt x="308" y="349" on="1"/>
        <pt x="250" y="502" on="1"/>
        <pt x="192" y="349" on="1"/>
        <pt x="109" y="397" on="1"/>
        <pt x="212" y="524" on="1"/>
        <pt x="51" y="498" on="1"/>
        <pt x="51" y="594" on="1"/>
        <pt x="211" y="569" on="1"/>
        <pt x="107" y="694" on="1"/>
        <pt x="191" y="743" on="1"/>
      </contour>
    </TTGlyph>
    <TTGlyph name="at" xMin="79" yMin="-128" xMax="823" yMax="644">
      <contour>
        <pt x="626" y="159" on="1"/>
        <pt x="625" y="153" on="0"/>
        <pt x="625" y="142" on="0"/>
        <pt x="624" y="137" on="1"/>
        <pt x="628" y="139" on="0"/>
        <pt x="635" y="146" on="0"/>
        <pt x="638" y="149" on="1"/>
        <pt x="689" y="182" on="0"/>
        <pt x="734" y="274" on="0"/>
        <pt x="734" y="322" on="1"/>
        <pt x="734" y="380" on="0"/>
        <pt x="695" y="472" on="0"/>
        <pt x="623" y="536" on="0"/>
        <pt x="522" y="570" on="0"/>
        <pt x="461" y="570" on="1"/>
        <pt x="397" y="570" on="0"/>
        <pt x="289" y="528" on="0"/>
        <pt x="211" y="449" on="0"/>
        <pt x="168" y="332" on="0"/>
        <pt x="168" y="257" on="1"/>
        <pt x="168" y="182" on="0"/>
        <pt x="211" y="67" on="0"/>
        <pt x="286" y="-13" on="0"/>
        <pt x="388" y="-54" on="0"/>
        <pt x="447" y="-54" on="1"/>
        <pt x="469" y="-54" on="0"/>
        <pt x="509" y="-52" on="0"/>
        <pt x="552" y="-46" on="0"/>
        <pt x="601" y="-34" on="0"/>
        <pt x="632" y="-24" on="1"/>
        <pt x="657" y="-93" on="1"/>
        <pt x="621" y="-104" on="0"/>
        <pt x="565" y="-118" on="0"/>
        <pt x="517" y="-126" on="0"/>
        <pt x="472" y="-128" on="0"/>
        <pt x="447" y="-128" on="1"/>
        <pt x="370" y="-128" on="0"/>
        <pt x="236" y="-83" on="0"/>
        <pt x="137" y="11" on="0"/>
        <pt x="79" y="156" on="0"/>
        <pt x="79" y="257" on="1"/>
        <pt x="79" y="350" on="0"/>
        <pt x="142" y="495" on="0"/>
        <pt x="248" y="593" on="0"/>
        <pt x="386" y="644" on="0"/>
        <pt x="462" y="644" on="1"/>
        <pt x="536" y="644" on="0"/>
        <pt x="667" y="601" on="0"/>
        <pt x="766" y="519" on="0"/>
        <pt x="823" y="399" on="0"/>
        <pt x="823" y="322" on="1"/>
        <pt x="823" y="271" on="0"/>
        <pt x="785" y="182" on="0"/>
        <pt x="718" y="112" on="0"/>
        <pt x="626" y="65" on="0"/>
        <pt x="572" y="55" on="1"/>
        <pt x="561" y="61" on="0"/>
        <pt x="550" y="82" on="0"/>
        <pt x="545" y="95" on="1"/>
        <pt x="543" y="114" on="1"/>
        <pt x="533" y="94" on="1"/>
        <pt x="504" y="65" on="0"/>
        <pt x="450" y="47" on="0"/>
        <pt x="423" y="47" on="1"/>
        <pt x="360" y="47" on="0"/>
        <pt x="288" y="107" on="0"/>
        <pt x="288" y="158" on="1"/>
        <pt x="288" y="218" on="0"/>
        <pt x="386" y="281" on="0"/>
        <pt x="502" y="293" on="1"/>
        <pt x="501" y="286" on="0"/>
        <pt x="495" y="264" on="0"/>
        <pt x="482" y="241" on="0"/>
        <pt x="461" y="223" on="0"/>
        <pt x="446" y="221" on="1"/>
        <pt x="403" y="215" on="0"/>
        <pt x="375" y="182" on="0"/>
        <pt x="375" y="162" on="1"/>
        <pt x="375" y="140" on="0"/>
        <pt x="409" y="113" on="0"/>
        <pt x="439" y="113" on="1"/>
        <pt x="465" y="113" on="0"/>
        <pt x="517" y="138" on="0"/>
        <pt x="540" y="169" on="1"/>
        <pt x="540" y="305" on="1"/>
        <pt x="540" y="396" on="0"/>
        <pt x="446" y="396" on="1"/>
        <pt x="425" y="396" on="0"/>
        <pt x="380" y="389" on="0"/>
        <pt x="350" y="378" on="1"/>
        <pt x="326" y="439" on="1"/>
        <pt x="366" y="455" on="0"/>
        <pt x="428" y="466" on="0"/>
        <pt x="460" y="466" on="1"/>
        <pt x="539" y="466" on="0"/>
        <pt x="625" y="381" on="0"/>
        <pt x="625" y="300" on="1"/>
        <pt x="625" y="216" on="1"/>
        <pt x="625" y="202" on="0"/>
        <pt x="625" y="173" on="0"/>
      </contour>
    </TTGlyph>
    <TTGlyph name="atilde" xMin="34" yMin="-12" xMax="483" yMax="738">
      <contour>
        <pt x="178" y="618" on="1"/>
        <pt x="111" y="624" on="1"/>
        <pt x="113" y="679" on="0"/>
        <pt x="169" y="738" on="0"/>
        <pt x="206" y="738" on="1"/>
        <pt x="228" y="738" on="0"/>
        <pt x="260" y="721" on="0"/>
        <pt x="287" y="701" on="0"/>
        <pt x="311" y="684" on="0"/>
        <pt x="324" y="684" on="1"/>
        <pt x="337" y="684" on="0"/>
        <pt x="353" y="711" on="0"/>
        <pt x="355" y="734" on="1"/>
        <pt x="420" y="728" on="1"/>
        <pt x="419" y="697" on="0"/>
        <pt x="401" y="653" on="0"/>
        <pt x="376" y="626" on="0"/>
        <pt x="345" y="614" on="0"/>
        <pt x="330" y="614" on="1"/>
        <pt x="306" y="614" on="0"/>
        <pt x="273" y="631" on="0"/>
        <pt x="247" y="651" on="0"/>
        <pt x="226" y="668" on="0"/>
        <pt x="213" y="668" on="1"/>
        <pt x="202" y="668" on="0"/>
        <pt x="180" y="646" on="0"/>
      </contour>
      <contour>
        <pt x="467" y="312" on="1"/>
        <pt x="467" y="172" on="1"/>
        <pt x="467" y="123" on="0"/>
        <pt x="472" y="42" on="0"/>
        <pt x="483" y="0" on="1"/>
        <pt x="391" y="0" on="1"/>
        <pt x="374" y="9" on="0"/>
        <pt x="355" y="47" on="0"/>
        <pt x="351" y="65" on="1"/>
        <pt x="308" y="18" on="0"/>
        <pt x="234" y="-12" on="0"/>
        <pt x="194" y="-12" on="1"/>
        <pt x="157" y="-12" on="0"/>
        <pt x="98" y="12" on="0"/>
        <pt x="56" y="52" on="0"/>
        <pt x="34" y="106" on="0"/>
        <pt x="34" y="136" on="1"/>
        <pt x="34" y="170" on="0"/>
        <pt x="61" y="227" on="0"/>
        <pt x="126" y="271" on="0"/>
        <pt x="231" y="302" on="0"/>
        <pt x="309" y="309" on="1"/>
        <pt x="304" y="280" on="0"/>
        <pt x="274" y="228" on="0"/>
        <pt x="240" y="222" on="1"/>
        <pt x="191" y="214" on="0"/>
        <pt x="155" y="172" on="0"/>
        <pt x="155" y="146" on="1"/>
        <pt x="155" y="118" on="0"/>
        <pt x="194" y="79" on="0"/>
        <pt x="225" y="79" on="1"/>
        <pt x="256" y="79" on="0"/>
        <pt x="318" y="116" on="0"/>
        <pt x="345" y="150" on="1"/>
        <pt x="345" y="315" on="1"/>
        <pt x="345" y="370" on="0"/>
        <pt x="288" y="436" on="0"/>
        <pt x="229" y="436" on="1"/>
        <pt x="203" y="436" on="0"/>
        <pt x="148" y="426" on="0"/>
        <pt x="113" y="413" on="1"/>
        <pt x="83" y="491" on="1"/>
        <pt x="129" y="512" on="0"/>
        <pt x="206" y="528" on="0"/>
        <pt x="241" y="528" on="1"/>
        <pt x="351" y="528" on="0"/>
        <pt x="467" y="416" on="0"/>
      </contour>
    </TTGlyph>
    <TTGlyph name="b" xMin="77" yMin="-13" xMax="553" yMax="758">
      <contour>
        <pt x="234" y="500" on="1"/>
        <pt x="262" y="512" on="0"/>
        <pt x="321" y="525" on="0"/>
        <pt x="345" y="525" on="1"/>
        <pt x="390" y="525" on="0"/>
        <pt x="467" y="485" on="0"/>
        <pt x="522" y="416" on="0"/>
        <pt x="553" y="323" on="0"/>
        <pt x="553" y="271" on="1"/>
        <pt x="553" y="210" on="0"/>
        <pt x="515" y="106" on="0"/>
        <pt x="446" y="30" on="0"/>
        <pt x="348" y="-13" on="0"/>
        <pt x="287" y="-13" on="1"/>
        <pt x="232" y="-13" on="0"/>
        <pt x="131" y="12" on="0"/>
        <pt x="77" y="41" on="1"/>
        <pt x="77" y="758" on="1"/>
        <pt x="198" y="758" on="1"/>
        <pt x="198" y="90" on="1"/>
        <pt x="222" y="83" on="0"/>
        <pt x="266" y="78" on="0"/>
        <pt x="287" y="78" on="1"/>
        <pt x="318" y="78" on="0"/>
        <pt x="369" y="107" on="0"/>
        <pt x="405" y="158" on="0"/>
        <pt x="424" y="229" on="0"/>
        <pt x="424" y="271" on="1"/>
        <pt x="424" y="305" on="0"/>
        <pt x="410" y="366" on="0"/>
        <pt x="383" y="411" on="0"/>
        <pt x="342" y="436" on="0"/>
        <pt x="314" y="435" on="1"/>
        <pt x="285" y="433" on="0"/>
        <pt x="249" y="472" on="0"/>
      </contour>
    </TTGlyph>
    <TTGlyph name="backslash" xMin="1" yMin="-62" xMax="353" yMax="727">
      <contour>
        <pt x="353" y="-62" on="1"/>
        <pt x="244" y="-62" on="1"/>
        <pt x="1" y="727" on="1"/>
        <pt x="110" y="727" on="1"/>
      </contour>
    </TTGlyph>
    <TTGlyph name="bar" xMin="115" yMin="-293" xMax="224" yMax="811">
      <contour>
        <pt x="224" y="-293" on="1"/>
        <pt x="115" y="-293" on="1"/>
        <pt x="115" y="811" on="1"/>
        <pt x="224" y="811" on="1"/>
      </contour>
    </TTGlyph>
    <TTGlyph name="braceleft" xMin="70" yMin="-176" xMax="403" yMax="767">
      <contour>
        <pt x="167" y="189" on="1"/>
        <pt x="165" y="224" on="0"/>
        <pt x="108" y="265" on="0"/>
        <pt x="70" y="272" on="1"/>
        <pt x="70" y="338" on="1"/>
        <pt x="108" y="345" on="0"/>
        <pt x="166" y="386" on="0"/>
        <pt x="169" y="421" on="1"/>
        <pt x="173" y="483" on="0"/>
        <pt x="196" y="584" on="0"/>
        <pt x="238" y="667" on="0"/>
        <pt x="301" y="736" on="0"/>
        <pt x="347" y="767" on="1"/>
        <pt x="403" y="708" on="1"/>
        <pt x="370" y="679" on="0"/>
        <pt x="324" y="623" on="0"/>
        <pt x="294" y="559" on="0"/>
        <pt x="278" y="485" on="0"/>
        <pt x="275" y="439" on="1"/>
        <pt x="272" y="397" on="0"/>
        <pt x="232" y="335" on="0"/>
        <pt x="200" y="314" on="1"/>
        <pt x="176" y="303" on="1"/>
        <pt x="200" y="292" on="1"/>
        <pt x="226" y="275" on="0"/>
        <pt x="261" y="229" on="0"/>
        <pt x="268" y="200" on="1"/>
        <pt x="271" y="188" on="0"/>
        <pt x="276" y="162" on="0"/>
        <pt x="277" y="148" on="1"/>
        <pt x="281" y="103" on="0"/>
        <pt x="297" y="29" on="0"/>
        <pt x="326" y="-33" on="0"/>
        <pt x="371" y="-89" on="0"/>
        <pt x="403" y="-116" on="1"/>
        <pt x="347" y="-176" on="1"/>
        <pt x="299" y="-144" on="0"/>
        <pt x="234" y="-72" on="0"/>
        <pt x="193" y="15" on="0"/>
        <pt x="171" y="122" on="0"/>
      </contour>
    </TTGlyph>
    <TTGlyph name="braceright" xMin="78" yMin="-176" xMax="411" yMax="767">
      <contour>
        <pt x="314" y="189" on="1"/>
        <pt x="310" y="122" on="0"/>
        <pt x="289" y="15" on="0"/>
        <pt x="247" y="-72" on="0"/>
        <pt x="182" y="-144" on="0"/>
        <pt x="134" y="-176" on="1"/>
        <pt x="78" y="-116" on="1"/>
        <pt x="110" y="-89" on="0"/>
        <pt x="155" y="-33" on="0"/>
        <pt x="185" y="29" on="0"/>
        <pt x="201" y="103" on="0"/>
        <pt x="204" y="148" on="1"/>
        <pt x="209" y="196" on="0"/>
        <pt x="242" y="266" on="0"/>
        <pt x="281" y="292" on="1"/>
        <pt x="306" y="303" on="1"/>
        <pt x="280" y="314" on="1"/>
        <pt x="248" y="335" on="0"/>
        <pt x="209" y="397" on="0"/>
        <pt x="206" y="439" on="1"/>
        <pt x="203" y="485" on="0"/>
        <pt x="187" y="559" on="0"/>
        <pt x="158" y="623" on="0"/>
        <pt x="112" y="679" on="0"/>
        <pt x="78" y="708" on="1"/>
        <pt x="134" y="767" on="1"/>
        <pt x="180" y="736" on="0"/>
        <pt x="243" y="667" on="0"/>
        <pt x="285" y="584" on="0"/>
        <pt x="307" y="483" on="0"/>
        <pt x="312" y="421" on="1"/>
        <pt x="315" y="386" on="0"/>
        <pt x="373" y="345" on="0"/>
        <pt x="411" y="338" on="1"/>
        <pt x="411" y="272" on="1"/>
        <pt x="373" y="265" on="0"/>
        <pt x="317" y="224" on="0"/>
      </contour>
    </TTGlyph>
    <TTGlyph name="bracketleft" xMin="131" yMin="-199" xMax="417" yMax="771">
      <contour>
        <pt x="131" y="-199" on="1"/>
        <pt x="131" y="771" on="1"/>
        <pt x="416" y="771" on="1"/>
        <pt x="416" y="679" on="1"/>
        <pt x="245" y="679" on="1"/>
        <pt x="245" y="-107" on="1"/>
        <pt x="417" y="-107" on="1"/>
        <pt x="417" y="-130" on="0"/>
        <pt x="416" y="-176" on="0"/>
        <pt x="416" y="-199" on="1"/>
      </contour>
    </TTGlyph>
    <TTGlyph name="bracketright" xMin="45" yMin="-199" xMax="331" yMax="771">
      <contour>
        <pt x="331" y="771" on="1"/>
        <pt x="331" y="-199" on="1"/>
        <pt x="45" y="-199" on="1"/>
        <pt x="45" y="-107" on="1"/>
        <pt x="216" y="-107" on="1"/>
        <pt x="216" y="679" on="1"/>
        <pt x="45" y="679" on="1"/>
        <pt x="45" y="771" on="1"/>
      </contour>
    </TTGlyph>
    <TTGlyph name="brokenbar" xMin="77" yMin="-293" xMax="185" yMax="811">
      <contour>
        <pt x="185" y="-293" on="1"/>
        <pt x="77" y="-293" on="1"/>
        <pt x="77" y="141" on="1"/>
        <pt x="185" y="141" on="1"/>
      </contour>
      <contour>
        <pt x="185" y="387" on="1"/>
        <pt x="77" y="387" on="1"/>
        <pt x="77" y="811" on="1"/>
        <pt x="185" y="811" on="1"/>
      </contour>
    </TTGlyph>
    <TTGlyph name="bullet" xMin="171" yMin="229" xMax="345" yMax="403">
      <contour>
        <pt x="171" y="315" on="1"/>
        <pt x="171" y="353" on="0"/>
        <pt x="219" y="403" on="0"/>
        <pt x="257" y="403" on="1"/>
        <pt x="295" y="403" on="0"/>
        <pt x="345" y="353" on="0"/>
        <pt x="345" y="315" on="1"/>
        <pt x="345" y="277" on="0"/>
        <pt x="295" y="229" on="0"/>
        <pt x="257" y="229" on="1"/>
        <pt x="219" y="229" on="0"/>
        <pt x="171" y="277" on="0"/>
      </contour>
    </TTGlyph>
    <TTGlyph name="c" xMin="33" yMin="-12" xMax="426" yMax="529">
      <contour>
        <pt x="291" y="-12" on="1"/>
        <pt x="240" y="-12" on="0"/>
        <pt x="146" y="21" on="0"/>
        <pt x="75" y="88" on="0"/>
        <pt x="33" y="190" on="0"/>
        <pt x="33" y="259" on="1"/>
        <pt x="33" y="326" on="0"/>
        <pt x="76" y="427" on="0"/>
        <pt x="147" y="495" on="0"/>
        <pt x="240" y="529" on="0"/>
        <pt x="291" y="529" on="1"/>
        <pt x="318" y="529" on="0"/>
        <pt x="382" y="518" on="0"/>
        <pt x="412" y="507" on="1"/>
        <pt x="383" y="425" on="1"/>
        <pt x="357" y="432" on="0"/>
        <pt x="310" y="438" on="0"/>
        <pt x="291" y="438" on="1"/>
        <pt x="236" y="438" on="0"/>
        <pt x="163" y="346" on="0"/>
        <pt x="163" y="259" on="1"/>
        <pt x="163" y="171" on="0"/>
        <pt x="235" y="79" on="0"/>
        <pt x="291" y="79" on="1"/>
        <pt x="331" y="79" on="0"/>
        <pt x="395" y="105" on="1"/>
        <pt x="426" y="23" on="1"/>
        <pt x="386" y="4" on="0"/>
        <pt x="317" y="-12" on="0"/>
      </contour>
    </TTGlyph>
    <TTGlyph name="ccedilla" xMin="26" yMin="-210" xMax="419" yMax="529">
      <contour>
        <pt x="285" y="-12" on="1"/>
        <pt x="284" y="-12" on="1"/>
        <pt x="275" y="-46" on="1"/>
        <pt x="305" y="-51" on="0"/>
        <pt x="356" y="-91" on="0"/>
        <pt x="356" y="-123" on="1"/>
        <pt x="356" y="-146" on="0"/>
        <pt x="334" y="-178" on="0"/>
        <pt x="299" y="-200" on="0"/>
        <pt x="256" y="-210" on="0"/>
        <pt x="234" y="-210" on="1"/>
        <pt x="217" y="-210" on="0"/>
        <pt x="178" y="-202" on="0"/>
        <pt x="154" y="-191" on="1"/>
        <pt x="170" y="-140" on="1"/>
        <pt x="189" y="-148" on="0"/>
        <pt x="219" y="-153" on="0"/>
        <pt x="234" y="-153" on="1"/>
        <pt x="251" y="-153" on="0"/>
        <pt x="279" y="-140" on="0"/>
        <pt x="279" y="-126" on="1"/>
        <pt x="279" y="-109" on="0"/>
        <pt x="240" y="-92" on="0"/>
        <pt x="205" y="-88" on="1"/>
        <pt x="226" y="-6" on="1"/>
        <pt x="184" y="1" on="0"/>
        <pt x="111" y="41" on="0"/>
        <pt x="57" y="107" on="0"/>
        <pt x="26" y="199" on="0"/>
        <pt x="26" y="259" on="1"/>
        <pt x="26" y="326" on="0"/>
        <pt x="69" y="427" on="0"/>
        <pt x="140" y="495" on="0"/>
        <pt x="233" y="529" on="0"/>
        <pt x="284" y="529" on="1"/>
        <pt x="311" y="529" on="0"/>
        <pt x="376" y="518" on="0"/>
        <pt x="406" y="507" on="1"/>
        <pt x="375" y="424" on="1"/>
        <pt x="350" y="432" on="0"/>
        <pt x="303" y="438" on="0"/>
        <pt x="284" y="438" on="1"/>
        <pt x="229" y="438" on="0"/>
        <pt x="156" y="346" on="0"/>
        <pt x="156" y="259" on="1"/>
        <pt x="156" y="171" on="0"/>
        <pt x="228" y="79" on="0"/>
        <pt x="284" y="79" on="1"/>
        <pt x="325" y="79" on="0"/>
        <pt x="389" y="105" on="1"/>
        <pt x="419" y="23" on="1"/>
        <pt x="380" y="5" on="0"/>
        <pt x="311" y="-11" on="0"/>
      </contour>
    </TTGlyph>
    <TTGlyph name="cedilla" xMin="154" yMin="-210" xMax="356" yMax="3">
      <contour>
        <pt x="227" y="-3" on="1"/>
        <pt x="287" y="3" on="1"/>
        <pt x="275" y="-46" on="1"/>
        <pt x="305" y="-51" on="0"/>
        <pt x="356" y="-91" on="0"/>
        <pt x="356" y="-123" on="1"/>
        <pt x="356" y="-146" on="0"/>
        <pt x="334" y="-178" on="0"/>
        <pt x="299" y="-200" on="0"/>
        <pt x="256" y="-210" on="0"/>
        <pt x="234" y="-210" on="1"/>
        <pt x="217" y="-210" on="0"/>
        <pt x="178" y="-202" on="0"/>
        <pt x="154" y="-191" on="1"/>
        <pt x="170" y="-140" on="1"/>
        <pt x="189" y="-148" on="0"/>
        <pt x="219" y="-153" on="0"/>
        <pt x="234" y="-153" on="1"/>
        <pt x="251" y="-153" on="0"/>
        <pt x="279" y="-140" on="0"/>
        <pt x="279" y="-126" on="1"/>
        <pt x="279" y="-109" on="0"/>
        <pt x="240" y="-92" on="0"/>
        <pt x="205" y="-88" on="1"/>
      </contour>
    </TTGlyph>
    <TTGlyph name="cent" xMin="33" yMin="-14" xMax="426" yMax="716">
      <contour>
        <pt x="426" y="119" on="1"/>
        <pt x="397" y="105" on="0"/>
        <pt x="345" y="89" on="0"/>
        <pt x="322" y="86" on="1"/>
        <pt x="322" y="-14" on="1"/>
        <pt x="234" y="-14" on="1"/>
        <pt x="234" y="89" on="1"/>
        <pt x="192" y="96" on="0"/>
        <pt x="118" y="137" on="0"/>
        <pt x="64" y="203" on="0"/>
        <pt x="33" y="295" on="0"/>
        <pt x="33" y="355" on="1"/>
        <pt x="33" y="412" on="0"/>
        <pt x="65" y="502" on="0"/>
        <pt x="119" y="568" on="0"/>
        <pt x="192" y="610" on="0"/>
        <pt x="234" y="618" on="1"/>
        <pt x="234" y="716" on="1"/>
        <pt x="322" y="716" on="1"/>
        <pt x="322" y="623" on="1"/>
        <pt x="344" y="621" on="0"/>
        <pt x="390" y="611" on="0"/>
        <pt x="412" y="603" on="1"/>
        <pt x="382" y="520" on="1"/>
        <pt x="356" y="527" on="0"/>
        <pt x="310" y="533" on="0"/>
        <pt x="291" y="533" on="1"/>
        <pt x="236" y="533" on="0"/>
        <pt x="163" y="442" on="0"/>
        <pt x="163" y="355" on="1"/>
        <pt x="163" y="267" on="0"/>
        <pt x="235" y="175" on="0"/>
        <pt x="291" y="175" on="1"/>
        <pt x="312" y="175" on="0"/>
        <pt x="362" y="187" on="0"/>
        <pt x="395" y="201" on="1"/>
      </contour>
    </TTGlyph>
    <TTGlyph name="circumflex" xMin="61" yMin="587" xMax="362" yMax="743">
      <contour>
        <pt x="168" y="743" on="1"/>
        <pt x="253" y="743" on="1"/>
        <pt x="362" y="601" on="1"/>
        <pt x="292" y="587" on="1"/>
        <pt x="210" y="664" on="1"/>
        <pt x="129" y="587" on="1"/>
        <pt x="61" y="601" on="1"/>
      </contour>
    </TTGlyph>
    <TTGlyph name="colon" xMin="78" yMin="-15" xMax="226" yMax="501">
      <contour>
        <pt x="78" y="426" on="1"/>
        <pt x="78" y="457" on="0"/>
        <pt x="120" y="501" on="0"/>
        <pt x="152" y="501" on="1"/>
        <pt x="184" y="501" on="0"/>
        <pt x="226" y="457" on="0"/>
        <pt x="226" y="426" on="1"/>
        <pt x="226" y="394" on="0"/>
        <pt x="184" y="352" on="0"/>
        <pt x="152" y="352" on="1"/>
        <pt x="120" y="352" on="0"/>
        <pt x="78" y="394" on="0"/>
      </contour>
      <contour>
        <pt x="78" y="58" on="1"/>
        <pt x="78" y="90" on="0"/>
        <pt x="120" y="134" on="0"/>
        <pt x="152" y="134" on="1"/>
        <pt x="184" y="134" on="0"/>
        <pt x="226" y="90" on="0"/>
        <pt x="226" y="58" on="1"/>
        <pt x="226" y="27" on="0"/>
        <pt x="184" y="-15" on="0"/>
        <pt x="152" y="-15" on="1"/>
        <pt x="120" y="-15" on="0"/>
        <pt x="78" y="27" on="0"/>
      </contour>
    </TTGlyph>
    <TTGlyph name="comma" xMin="56" yMin="-124" xMax="165" yMax="98">
      <contour>
        <pt x="56" y="-117" on="1"/>
        <pt x="56" y="98" on="1"/>
        <pt x="165" y="98" on="1"/>
        <pt x="165" y="20" on="1"/>
        <pt x="165" y="-9" on="0"/>
        <pt x="154" y="-64" on="0"/>
        <pt x="128" y="-104" on="0"/>
        <pt x="86" y="-124" on="0"/>
      </contour>
    </TTGlyph>
    <TTGlyph name="copyright" xMin="26" yMin="25" xMax="685" yMax="686">
      <contour>
        <pt x="377" y="176" on="1"/>
        <pt x="342" y="176" on="0"/>
        <pt x="280" y="200" on="0"/>
        <pt x="234" y="246" on="0"/>
        <pt x="208" y="313" on="0"/>
        <pt x="208" y="357" on="1"/>
        <pt x="208" y="400" on="0"/>
        <pt x="235" y="468" on="0"/>
        <pt x="281" y="513" on="0"/>
        <pt x="342" y="537" on="0"/>
        <pt x="377" y="537" on="1"/>
        <pt x="416" y="537" on="0"/>
        <pt x="460" y="523" on="1"/>
        <pt x="440" y="465" on="1"/>
        <pt x="422" y="471" on="0"/>
        <pt x="392" y="476" on="0"/>
        <pt x="377" y="476" on="1"/>
        <pt x="339" y="476" on="0"/>
        <pt x="288" y="411" on="0"/>
        <pt x="288" y="357" on="1"/>
        <pt x="288" y="301" on="0"/>
        <pt x="339" y="236" on="0"/>
        <pt x="377" y="236" on="1"/>
        <pt x="391" y="236" on="0"/>
        <pt x="427" y="243" on="0"/>
        <pt x="450" y="254" on="1"/>
        <pt x="469" y="199" on="1"/>
        <pt x="441" y="185" on="0"/>
        <pt x="393" y="176" on="0"/>
      </contour>
      <contour>
        <pt x="357" y="617" on="1"/>
        <pt x="304" y="617" on="0"/>
        <pt x="213" y="579" on="0"/>
        <pt x="147" y="510" on="0"/>
        <pt x="110" y="414" on="0"/>
        <pt x="110" y="354" on="1"/>
        <pt x="110" y="295" on="0"/>
        <pt x="147" y="200" on="0"/>
        <pt x="213" y="132" on="0"/>
        <pt x="304" y="95" on="0"/>
        <pt x="357" y="95" on="1"/>
        <pt x="409" y="95" on="0"/>
        <pt x="498" y="131" on="0"/>
        <pt x="564" y="200" on="0"/>
        <pt x="601" y="297" on="0"/>
        <pt x="601" y="357" on="1"/>
        <pt x="601" y="415" on="0"/>
        <pt x="564" y="511" on="0"/>
        <pt x="498" y="580" on="0"/>
        <pt x="409" y="617" on="0"/>
      </contour>
      <contour>
        <pt x="357" y="686" on="1"/>
        <pt x="430" y="686" on="0"/>
        <pt x="551" y="636" on="0"/>
        <pt x="637" y="547" on="0"/>
        <pt x="685" y="427" on="0"/>
        <pt x="685" y="357" on="1"/>
        <pt x="685" y="289" on="0"/>
        <pt x="636" y="168" on="0"/>
        <pt x="549" y="78" on="0"/>
        <pt x="429" y="25" on="0"/>
        <pt x="357" y="25" on="1"/>
        <pt x="283" y="25" on="0"/>
        <pt x="161" y="75" on="0"/>
        <pt x="74" y="164" on="0"/>
        <pt x="26" y="286" on="0"/>
        <pt x="26" y="357" on="1"/>
        <pt x="26" y="424" on="0"/>
        <pt x="75" y="543" on="0"/>
        <pt x="163" y="633" on="0"/>
        <pt x="284" y="686" on="0"/>
      </contour>
    </TTGlyph>
    <TTGlyph name="currency" xMin="24" yMin="102" xMax="491" yMax="578">
      <contour>
        <pt x="255" y="476" on="1"/>
        <pt x="232" y="476" on="0"/>
        <pt x="192" y="455" on="0"/>
        <pt x="163" y="419" on="0"/>
        <pt x="146" y="369" on="0"/>
        <pt x="146" y="340" on="1"/>
        <pt x="146" y="308" on="0"/>
        <pt x="165" y="258" on="0"/>
        <pt x="196" y="223" on="0"/>
        <pt x="235" y="205" on="0"/>
        <pt x="255" y="205" on="1"/>
        <pt x="276" y="205" on="0"/>
        <pt x="315" y="225" on="0"/>
        <pt x="346" y="261" on="0"/>
        <pt x="364" y="311" on="0"/>
        <pt x="364" y="342" on="1"/>
        <pt x="364" y="368" on="0"/>
        <pt x="348" y="416" on="0"/>
        <pt x="320" y="454" on="0"/>
        <pt x="279" y="476" on="0"/>
      </contour>
      <contour>
        <pt x="256" y="544" on="1"/>
        <pt x="291" y="544" on="0"/>
        <pt x="349" y="523" on="0"/>
        <pt x="368" y="507" on="1"/>
        <pt x="445" y="578" on="1"/>
        <pt x="491" y="529" on="1"/>
        <pt x="412" y="457" on="1"/>
        <pt x="425" y="439" on="0"/>
        <pt x="444" y="379" on="0"/>
        <pt x="444" y="343" on="1"/>
        <pt x="444" y="305" on="0"/>
        <pt x="425" y="242" on="0"/>
        <pt x="412" y="224" on="1"/>
        <pt x="490" y="151" on="1"/>
        <pt x="443" y="103" on="1"/>
        <pt x="368" y="175" on="1"/>
        <pt x="348" y="158" on="0"/>
        <pt x="289" y="137" on="0"/>
        <pt x="255" y="137" on="1"/>
        <pt x="223" y="137" on="0"/>
        <pt x="166" y="157" on="0"/>
        <pt x="146" y="173" on="1"/>
        <pt x="73" y="102" on="1"/>
        <pt x="24" y="152" on="1"/>
        <pt x="100" y="223" on="1"/>
        <pt x="86" y="241" on="0"/>
        <pt x="65" y="302" on="0"/>
        <pt x="65" y="340" on="1"/>
        <pt x="65" y="378" on="0"/>
        <pt x="87" y="438" on="0"/>
        <pt x="101" y="457" on="1"/>
        <pt x="24" y="528" on="1"/>
        <pt x="72" y="578" on="1"/>
        <pt x="146" y="507" on="1"/>
        <pt x="166" y="524" on="0"/>
        <pt x="223" y="544" on="0"/>
      </contour>
    </TTGlyph>
    <TTGlyph name="d" xMin="39" yMin="-12" xMax="544" yMax="758">
      <contour>
        <pt x="39" y="262" on="1"/>
        <pt x="39" y="317" on="0"/>
        <pt x="76" y="414" on="0"/>
        <pt x="139" y="484" on="0"/>
        <pt x="220" y="525" on="0"/>
        <pt x="264" y="525" on="1"/>
        <pt x="288" y="525" on="0"/>
        <pt x="337" y="518" on="0"/>
        <pt x="372" y="507" on="1"/>
        <pt x="358" y="476" on="0"/>
        <pt x="319" y="438" on="0"/>
        <pt x="290" y="437" on="1"/>
        <pt x="232" y="435" on="0"/>
        <pt x="169" y="344" on="0"/>
        <pt x="169" y="262" on="1"/>
        <pt x="169" y="224" on="0"/>
        <pt x="184" y="157" on="0"/>
        <pt x="214" y="107" on="0"/>
        <pt x="258" y="79" on="0"/>
        <pt x="286" y="79" on="1"/>
        <pt x="346" y="79" on="0"/>
        <pt x="408" y="151" on="1"/>
        <pt x="408" y="758" on="1"/>
        <pt x="529" y="758" on="1"/>
        <pt x="529" y="182" on="1"/>
        <pt x="529" y="131" on="0"/>
        <pt x="534" y="45" on="0"/>
        <pt x="544" y="0" on="1"/>
        <pt x="452" y="0" on="1"/>
        <pt x="440" y="8" on="0"/>
        <pt x="424" y="33" on="0"/>
        <pt x="417" y="50" on="1"/>
        <pt x="414" y="70" on="1"/>
        <pt x="400" y="50" on="1"/>
        <pt x="364" y="15" on="0"/>
        <pt x="295" y="-12" on="0"/>
        <pt x="265" y="-12" on="1"/>
        <pt x="211" y="-12" on="0"/>
        <pt x="127" y="30" on="0"/>
        <pt x="69" y="103" on="0"/>
        <pt x="39" y="203" on="0"/>
      </contour>
    </TTGlyph>
    <TTGlyph name="dagger" xMin="8" yMin="-30" xMax="540" yMax="697">
      <contour>
        <pt x="85" y="397" on="1"/>
        <pt x="8" y="397" on="1"/>
        <pt x="8" y="486" on="1"/>
        <pt x="188" y="486" on="1"/>
        <pt x="182" y="469" on="0"/>
        <pt x="165" y="437" on="0"/>
        <pt x="140" y="412" on="0"/>
        <pt x="107" y="397" on="0"/>
      </contour>
      <contour>
        <pt x="540" y="397" on="1"/>
        <pt x="480" y="397" on="1"/>
        <pt x="453" y="397" on="0"/>
        <pt x="414" y="410" on="0"/>
        <pt x="386" y="434" on="0"/>
        <pt x="367" y="466" on="0"/>
        <pt x="360" y="486" on="1"/>
        <pt x="540" y="486" on="1"/>
      </contour>
      <contour>
        <pt x="325" y="697" on="1"/>
        <pt x="325" y="-30" on="1"/>
        <pt x="223" y="-30" on="1"/>
        <pt x="223" y="697" on="1"/>
      </contour>
    </TTGlyph>
    <TTGlyph name="daggerdbl" xMin="32" yMin="-30" xMax="564" yMax="697">
      <contour>
        <pt x="109" y="417" on="1"/>
        <pt x="32" y="417" on="1"/>
        <pt x="32" y="506" on="1"/>
        <pt x="212" y="506" on="1"/>
        <pt x="206" y="489" on="0"/>
        <pt x="189" y="457" on="0"/>
        <pt x="164" y="432" on="0"/>
        <pt x="131" y="417" on="0"/>
      </contour>
      <contour>
        <pt x="564" y="417" on="1"/>
        <pt x="504" y="417" on="1"/>
        <pt x="477" y="417" on="0"/>
        <pt x="438" y="430" on="0"/>
        <pt x="410" y="454" on="0"/>
        <pt x="391" y="486" on="0"/>
        <pt x="384" y="506" on="1"/>
        <pt x="564" y="506" on="1"/>
      </contour>
      <contour>
        <pt x="109" y="161" on="1"/>
        <pt x="32" y="161" on="1"/>
        <pt x="32" y="250" on="1"/>
        <pt x="212" y="250" on="1"/>
        <pt x="206" y="233" on="0"/>
        <pt x="189" y="201" on="0"/>
        <pt x="164" y="176" on="0"/>
        <pt x="131" y="161" on="0"/>
      </contour>
      <contour>
        <pt x="564" y="161" on="1"/>
        <pt x="487" y="161" on="1"/>
        <pt x="465" y="161" on="0"/>
        <pt x="432" y="176" on="0"/>
        <pt x="407" y="201" on="0"/>
        <pt x="390" y="233" on="0"/>
        <pt x="384" y="250" on="1"/>
        <pt x="564" y="250" on="1"/>
      </contour>
      <contour>
        <pt x="349" y="697" on="1"/>
        <pt x="349" y="-30" on="1"/>
        <pt x="247" y="-30" on="1"/>
        <pt x="247" y="697" on="1"/>
      </contour>
    </TTGlyph>
    <TTGlyph name="degree" xMin="23" yMin="477" xMax="327" yMax="769">
      <contour>
        <pt x="23" y="623" on="1"/>
        <pt x="23" y="654" on="0"/>
        <pt x="47" y="707" on="0"/>
        <pt x="89" y="746" on="0"/>
        <pt x="144" y="769" on="0"/>
        <pt x="175" y="769" on="1"/>
        <pt x="203" y="769" on="0"/>
        <pt x="258" y="749" on="0"/>
        <pt x="301" y="712" on="0"/>
        <pt x="327" y="657" on="0"/>
        <pt x="327" y="623" on="1"/>
        <pt x="327" y="590" on="0"/>
        <pt x="301" y="536" on="0"/>
        <pt x="258" y="498" on="0"/>
        <pt x="203" y="477" on="0"/>
        <pt x="175" y="477" on="1"/>
        <pt x="145" y="477" on="0"/>
        <pt x="90" y="498" on="0"/>
        <pt x="48" y="536" on="0"/>
        <pt x="23" y="590" on="0"/>
      </contour>
      <contour>
        <pt x="175" y="706" on="1"/>
        <pt x="141" y="706" on="0"/>
        <pt x="99" y="658" on="0"/>
        <pt x="99" y="623" on="1"/>
        <pt x="99" y="587" on="0"/>
        <pt x="141" y="541" on="0"/>
        <pt x="175" y="541" on="1"/>
        <pt x="210" y="541" on="0"/>
        <pt x="252" y="589" on="0"/>
        <pt x="252" y="623" on="1"/>
        <pt x="252" y="662" on="0"/>
        <pt x="206" y="706" on="0"/>
      </contour>
    </TTGlyph>
    <TTGlyph name="dieresis" xMin="81" yMin="611" xMax="394" yMax="729">
      <contour>
        <pt x="276" y="670" on="1"/>
        <pt x="276" y="695" on="0"/>
        <pt x="311" y="729" on="0"/>
        <pt x="335" y="729" on="1"/>
        <pt x="359" y="729" on="0"/>
        <pt x="394" y="695" on="0"/>
        <pt x="394" y="670" on="1"/>
        <pt x="394" y="645" on="0"/>
        <pt x="359" y="611" on="0"/>
        <pt x="335" y="611" on="1"/>
        <pt x="311" y="611" on="0"/>
        <pt x="276" y="645" on="0"/>
      </contour>
      <contour>
        <pt x="81" y="670" on="1"/>
        <pt x="81" y="695" on="0"/>
        <pt x="116" y="729" on="0"/>
        <pt x="140" y="729" on="1"/>
        <pt x="165" y="729" on="0"/>
        <pt x="200" y="695" on="0"/>
        <pt x="200" y="670" on="1"/>
        <pt x="200" y="645" on="0"/>
        <pt x="165" y="611" on="0"/>
        <pt x="140" y="611" on="1"/>
        <pt x="116" y="611" on="0"/>
        <pt x="81" y="645" on="0"/>
      </contour>
    </TTGlyph>
    <TTGlyph name="divide" xMin="47" yMin="55" xMax="515" yMax="552">
      <contour>
        <pt x="223" y="112" on="1"/>
        <pt x="223" y="138" on="0"/>
        <pt x="255" y="171" on="0"/>
        <pt x="280" y="171" on="1"/>
        <pt x="306" y="171" on="0"/>
        <pt x="339" y="138" on="0"/>
        <pt x="339" y="112" on="1"/>
        <pt x="339" y="87" on="0"/>
        <pt x="306" y="55" on="0"/>
        <pt x="280" y="55" on="1"/>
        <pt x="255" y="55" on="0"/>
        <pt x="223" y="87" on="0"/>
      </contour>
      <contour>
        <pt x="224" y="494" on="1"/>
        <pt x="224" y="520" on="0"/>
        <pt x="255" y="552" on="0"/>
        <pt x="280" y="552" on="1"/>
        <pt x="306" y="552" on="0"/>
        <pt x="338" y="520" on="0"/>
        <pt x="338" y="494" on="1"/>
        <pt x="338" y="469" on="0"/>
        <pt x="306" y="438" on="0"/>
        <pt x="280" y="438" on="1"/>
        <pt x="255" y="438" on="0"/>
        <pt x="224" y="469" on="0"/>
      </contour>
      <contour>
        <pt x="47" y="263" on="1"/>
        <pt x="47" y="347" on="1"/>
        <pt x="515" y="347" on="1"/>
        <pt x="515" y="263" on="1"/>
      </contour>
    </TTGlyph>
    <TTGlyph name="dollar" xMin="33" yMin="-107" xMax="494" yMax="810">
      <contour>
        <pt x="262" y="622" on="1"/>
        <pt x="215" y="622" on="0"/>
        <pt x="160" y="574" on="0"/>
        <pt x="160" y="540" on="1"/>
        <pt x="160" y="505" on="0"/>
        <pt x="209" y="456" on="0"/>
        <pt x="284" y="412" on="0"/>
        <pt x="370" y="369" on="0"/>
        <pt x="445" y="312" on="0"/>
        <pt x="494" y="235" on="0"/>
        <pt x="494" y="179" on="1"/>
        <pt x="494" y="106" on="0"/>
        <pt x="396" y="7" on="0"/>
        <pt x="310" y="-7" on="1"/>
        <pt x="310" y="-107" on="1"/>
        <pt x="216" y="-107" on="1"/>
        <pt x="216" y="-11" on="1"/>
        <pt x="177" y="-8" on="0"/>
        <pt x="84" y="15" on="0"/>
        <pt x="33" y="38" on="1"/>
        <pt x="67" y="122" on="1"/>
        <pt x="118" y="99" on="0"/>
        <pt x="207" y="80" on="0"/>
        <pt x="245" y="80" on="1"/>
        <pt x="274" y="80" on="0"/>
        <pt x="322" y="96" on="0"/>
        <pt x="356" y="124" on="0"/>
        <pt x="375" y="161" on="0"/>
        <pt x="375" y="181" on="1"/>
        <pt x="375" y="218" on="0"/>
        <pt x="326" y="270" on="0"/>
        <pt x="252" y="313" on="0"/>
        <pt x="166" y="355" on="0"/>
        <pt x="92" y="409" on="0"/>
        <pt x="43" y="482" on="0"/>
        <pt x="43" y="535" on="1"/>
        <pt x="43" y="572" on="0"/>
        <pt x="69" y="633" on="0"/>
        <pt x="116" y="678" on="0"/>
        <pt x="179" y="705" on="0"/>
        <pt x="216" y="710" on="1"/>
        <pt x="216" y="810" on="1"/>
        <pt x="310" y="810" on="1"/>
        <pt x="310" y="709" on="1"/>
        <pt x="339" y="706" on="0"/>
        <pt x="400" y="693" on="0"/>
        <pt x="441" y="680" on="1"/>
        <pt x="407" y="599" on="1"/>
        <pt x="363" y="612" on="0"/>
        <pt x="294" y="622" on="0"/>
      </contour>
    </TTGlyph>
    <TTGlyph name="e" xMin="49" yMin="-12" xMax="511" yMax="529">
      <contour>
        <pt x="288" y="317" on="1"/>
        <pt x="391" y="317" on="1"/>
        <pt x="394" y="342" on="0"/>
        <pt x="383" y="387" on="0"/>
        <pt x="358" y="421" on="0"/>
        <pt x="320" y="441" on="0"/>
        <pt x="297" y="441" on="1"/>
        <pt x="272" y="441" on="0"/>
        <pt x="226" y="420" on="0"/>
        <pt x="191" y="377" on="0"/>
        <pt x="170" y="312" on="0"/>
        <pt x="170" y="268" on="1"/>
        <pt x="170" y="180" on="0"/>
        <pt x="252" y="79" on="0"/>
        <pt x="318" y="79" on="1"/>
        <pt x="353" y="79" on="0"/>
        <pt x="418" y="96" on="0"/>
        <pt x="461" y="116" on="1"/>
        <pt x="493" y="33" on="1"/>
        <pt x="441" y="8" on="0"/>
        <pt x="348" y="-12" on="0"/>
        <pt x="305" y="-12" on="1"/>
        <pt x="241" y="-12" on="0"/>
        <pt x="145" y="34" on="0"/>
        <pt x="81" y="111" on="0"/>
        <pt x="49" y="211" on="0"/>
        <pt x="49" y="265" on="1"/>
        <pt x="49" y="326" on="0"/>
        <pt x="87" y="424" on="0"/>
        <pt x="156" y="493" on="0"/>
        <pt x="249" y="529" on="0"/>
        <pt x="305" y="529" on="1"/>
        <pt x="359" y="529" on="0"/>
        <pt x="446" y="484" on="0"/>
        <pt x="499" y="406" on="0"/>
        <pt x="511" y="301" on="0"/>
        <pt x="491" y="241" on="1"/>
        <pt x="207" y="241" on="1"/>
        <pt x="218" y="273" on="0"/>
        <pt x="259" y="317" on="0"/>
      </contour>
    </TTGlyph>
    <TTGlyph name="eacute" xMin="42" yMin="-12" xMax="504" yMax="740">
      <contour>
        <pt x="443" y="740" on="1"/>
        <pt x="361" y="640" on="1"/>
        <pt x="348" y="624" on="0"/>
        <pt x="314" y="605" on="0"/>
        <pt x="279" y="598" on="0"/>
        <pt x="245" y="599" on="0"/>
        <pt x="233" y="602" on="1"/>
        <pt x="320" y="740" on="1"/>
      </contour>
      <contour>
        <pt x="281" y="317" on="1"/>
        <pt x="384" y="317" on="1"/>
        <pt x="387" y="342" on="0"/>
        <pt x="376" y="387" on="0"/>
        <pt x="350" y="421" on="0"/>
        <pt x="313" y="441" on="0"/>
        <pt x="289" y="441" on="1"/>
        <pt x="264" y="441" on="0"/>
        <pt x="219" y="420" on="0"/>
        <pt x="184" y="377" on="0"/>
        <pt x="163" y="312" on="0"/>
        <pt x="163" y="268" on="1"/>
        <pt x="163" y="180" on="0"/>
        <pt x="245" y="79" on="0"/>
        <pt x="310" y="79" on="1"/>
        <pt x="345" y="79" on="0"/>
        <pt x="410" y="96" on="0"/>
        <pt x="454" y="116" on="1"/>
        <pt x="485" y="33" on="1"/>
        <pt x="433" y="8" on="0"/>
        <pt x="340" y="-12" on="0"/>
        <pt x="297" y="-12" on="1"/>
        <pt x="234" y="-12" on="0"/>
        <pt x="138" y="34" on="0"/>
        <pt x="74" y="111" on="0"/>
        <pt x="42" y="211" on="0"/>
        <pt x="42" y="265" on="1"/>
        <pt x="42" y="326" on="0"/>
        <pt x="80" y="424" on="0"/>
        <pt x="148" y="493" on="0"/>
        <pt x="242" y="529" on="0"/>
        <pt x="297" y="529" on="1"/>
        <pt x="351" y="529" on="0"/>
        <pt x="438" y="484" on="0"/>
        <pt x="491" y="406" on="0"/>
        <pt x="504" y="301" on="0"/>
        <pt x="484" y="241" on="1"/>
        <pt x="200" y="241" on="1"/>
        <pt x="211" y="273" on="0"/>
        <pt x="251" y="317" on="0"/>
      </contour>
    </TTGlyph>
    <TTGlyph name="ecircumflex" xMin="41" yMin="-12" xMax="503" yMax="743">
      <contour>
        <pt x="249" y="743" on="1"/>
        <pt x="334" y="743" on="1"/>
        <pt x="443" y="601" on="1"/>
        <pt x="373" y="587" on="1"/>
        <pt x="291" y="664" on="1"/>
        <pt x="210" y="587" on="1"/>
        <pt x="142" y="601" on="1"/>
      </contour>
      <contour>
        <pt x="280" y="317" on="1"/>
        <pt x="383" y="317" on="1"/>
        <pt x="386" y="342" on="0"/>
        <pt x="375" y="387" on="0"/>
        <pt x="350" y="421" on="0"/>
        <pt x="312" y="441" on="0"/>
        <pt x="289" y="441" on="1"/>
        <pt x="264" y="441" on="0"/>
        <pt x="218" y="420" on="0"/>
        <pt x="183" y="377" on="0"/>
        <pt x="162" y="312" on="0"/>
        <pt x="162" y="268" on="1"/>
        <pt x="162" y="180" on="0"/>
        <pt x="244" y="79" on="0"/>
        <pt x="310" y="79" on="1"/>
        <pt x="345" y="79" on="0"/>
        <pt x="410" y="96" on="0"/>
        <pt x="453" y="116" on="1"/>
        <pt x="484" y="33" on="1"/>
        <pt x="432" y="8" on="0"/>
        <pt x="339" y="-12" on="0"/>
        <pt x="297" y="-12" on="1"/>
        <pt x="233" y="-12" on="0"/>
        <pt x="137" y="34" on="0"/>
        <pt x="73" y="111" on="0"/>
        <pt x="41" y="211" on="0"/>
        <pt x="41" y="265" on="1"/>
        <pt x="41" y="326" on="0"/>
        <pt x="79" y="424" on="0"/>
        <pt x="148" y="493" on="0"/>
        <pt x="241" y="529" on="0"/>
        <pt x="297" y="529" on="1"/>
        <pt x="351" y="529" on="0"/>
        <pt x="437" y="484" on="0"/>
        <pt x="490" y="406" on="0"/>
        <pt x="503" y="301" on="0"/>
        <pt x="483" y="241" on="1"/>
        <pt x="199" y="241" on="1"/>
        <pt x="210" y="273" on="0"/>
        <pt x="251" y="317" on="0"/>
      </contour>
    </TTGlyph>
    <TTGlyph name="edieresis" xMin="42" yMin="-12" xMax="504" yMax="729">
      <contour>
        <pt x="323" y="670" on="1"/>
        <pt x="323" y="695" on="0"/>
        <pt x="358" y="729" on="0"/>
        <pt x="382" y="729" on="1"/>
        <pt x="407" y="729" on="0"/>
        <pt x="442" y="695" on="0"/>
        <pt x="442" y="670" on="1"/>
        <pt x="442" y="645" on="0"/>
        <pt x="407" y="611" on="0"/>
        <pt x="382" y="611" on="1"/>
        <pt x="358" y="611" on="0"/>
        <pt x="323" y="645" on="0"/>
      </contour>
      <contour>
        <pt x="129" y="670" on="1"/>
        <pt x="129" y="695" on="0"/>
        <pt x="164" y="729" on="0"/>
        <pt x="187" y="729" on="1"/>
        <pt x="212" y="729" on="0"/>
        <pt x="247" y="695" on="0"/>
        <pt x="247" y="670" on="1"/>
        <pt x="247" y="645" on="0"/>
        <pt x="212" y="611" on="0"/>
        <pt x="187" y="611" on="1"/>
        <pt x="164" y="611" on="0"/>
        <pt x="129" y="645" on="0"/>
      </contour>
      <contour>
        <pt x="281" y="317" on="1"/>
        <pt x="385" y="317" on="1"/>
        <pt x="388" y="342" on="0"/>
        <pt x="376" y="387" on="0"/>
        <pt x="351" y="421" on="0"/>
        <pt x="313" y="441" on="0"/>
        <pt x="290" y="441" on="1"/>
        <pt x="265" y="441" on="0"/>
        <pt x="219" y="420" on="0"/>
        <pt x="184" y="377" on="0"/>
        <pt x="163" y="312" on="0"/>
        <pt x="163" y="268" on="1"/>
        <pt x="163" y="180" on="0"/>
        <pt x="245" y="79" on="0"/>
        <pt x="311" y="79" on="1"/>
        <pt x="346" y="79" on="0"/>
        <pt x="411" y="96" on="0"/>
        <pt x="454" y="116" on="1"/>
        <pt x="486" y="33" on="1"/>
        <pt x="434" y="8" on="0"/>
        <pt x="341" y="-12" on="0"/>
        <pt x="298" y="-12" on="1"/>
        <pt x="235" y="-12" on="0"/>
        <pt x="139" y="34" on="0"/>
        <pt x="74" y="111" on="0"/>
        <pt x="42" y="211" on="0"/>
        <pt x="42" y="265" on="1"/>
        <pt x="42" y="326" on="0"/>
        <pt x="81" y="424" on="0"/>
        <pt x="149" y="493" on="0"/>
        <pt x="243" y="529" on="0"/>
        <pt x="298" y="529" on="1"/>
        <pt x="352" y="529" on="0"/>
        <pt x="439" y="484" on="0"/>
        <pt x="492" y="406" on="0"/>
        <pt x="504" y="301" on="0"/>
        <pt x="484" y="241" on="1"/>
        <pt x="201" y="241" on="1"/>
        <pt x="212" y="273" on="0"/>
        <pt x="252" y="317" on="0"/>
      </contour>
    </TTGlyph>
    <TTGlyph name="egrave" xMin="42" yMin="-12" xMax="504" yMax="740">
      <contour>
        <pt x="209" y="642" on="1"/>
        <pt x="142" y="740" on="1"/>
        <pt x="261" y="740" on="1"/>
        <pt x="334" y="602" on="1"/>
        <pt x="321" y="599" on="0"/>
        <pt x="289" y="599" on="0"/>
        <pt x="254" y="608" on="0"/>
        <pt x="222" y="626" on="0"/>
      </contour>
      <contour>
        <pt x="281" y="317" on="1"/>
        <pt x="385" y="317" on="1"/>
        <pt x="388" y="342" on="0"/>
        <pt x="376" y="387" on="0"/>
        <pt x="351" y="421" on="0"/>
        <pt x="313" y="441" on="0"/>
        <pt x="290" y="441" on="1"/>
        <pt x="265" y="441" on="0"/>
        <pt x="219" y="420" on="0"/>
        <pt x="184" y="377" on="0"/>
        <pt x="163" y="312" on="0"/>
        <pt x="163" y="268" on="1"/>
        <pt x="163" y="180" on="0"/>
        <pt x="245" y="79" on="0"/>
        <pt x="311" y="79" on="1"/>
        <pt x="346" y="79" on="0"/>
        <pt x="411" y="96" on="0"/>
        <pt x="454" y="116" on="1"/>
        <pt x="486" y="33" on="1"/>
        <pt x="434" y="8" on="0"/>
        <pt x="341" y="-12" on="0"/>
        <pt x="298" y="-12" on="1"/>
        <pt x="235" y="-12" on="0"/>
        <pt x="139" y="34" on="0"/>
        <pt x="74" y="111" on="0"/>
        <pt x="42" y="211" on="0"/>
        <pt x="42" y="265" on="1"/>
        <pt x="42" y="326" on="0"/>
        <pt x="81" y="424" on="0"/>
        <pt x="149" y="493" on="0"/>
        <pt x="243" y="529" on="0"/>
        <pt x="298" y="529" on="1"/>
        <pt x="352" y="529" on="0"/>
        <pt x="439" y="484" on="0"/>
        <pt x="492" y="406" on="0"/>
        <pt x="504" y="301" on="0"/>
        <pt x="484" y="241" on="1"/>
        <pt x="201" y="241" on="1"/>
        <pt x="212" y="273" on="0"/>
        <pt x="252" y="317" on="0"/>
      </contour>
    </TTGlyph>
    <TTGlyph name="eight" xMin="81" yMin="-13" xMax="578" yMax="713">
      <contour>
        <pt x="328" y="77" on="1"/>
        <pt x="388" y="77" on="0"/>
        <pt x="457" y="135" on="0"/>
        <pt x="457" y="178" on="1"/>
        <pt x="457" y="218" on="0"/>
        <pt x="405" y="270" on="0"/>
        <pt x="327" y="309" on="0"/>
        <pt x="235" y="345" on="0"/>
        <pt x="157" y="397" on="0"/>
        <pt x="105" y="472" on="0"/>
        <pt x="105" y="531" on="1"/>
        <pt x="105" y="574" on="0"/>
        <pt x="142" y="642" on="0"/>
        <pt x="204" y="688" on="0"/>
        <pt x="286" y="713" on="0"/>
        <pt x="331" y="713" on="1"/>
        <pt x="378" y="713" on="0"/>
        <pt x="460" y="688" on="0"/>
        <pt x="520" y="642" on="0"/>
        <pt x="555" y="574" on="0"/>
        <pt x="555" y="531" on="1"/>
        <pt x="555" y="492" on="0"/>
        <pt x="505" y="397" on="0"/>
        <pt x="462" y="361" on="1"/>
        <pt x="511" y="335" on="0"/>
        <pt x="578" y="248" on="0"/>
        <pt x="578" y="178" on="1"/>
        <pt x="578" y="132" on="0"/>
        <pt x="539" y="61" on="0"/>
        <pt x="471" y="12" on="0"/>
        <pt x="380" y="-13" on="0"/>
        <pt x="328" y="-13" on="1"/>
        <pt x="275" y="-13" on="0"/>
        <pt x="184" y="12" on="0"/>
        <pt x="118" y="61" on="0"/>
        <pt x="81" y="132" on="0"/>
        <pt x="81" y="178" on="1"/>
        <pt x="81" y="212" on="0"/>
        <pt x="116" y="291" on="0"/>
        <pt x="166" y="343" on="1"/>
        <pt x="177" y="331" on="0"/>
        <pt x="197" y="304" on="0"/>
        <pt x="210" y="274" on="0"/>
        <pt x="213" y="243" on="0"/>
        <pt x="208" y="228" on="1"/>
        <pt x="198" y="202" on="0"/>
        <pt x="198" y="183" on="1"/>
        <pt x="198" y="132" on="0"/>
        <pt x="271" y="77" on="0"/>
      </contour>
      <contour>
        <pt x="226" y="531" on="1"/>
        <pt x="226" y="506" on="0"/>
        <pt x="252" y="470" on="0"/>
        <pt x="294" y="441" on="0"/>
        <pt x="350" y="415" on="0"/>
        <pt x="380" y="402" on="1"/>
        <pt x="407" y="432" on="0"/>
        <pt x="437" y="490" on="0"/>
        <pt x="437" y="520" on="1"/>
        <pt x="437" y="547" on="0"/>
        <pt x="419" y="585" on="0"/>
        <pt x="389" y="610" on="0"/>
        <pt x="351" y="622" on="0"/>
        <pt x="331" y="622" on="1"/>
        <pt x="289" y="622" on="0"/>
        <pt x="226" y="576" on="0"/>
      </contour>
    </TTGlyph>
    <TTGlyph name="ellipsis" xMin="77" yMin="-15" xMax="766" yMax="134">
      <contour>
        <pt x="618" y="58" on="1"/>
        <pt x="618" y="90" on="0"/>
        <pt x="660" y="134" on="0"/>
        <pt x="692" y="134" on="1"/>
        <pt x="724" y="134" on="0"/>
        <pt x="766" y="90" on="0"/>
        <pt x="766" y="58" on="1"/>
        <pt x="766" y="27" on="0"/>
        <pt x="724" y="-15" on="0"/>
        <pt x="692" y="-15" on="1"/>
        <pt x="660" y="-15" on="0"/>
        <pt x="618" y="27" on="0"/>
      </contour>
      <contour>
        <pt x="348" y="58" on="1"/>
        <pt x="348" y="90" on="0"/>
        <pt x="390" y="134" on="0"/>
        <pt x="422" y="134" on="1"/>
        <pt x="454" y="134" on="0"/>
        <pt x="496" y="90" on="0"/>
        <pt x="496" y="58" on="1"/>
        <pt x="496" y="27" on="0"/>
        <pt x="454" y="-15" on="0"/>
        <pt x="422" y="-15" on="1"/>
        <pt x="390" y="-15" on="0"/>
        <pt x="348" y="27" on="0"/>
      </contour>
      <contour>
        <pt x="77" y="58" on="1"/>
        <pt x="77" y="90" on="0"/>
        <pt x="119" y="134" on="0"/>
        <pt x="151" y="134" on="1"/>
        <pt x="183" y="134" on="0"/>
        <pt x="225" y="90" on="0"/>
        <pt x="225" y="58" on="1"/>
        <pt x="225" y="27" on="0"/>
        <pt x="183" y="-15" on="0"/>
        <pt x="151" y="-15" on="1"/>
        <pt x="119" y="-15" on="0"/>
        <pt x="77" y="27" on="0"/>
      </contour>
    </TTGlyph>
    <TTGlyph name="emdash" xMin="45" yMin="232" xMax="784" yMax="318">
      <contour>
        <pt x="784" y="232" on="1"/>
        <pt x="45" y="232" on="1"/>
        <pt x="45" y="318" on="1"/>
        <pt x="784" y="318" on="1"/>
      </contour>
    </TTGlyph>
    <TTGlyph name="endash" xMin="45" yMin="232" xMax="469" yMax="318">
      <contour>
        <pt x="469" y="232" on="1"/>
        <pt x="45" y="232" on="1"/>
        <pt x="45" y="318" on="1"/>
        <pt x="469" y="318" on="1"/>
      </contour>
    </TTGlyph>
    <TTGlyph name="equal" xMin="67" yMin="167" xMax="539" yMax="474">
      <contour>
        <pt x="67" y="388" on="1"/>
        <pt x="67" y="474" on="1"/>
        <pt x="539" y="474" on="1"/>
        <pt x="539" y="388" on="1"/>
      </contour>
      <contour>
        <pt x="67" y="167" on="1"/>
        <pt x="67" y="253" on="1"/>
        <pt x="539" y="253" on="1"/>
        <pt x="539" y="167" on="1"/>
      </contour>
    </TTGlyph>
    <TTGlyph name="eth" xMin="24" yMin="-12" xMax="539" yMax="761">
      <contour>
        <pt x="409" y="259" on="1"/>
        <pt x="409" y="340" on="0"/>
        <pt x="340" y="438" on="0"/>
        <pt x="282" y="438" on="1"/>
        <pt x="223" y="438" on="0"/>
        <pt x="153" y="340" on="0"/>
        <pt x="153" y="259" on="1"/>
        <pt x="153" y="177" on="0"/>
        <pt x="223" y="79" on="0"/>
        <pt x="282" y="79" on="1"/>
        <pt x="340" y="79" on="0"/>
        <pt x="409" y="177" on="0"/>
      </contour>
      <contour>
        <pt x="539" y="259" on="1"/>
        <pt x="539" y="198" on="0"/>
        <pt x="498" y="98" on="0"/>
        <pt x="428" y="27" on="0"/>
        <pt x="335" y="-12" on="0"/>
        <pt x="282" y="-12" on="1"/>
        <pt x="228" y="-12" on="0"/>
        <pt x="134" y="25" on="0"/>
        <pt x="64" y="95" on="0"/>
        <pt x="24" y="195" on="0"/>
        <pt x="24" y="259" on="1"/>
        <pt x="24" y="319" on="0"/>
        <pt x="65" y="419" on="0"/>
        <pt x="135" y="490" on="0"/>
        <pt x="229" y="529" on="0"/>
        <pt x="282" y="529" on="1"/>
        <pt x="322" y="529" on="0"/>
        <pt x="369" y="505" on="1"/>
        <pt x="346" y="534" on="0"/>
        <pt x="293" y="587" on="0"/>
        <pt x="269" y="605" on="1"/>
        <pt x="150" y="549" on="1"/>
        <pt x="127" y="601" on="1"/>
        <pt x="213" y="643" on="1"/>
        <pt x="170" y="670" on="0"/>
        <pt x="124" y="692" on="1"/>
        <pt x="163" y="761" on="1"/>
        <pt x="199" y="745" on="0"/>
        <pt x="270" y="708" on="0"/>
        <pt x="302" y="685" on="1"/>
        <pt x="413" y="738" on="1"/>
        <pt x="438" y="685" on="1"/>
        <pt x="355" y="645" on="1"/>
        <pt x="388" y="617" on="0"/>
        <pt x="454" y="537" on="0"/>
        <pt x="506" y="439" on="0"/>
        <pt x="539" y="323" on="0"/>
      </contour>
    </TTGlyph>
    <TTGlyph name="exclam" xMin="41" yMin="-14" xMax="189" yMax="727">
      <contour>
        <pt x="41" y="59" on="1"/>
        <pt x="41" y="91" on="0"/>
        <pt x="83" y="134" on="0"/>
        <pt x="115" y="134" on="1"/>
        <pt x="147" y="134" on="0"/>
        <pt x="189" y="91" on="0"/>
        <pt x="189" y="59" on="1"/>
        <pt x="189" y="27" on="0"/>
        <pt x="147" y="-14" on="0"/>
        <pt x="115" y="-14" on="1"/>
        <pt x="83" y="-14" on="0"/>
        <pt x="41" y="27" on="0"/>
      </contour>
      <contour>
        <pt x="56" y="727" on="1"/>
        <pt x="178" y="727" on="1"/>
        <pt x="160" y="213" on="1"/>
        <pt x="72" y="213" on="1"/>
      </contour>
    </TTGlyph>
    <TTGlyph name="exclamdown" xMin="41" yMin="-210" xMax="189" yMax="531">
      <contour>
        <pt x="41" y="458" on="1"/>
        <pt x="41" y="490" on="0"/>
        <pt x="83" y="531" on="0"/>
        <pt x="115" y="531" on="1"/>
        <pt x="147" y="531" on="0"/>
        <pt x="189" y="490" on="0"/>
        <pt x="189" y="458" on="1"/>
        <pt x="189" y="426" on="0"/>
        <pt x="147" y="383" on="0"/>
        <pt x="115" y="383" on="1"/>
        <pt x="83" y="383" on="0"/>
        <pt x="41" y="426" on="0"/>
      </contour>
      <contour>
        <pt x="178" y="-210" on="1"/>
        <pt x="56" y="-210" on="1"/>
        <pt x="72" y="304" on="1"/>
        <pt x="160" y="304" on="1"/>
      </contour>
    </TTGlyph>
    <TTGlyph name="f" xMin="16" yMin="0" xMax="437" yMax="763">
      <contour>
        <pt x="344" y="517" on="1"/>
        <pt x="394" y="517" on="1"/>
        <pt x="394" y="429" on="1"/>
        <pt x="250" y="429" on="1"/>
        <pt x="255" y="445" on="0"/>
        <pt x="270" y="476" on="0"/>
        <pt x="293" y="501" on="0"/>
        <pt x="324" y="517" on="0"/>
      </contour>
      <contour>
        <pt x="100" y="429" on="1"/>
        <pt x="16" y="429" on="1"/>
        <pt x="16" y="497" on="1"/>
        <pt x="100" y="517" on="1"/>
        <pt x="100" y="545" on="1"/>
        <pt x="100" y="594" on="0"/>
        <pt x="129" y="675" on="0"/>
        <pt x="183" y="732" on="0"/>
        <pt x="260" y="763" on="0"/>
        <pt x="309" y="763" on="1"/>
        <pt x="334" y="763" on="0"/>
        <pt x="399" y="751" on="0"/>
        <pt x="437" y="735" on="1"/>
        <pt x="410" y="656" on="1"/>
        <pt x="380" y="666" on="0"/>
        <pt x="339" y="673" on="0"/>
        <pt x="322" y="673" on="1"/>
        <pt x="275" y="673" on="0"/>
        <pt x="215" y="609" on="0"/>
        <pt x="215" y="549" on="1"/>
        <pt x="215" y="0" on="1"/>
        <pt x="100" y="0" on="1"/>
      </contour>
    </TTGlyph>
    <TTGlyph name="five" xMin="29" yMin="-12" xMax="481" yMax="701">
      <contour>
        <pt x="183" y="603" on="1"/>
        <pt x="180" y="566" on="0"/>
        <pt x="175" y="494" on="0"/>
        <pt x="172" y="457" on="1"/>
        <pt x="168" y="422" on="1"/>
        <pt x="185" y="424" on="0"/>
        <pt x="213" y="428" on="0"/>
        <pt x="226" y="428" on="1"/>
        <pt x="288" y="428" on="0"/>
        <pt x="383" y="393" on="0"/>
        <pt x="448" y="334" on="0"/>
        <pt x="481" y="255" on="0"/>
        <pt x="481" y="211" on="1"/>
        <pt x="481" y="163" on="0"/>
        <pt x="442" y="81" on="0"/>
        <pt x="370" y="22" on="0"/>
        <pt x="271" y="-12" on="0"/>
        <pt x="211" y="-12" on="1"/>
        <pt x="173" y="-12" on="0"/>
        <pt x="78" y="10" on="0"/>
        <pt x="29" y="37" on="1"/>
        <pt x="59" y="118" on="1"/>
        <pt x="107" y="96" on="0"/>
        <pt x="181" y="79" on="0"/>
        <pt x="210" y="79" on="1"/>
        <pt x="246" y="79" on="0"/>
        <pt x="299" y="103" on="0"/>
        <pt x="335" y="142" on="0"/>
        <pt x="352" y="189" on="0"/>
        <pt x="352" y="213" on="1"/>
        <pt x="352" y="275" on="0"/>
        <pt x="265" y="338" on="0"/>
        <pt x="197" y="338" on="1"/>
        <pt x="171" y="338" on="0"/>
        <pt x="103" y="330" on="0"/>
        <pt x="62" y="322" on="1"/>
        <pt x="88" y="701" on="1"/>
        <pt x="451" y="701" on="1"/>
        <pt x="451" y="603" on="1"/>
      </contour>
    </TTGlyph>
    <TTGlyph name="florin" xMin="-4" yMin="-141" xMax="515" yMax="712">
      <contour>
        <pt x="16" y="-141" on="1"/>
        <pt x="-4" y="-64" on="1"/>
        <pt x="20" y="-56" on="0"/>
        <pt x="61" y="-35" on="0"/>
        <pt x="93" y="-3" on="0"/>
        <pt x="114" y="43" on="0"/>
        <pt x="117" y="76" on="1"/>
        <pt x="147" y="378" on="1"/>
        <pt x="69" y="378" on="1"/>
        <pt x="69" y="445" on="1"/>
        <pt x="155" y="466" on="1"/>
        <pt x="158" y="494" on="1"/>
        <pt x="163" y="543" on="0"/>
        <pt x="200" y="624" on="0"/>
        <pt x="260" y="681" on="0"/>
        <pt x="340" y="712" on="0"/>
        <pt x="389" y="712" on="1"/>
        <pt x="414" y="712" on="0"/>
        <pt x="479" y="700" on="0"/>
        <pt x="515" y="683" on="1"/>
        <pt x="479" y="605" on="1"/>
        <pt x="450" y="615" on="0"/>
        <pt x="411" y="622" on="0"/>
        <pt x="394" y="622" on="1"/>
        <pt x="347" y="622" on="0"/>
        <pt x="280" y="558" on="0"/>
        <pt x="274" y="497" on="1"/>
        <pt x="232" y="75" on="1"/>
        <pt x="227" y="25" on="0"/>
        <pt x="191" y="-47" on="0"/>
        <pt x="134" y="-98" on="0"/>
        <pt x="59" y="-131" on="0"/>
      </contour>
      <contour>
        <pt x="399" y="466" on="1"/>
        <pt x="449" y="466" on="1"/>
        <pt x="449" y="378" on="1"/>
        <pt x="297" y="378" on="1"/>
        <pt x="303" y="394" on="0"/>
        <pt x="322" y="425" on="0"/>
        <pt x="347" y="450" on="0"/>
        <pt x="379" y="466" on="0"/>
      </contour>
    </TTGlyph>
    <TTGlyph name="four" xMin="32" yMin="0" xMax="555" yMax="701">
      <contour>
        <pt x="32" y="230" on="1"/>
        <pt x="336" y="701" on="1"/>
        <pt x="474" y="701" on="1"/>
        <pt x="474" y="236" on="1"/>
        <pt x="555" y="236" on="1"/>
        <pt x="555" y="147" on="1"/>
        <pt x="474" y="147" on="1"/>
        <pt x="474" y="0" on="1"/>
        <pt x="358" y="0" on="1"/>
        <pt x="358" y="529" on="1"/>
        <pt x="360" y="559" on="1"/>
        <pt x="345" y="532" on="1"/>
        <pt x="174" y="269" on="1"/>
        <pt x="171" y="264" on="0"/>
        <pt x="165" y="257" on="0"/>
        <pt x="162" y="252" on="1"/>
        <pt x="148" y="235" on="1"/>
        <pt x="153" y="236" on="0"/>
        <pt x="162" y="236" on="0"/>
        <pt x="167" y="237" on="1"/>
        <pt x="224" y="237" on="1"/>
        <pt x="245" y="237" on="0"/>
        <pt x="278" y="219" on="0"/>
        <pt x="302" y="192" on="0"/>
        <pt x="318" y="160" on="0"/>
        <pt x="323" y="147" on="1"/>
        <pt x="32" y="147" on="1"/>
      </contour>
    </TTGlyph>
    <TTGlyph name="g" xMin="46" yMin="-250" xMax="517" yMax="528">
      <contour>
        <pt x="46" y="246" on="1"/>
        <pt x="46" y="306" on="0"/>
        <pt x="84" y="410" on="0"/>
        <pt x="156" y="485" on="0"/>
        <pt x="258" y="528" on="0"/>
        <pt x="321" y="528" on="1"/>
        <pt x="342" y="528" on="0"/>
        <pt x="384" y="525" on="0"/>
        <pt x="431" y="518" on="0"/>
        <pt x="484" y="506" on="0"/>
        <pt x="517" y="497" on="1"/>
        <pt x="517" y="0" on="1"/>
        <pt x="517" y="-64" on="0"/>
        <pt x="478" y="-158" on="0"/>
        <pt x="410" y="-220" on="0"/>
        <pt x="317" y="-250" on="0"/>
        <pt x="262" y="-250" on="1"/>
        <pt x="223" y="-250" on="0"/>
        <pt x="126" y="-234" on="0"/>
        <pt x="71" y="-208" on="1"/>
        <pt x="102" y="-124" on="1"/>
        <pt x="150" y="-145" on="0"/>
        <pt x="222" y="-161" on="0"/>
        <pt x="254" y="-161" on="1"/>
        <pt x="283" y="-161" on="0"/>
        <pt x="336" y="-142" on="0"/>
        <pt x="375" y="-105" on="0"/>
        <pt x="398" y="-49" on="0"/>
        <pt x="398" y="-11" on="1"/>
        <pt x="398" y="428" on="1"/>
        <pt x="377" y="433" on="0"/>
        <pt x="340" y="437" on="0"/>
        <pt x="325" y="437" on="1"/>
        <pt x="254" y="437" on="0"/>
        <pt x="176" y="334" on="0"/>
        <pt x="176" y="246" on="1"/>
        <pt x="176" y="215" on="0"/>
        <pt x="187" y="156" on="0"/>
        <pt x="212" y="110" on="0"/>
        <pt x="252" y="83" on="0"/>
        <pt x="281" y="85" on="1"/>
        <pt x="308" y="87" on="0"/>
        <pt x="345" y="54" on="0"/>
        <pt x="362" y="28" on="1"/>
        <pt x="336" y="12" on="0"/>
        <pt x="279" y="-7" on="0"/>
        <pt x="254" y="-8" on="1"/>
        <pt x="207" y="-10" on="0"/>
        <pt x="131" y="31" on="0"/>
        <pt x="76" y="102" on="0"/>
        <pt x="46" y="195" on="0"/>
      </contour>
    </TTGlyph>
    <TTGlyph name="germandbls" xMin="77" yMin="-12" xMax="557" yMax="763">
      <contour>
        <pt x="249" y="25" on="1"/>
        <pt x="280" y="104" on="1"/>
        <pt x="312" y="90" on="0"/>
        <pt x="363" y="80" on="0"/>
        <pt x="381" y="80" on="1"/>
        <pt x="409" y="80" on="0"/>
        <pt x="447" y="114" on="0"/>
        <pt x="447" y="141" on="1"/>
        <pt x="447" y="164" on="0"/>
        <pt x="421" y="200" on="0"/>
        <pt x="383" y="231" on="0"/>
        <pt x="337" y="264" on="0"/>
        <pt x="299" y="306" on="0"/>
        <pt x="273" y="362" on="0"/>
        <pt x="273" y="401" on="1"/>
        <pt x="273" y="445" on="0"/>
        <pt x="333" y="523" on="0"/>
        <pt x="387" y="544" on="1"/>
        <pt x="390" y="555" on="0"/>
        <pt x="392" y="576" on="0"/>
        <pt x="392" y="588" on="1"/>
        <pt x="392" y="626" on="0"/>
        <pt x="339" y="675" on="0"/>
        <pt x="300" y="675" on="1"/>
        <pt x="279" y="675" on="0"/>
        <pt x="240" y="660" on="0"/>
        <pt x="210" y="630" on="0"/>
        <pt x="192" y="585" on="0"/>
        <pt x="192" y="555" on="1"/>
        <pt x="192" y="0" on="1"/>
        <pt x="163" y="0" on="0"/>
        <pt x="106" y="-1" on="0"/>
        <pt x="77" y="-1" on="1"/>
        <pt x="77" y="544" on="1"/>
        <pt x="77" y="598" on="0"/>
        <pt x="110" y="679" on="0"/>
        <pt x="168" y="735" on="0"/>
        <pt x="246" y="763" on="0"/>
        <pt x="292" y="763" on="1"/>
        <pt x="338" y="763" on="0"/>
        <pt x="412" y="736" on="0"/>
        <pt x="462" y="690" on="0"/>
        <pt x="489" y="625" on="0"/>
        <pt x="489" y="588" on="1"/>
        <pt x="489" y="538" on="0"/>
        <pt x="452" y="479" on="1"/>
        <pt x="418" y="465" on="0"/>
        <pt x="383" y="428" on="0"/>
        <pt x="383" y="401" on="1"/>
        <pt x="383" y="377" on="0"/>
        <pt x="409" y="342" on="0"/>
        <pt x="447" y="311" on="0"/>
        <pt x="493" y="278" on="0"/>
        <pt x="531" y="235" on="0"/>
        <pt x="557" y="178" on="0"/>
        <pt x="557" y="137" on="1"/>
        <pt x="557" y="103" on="0"/>
        <pt x="530" y="48" on="0"/>
        <pt x="485" y="9" on="0"/>
        <pt x="426" y="-12" on="0"/>
        <pt x="394" y="-12" on="1"/>
        <pt x="364" y="-12" on="0"/>
        <pt x="297" y="1" on="0"/>
      </contour>
    </TTGlyph>
    <TTGlyph name="grave" xMin="20" yMin="594" xMax="193" yMax="727">
      <contour>
        <pt x="92" y="631" on="1"/>
        <pt x="20" y="727" on="1"/>
        <pt x="127" y="727" on="1"/>
        <pt x="193" y="602" on="1"/>
        <pt x="163" y="594" on="0"/>
        <pt x="111" y="607" on="0"/>
      </contour>
    </TTGlyph>
    <TTGlyph name="greater" xMin="48" yMin="0" xMax="565" yMax="552">
      <contour>
        <pt x="48" y="112" on="1"/>
        <pt x="142" y="151" on="0"/>
        <pt x="325" y="230" on="0"/>
        <pt x="418" y="270" on="1"/>
        <pt x="444" y="276" on="1"/>
        <pt x="418" y="283" on="1"/>
        <pt x="48" y="441" on="1"/>
        <pt x="48" y="552" on="1"/>
        <pt x="565" y="313" on="1"/>
        <pt x="565" y="239" on="1"/>
        <pt x="48" y="0" on="1"/>
      </contour>
    </TTGlyph>
    <TTGlyph name="guillemotleft" xMin="57" yMin="47" xMax="599" yMax="470">
      <contour>
        <pt x="549" y="47" on="1"/>
        <pt x="322" y="258" on="1"/>
        <pt x="549" y="470" on="1"/>
        <pt x="599" y="420" on="1"/>
        <pt x="467" y="258" on="1"/>
        <pt x="599" y="96" on="1"/>
      </contour>
      <contour>
        <pt x="284" y="47" on="1"/>
        <pt x="57" y="258" on="1"/>
        <pt x="284" y="470" on="1"/>
        <pt x="334" y="420" on="1"/>
        <pt x="202" y="258" on="1"/>
        <pt x="334" y="96" on="1"/>
      </contour>
    </TTGlyph>
    <TTGlyph name="guillemotright" xMin="53" yMin="47" xMax="594" yMax="470">
      <contour>
        <pt x="594" y="258" on="1"/>
        <pt x="368" y="47" on="1"/>
        <pt x="317" y="96" on="1"/>
        <pt x="450" y="258" on="1"/>
        <pt x="317" y="420" on="1"/>
        <pt x="368" y="470" on="1"/>
      </contour>
      <contour>
        <pt x="330" y="258" on="1"/>
        <pt x="103" y="47" on="1"/>
        <pt x="53" y="96" on="1"/>
        <pt x="185" y="258" on="1"/>
        <pt x="53" y="420" on="1"/>
        <pt x="103" y="470" on="1"/>
      </contour>
    </TTGlyph>
    <TTGlyph name="guilsinglleft" xMin="183" yMin="47" xMax="460" yMax="470">
      <contour>
        <pt x="409" y="47" on="1"/>
        <pt x="183" y="258" on="1"/>
        <pt x="409" y="470" on="1"/>
        <pt x="460" y="420" on="1"/>
        <pt x="327" y="258" on="1"/>
        <pt x="460" y="96" on="1"/>
      </contour>
    </TTGlyph>
    <TTGlyph name="guilsinglright" xMin="192" yMin="47" xMax="469" yMax="470">
      <contour>
        <pt x="469" y="258" on="1"/>
        <pt x="243" y="47" on="1"/>
        <pt x="192" y="96" on="1"/>
        <pt x="325" y="258" on="1"/>
        <pt x="192" y="420" on="1"/>
        <pt x="243" y="470" on="1"/>
      </contour>
    </TTGlyph>
    <TTGlyph name="h" xMin="77" yMin="0" xMax="523" yMax="758">
      <contour>
        <pt x="400" y="0" on="1"/>
        <pt x="400" y="370" on="1"/>
        <pt x="400" y="399" on="0"/>
        <pt x="377" y="436" on="0"/>
        <pt x="351" y="436" on="1"/>
        <pt x="337" y="436" on="0"/>
        <pt x="310" y="427" on="0"/>
        <pt x="295" y="429" on="1"/>
        <pt x="276" y="429" on="0"/>
        <pt x="247" y="460" on="0"/>
        <pt x="234" y="481" on="1"/>
        <pt x="285" y="510" on="0"/>
        <pt x="355" y="529" on="0"/>
        <pt x="383" y="529" on="1"/>
        <pt x="410" y="529" on="0"/>
        <pt x="460" y="511" on="0"/>
        <pt x="499" y="472" on="0"/>
        <pt x="523" y="411" on="0"/>
        <pt x="523" y="368" on="1"/>
        <pt x="523" y="0" on="1"/>
      </contour>
      <contour>
        <pt x="198" y="0" on="1"/>
        <pt x="77" y="0" on="1"/>
        <pt x="77" y="758" on="1"/>
        <pt x="198" y="758" on="1"/>
      </contour>
    </TTGlyph>
    <TTGlyph name="hyphen" xMin="45" yMin="262" xMax="347" yMax="347">
      <contour>
        <pt x="347" y="262" on="1"/>
        <pt x="45" y="262" on="1"/>
        <pt x="45" y="347" on="1"/>
        <pt x="347" y="347" on="1"/>
      </contour>
    </TTGlyph>
    <TTGlyph name="i" xMin="62" yMin="0" xMax="209" yMax="742">
      <contour>
        <pt x="62" y="667" on="1"/>
        <pt x="62" y="699" on="0"/>
        <pt x="104" y="742" on="0"/>
        <pt x="135" y="742" on="1"/>
        <pt x="167" y="742" on="0"/>
        <pt x="209" y="699" on="0"/>
        <pt x="209" y="667" on="1"/>
        <pt x="209" y="636" on="0"/>
        <pt x="167" y="593" on="0"/>
        <pt x="135" y="593" on="1"/>
        <pt x="104" y="593" on="0"/>
        <pt x="62" y="636" on="0"/>
      </contour>
      <contour>
        <pt x="197" y="0" on="1"/>
        <pt x="74" y="0" on="1"/>
        <pt x="74" y="517" on="1"/>
        <pt x="197" y="517" on="1"/>
      </contour>
    </TTGlyph>
    <TTGlyph name="iacute" xMin="56" yMin="0" xMax="272" yMax="740">
      <contour>
        <pt x="272" y="740" on="1"/>
        <pt x="189" y="640" on="1"/>
        <pt x="176" y="624" on="0"/>
        <pt x="143" y="605" on="0"/>
        <pt x="107" y="598" on="0"/>
        <pt x="74" y="599" on="0"/>
        <pt x="61" y="602" on="1"/>
        <pt x="149" y="740" on="1"/>
      </contour>
      <contour>
        <pt x="180" y="0" on="1"/>
        <pt x="56" y="0" on="1"/>
        <pt x="56" y="517" on="1"/>
        <pt x="180" y="517" on="1"/>
      </contour>
    </TTGlyph>
    <TTGlyph name="icircumflex" xMin="18" yMin="0" xMax="319" yMax="743">
      <contour>
        <pt x="125" y="743" on="1"/>
        <pt x="210" y="743" on="1"/>
        <pt x="319" y="601" on="1"/>
        <pt x="249" y="587" on="1"/>
        <pt x="167" y="664" on="1"/>
        <pt x="86" y="587" on="1"/>
        <pt x="18" y="601" on="1"/>
      </contour>
      <contour>
        <pt x="229" y="0" on="1"/>
        <pt x="105" y="0" on="1"/>
        <pt x="105" y="517" on="1"/>
        <pt x="229" y="517" on="1"/>
      </contour>
    </TTGlyph>
    <TTGlyph name="idieresis" xMin="19" yMin="0" xMax="332" yMax="729">
      <contour>
        <pt x="213" y="670" on="1"/>
        <pt x="213" y="695" on="0"/>
        <pt x="248" y="729" on="0"/>
        <pt x="272" y="729" on="1"/>
        <pt x="297" y="729" on="0"/>
        <pt x="332" y="695" on="0"/>
        <pt x="332" y="670" on="1"/>
        <pt x="332" y="645" on="0"/>
        <pt x="297" y="611" on="0"/>
        <pt x="272" y="611" on="1"/>
        <pt x="248" y="611" on="0"/>
        <pt x="213" y="645" on="0"/>
      </contour>
      <contour>
        <pt x="19" y="670" on="1"/>
        <pt x="19" y="695" on="0"/>
        <pt x="54" y="729" on="0"/>
        <pt x="78" y="729" on="1"/>
        <pt x="102" y="729" on="0"/>
        <pt x="138" y="695" on="0"/>
        <pt x="138" y="670" on="1"/>
        <pt x="138" y="645" on="0"/>
        <pt x="102" y="611" on="0"/>
        <pt x="78" y="611" on="1"/>
        <pt x="54" y="611" on="0"/>
        <pt x="19" y="645" on="0"/>
      </contour>
      <contour>
        <pt x="238" y="0" on="1"/>
        <pt x="115" y="0" on="1"/>
        <pt x="115" y="517" on="1"/>
        <pt x="238" y="517" on="1"/>
      </contour>
    </TTGlyph>
    <TTGlyph name="igrave" xMin="6" yMin="0" xMax="220" yMax="740">
      <contour>
        <pt x="73" y="642" on="1"/>
        <pt x="6" y="740" on="1"/>
        <pt x="125" y="740" on="1"/>
        <pt x="198" y="602" on="1"/>
        <pt x="185" y="599" on="0"/>
        <pt x="153" y="599" on="0"/>
        <pt x="118" y="608" on="0"/>
        <pt x="86" y="626" on="0"/>
      </contour>
      <contour>
        <pt x="220" y="0" on="1"/>
        <pt x="97" y="0" on="1"/>
        <pt x="97" y="517" on="1"/>
        <pt x="220" y="517" on="1"/>
      </contour>
    </TTGlyph>
    <TTGlyph name="j" xMin="-31" yMin="-249" xMax="226" yMax="743">
      <contour>
        <pt x="212" y="517" on="1"/>
        <pt x="212" y="45" on="1"/>
        <pt x="212" y="0" on="0"/>
        <pt x="195" y="-73" on="0"/>
        <pt x="153" y="-142" on="0"/>
        <pt x="79" y="-210" on="0"/>
        <pt x="22" y="-249" on="1"/>
        <pt x="-31" y="-183" on="1"/>
        <pt x="8" y="-150" on="0"/>
        <pt x="55" y="-98" on="0"/>
        <pt x="81" y="-47" on="0"/>
        <pt x="90" y="9" on="0"/>
        <pt x="90" y="45" on="1"/>
        <pt x="90" y="517" on="1"/>
      </contour>
      <contour>
        <pt x="78" y="667" on="1"/>
        <pt x="78" y="699" on="0"/>
        <pt x="119" y="743" on="0"/>
        <pt x="151" y="743" on="1"/>
        <pt x="183" y="743" on="0"/>
        <pt x="226" y="699" on="0"/>
        <pt x="226" y="667" on="1"/>
        <pt x="226" y="635" on="0"/>
        <pt x="183" y="593" on="0"/>
        <pt x="151" y="593" on="1"/>
        <pt x="119" y="593" on="0"/>
        <pt x="78" y="635" on="0"/>
      </contour>
    </TTGlyph>
    <TTGlyph name="k" xMin="77" yMin="0" xMax="588" yMax="758">
      <contour>
        <pt x="557" y="517" on="1"/>
        <pt x="390" y="337" on="1"/>
        <pt x="588" y="0" on="1"/>
        <pt x="452" y="0" on="1"/>
        <pt x="334" y="227" on="1"/>
        <pt x="318" y="262" on="1"/>
        <pt x="247" y="181" on="1"/>
        <pt x="237" y="225" on="0"/>
        <pt x="253" y="312" on="0"/>
        <pt x="277" y="348" on="1"/>
        <pt x="285" y="361" on="0"/>
        <pt x="303" y="384" on="0"/>
        <pt x="313" y="396" on="1"/>
        <pt x="415" y="517" on="1"/>
      </contour>
      <contour>
        <pt x="198" y="758" on="1"/>
        <pt x="198" y="0" on="1"/>
        <pt x="77" y="0" on="1"/>
        <pt x="77" y="758" on="1"/>
      </contour>
    </TTGlyph>
    <TTGlyph name="l" xMin="79" yMin="0" xMax="200" yMax="758">
      <contour>
        <pt x="200" y="758" on="1"/>
        <pt x="200" y="0" on="1"/>
        <pt x="79" y="0" on="1"/>
        <pt x="79" y="758" on="1"/>
      </contour>
    </TTGlyph>
    <TTGlyph name="less" xMin="37" yMin="0" xMax="554" yMax="552">
      <contour>
        <pt x="184" y="270" on="1"/>
        <pt x="554" y="112" on="1"/>
        <pt x="554" y="0" on="1"/>
        <pt x="37" y="239" on="1"/>
        <pt x="37" y="313" on="1"/>
        <pt x="554" y="552" on="1"/>
        <pt x="554" y="441" on="1"/>
        <pt x="460" y="401" on="0"/>
        <pt x="278" y="321" on="0"/>
        <pt x="184" y="283" on="1"/>
        <pt x="158" y="276" on="1"/>
      </contour>
    </TTGlyph>
    <TTGlyph name="logicalnot" xMin="43" yMin="156" xMax="540" yMax="449">
      <contour>
        <pt x="43" y="449" on="1"/>
        <pt x="540" y="449" on="1"/>
        <pt x="540" y="156" on="1"/>
        <pt x="445" y="156" on="1"/>
        <pt x="445" y="363" on="1"/>
        <pt x="43" y="363" on="1"/>
      </contour>
    </TTGlyph>
    <TTGlyph name="m" xMin="64" yMin="0" xMax="841" yMax="529">
      <contour>
        <pt x="719" y="0" on="1"/>
        <pt x="719" y="370" on="1"/>
        <pt x="719" y="399" on="0"/>
        <pt x="693" y="436" on="0"/>
        <pt x="664" y="436" on="1"/>
        <pt x="649" y="436" on="0"/>
        <pt x="616" y="427" on="0"/>
        <pt x="600" y="429" on="1"/>
        <pt x="580" y="429" on="0"/>
        <pt x="547" y="461" on="0"/>
        <pt x="535" y="482" on="1"/>
        <pt x="589" y="508" on="0"/>
        <pt x="665" y="529" on="0"/>
        <pt x="697" y="529" on="1"/>
        <pt x="724" y="529" on="0"/>
        <pt x="776" y="511" on="0"/>
        <pt x="817" y="472" on="0"/>
        <pt x="841" y="411" on="0"/>
        <pt x="841" y="368" on="1"/>
        <pt x="841" y="0" on="1"/>
      </contour>
      <contour>
        <pt x="399" y="0" on="1"/>
        <pt x="399" y="370" on="1"/>
        <pt x="399" y="399" on="0"/>
        <pt x="377" y="436" on="0"/>
        <pt x="350" y="436" on="1"/>
        <pt x="334" y="436" on="0"/>
        <pt x="305" y="428" on="0"/>
        <pt x="289" y="430" on="1"/>
        <pt x="269" y="430" on="0"/>
        <pt x="239" y="462" on="0"/>
        <pt x="226" y="483" on="1"/>
        <pt x="280" y="509" on="0"/>
        <pt x="352" y="529" on="0"/>
        <pt x="384" y="529" on="1"/>
        <pt x="411" y="529" on="0"/>
        <pt x="461" y="511" on="0"/>
        <pt x="499" y="472" on="0"/>
        <pt x="522" y="411" on="0"/>
        <pt x="522" y="368" on="1"/>
        <pt x="522" y="0" on="1"/>
      </contour>
      <contour>
        <pt x="64" y="517" on="1"/>
        <pt x="163" y="517" on="1"/>
        <pt x="187" y="490" on="0"/>
        <pt x="202" y="437" on="0"/>
        <pt x="202" y="407" on="1"/>
        <pt x="202" y="0" on="1"/>
        <pt x="79" y="0" on="1"/>
        <pt x="79" y="391" on="1"/>
        <pt x="79" y="419" on="0"/>
        <pt x="72" y="482" on="0"/>
      </contour>
    </TTGlyph>
    <TTGlyph name="macron" xMin="112" yMin="607" xMax="410" yMax="683">
      <contour>
        <pt x="410" y="607" on="1"/>
        <pt x="112" y="607" on="1"/>
        <pt x="112" y="683" on="1"/>
        <pt x="410" y="683" on="1"/>
      </contour>
    </TTGlyph>
    <TTGlyph name="mu" xMin="63" yMin="-211" xMax="567" yMax="517">
      <contour>
        <pt x="402" y="76" on="1"/>
        <pt x="392" y="55" on="1"/>
        <pt x="372" y="26" on="0"/>
        <pt x="312" y="-10" on="0"/>
        <pt x="265" y="-10" on="1"/>
        <pt x="244" y="-10" on="0"/>
        <pt x="200" y="4" on="0"/>
        <pt x="184" y="18" on="1"/>
        <pt x="170" y="37" on="1"/>
        <pt x="170" y="30" on="0"/>
        <pt x="171" y="17" on="0"/>
        <pt x="171" y="10" on="1"/>
        <pt x="171" y="-211" on="1"/>
        <pt x="63" y="-211" on="1"/>
        <pt x="63" y="517" on="1"/>
        <pt x="177" y="517" on="1"/>
        <pt x="177" y="210" on="1"/>
        <pt x="177" y="150" on="0"/>
        <pt x="228" y="79" on="0"/>
        <pt x="274" y="79" on="1"/>
        <pt x="297" y="79" on="0"/>
        <pt x="338" y="98" on="0"/>
        <pt x="368" y="130" on="0"/>
        <pt x="386" y="174" on="0"/>
        <pt x="386" y="199" on="1"/>
        <pt x="386" y="517" on="1"/>
        <pt x="501" y="517" on="1"/>
        <pt x="501" y="155" on="1"/>
        <pt x="501" y="113" on="0"/>
        <pt x="525" y="79" on="0"/>
        <pt x="556" y="81" on="1"/>
        <pt x="567" y="4" on="1"/>
        <pt x="550" y="-2" on="0"/>
        <pt x="513" y="-8" on="0"/>
        <pt x="502" y="-8" on="1"/>
        <pt x="474" y="-8" on="0"/>
        <pt x="420" y="21" on="0"/>
        <pt x="407" y="56" on="1"/>
      </contour>
    </TTGlyph>
    <TTGlyph name="multiply" xMin="45" yMin="70" xMax="516" yMax="540">
      <contour>
        <pt x="108" y="70" on="1"/>
        <pt x="45" y="133" on="1"/>
        <pt x="216" y="306" on="1"/>
        <pt x="45" y="477" on="1"/>
        <pt x="109" y="540" on="1"/>
        <pt x="281" y="370" on="1"/>
        <pt x="451" y="540" on="1"/>
        <pt x="514" y="477" on="1"/>
        <pt x="345" y="306" on="1"/>
        <pt x="516" y="133" on="1"/>
        <pt x="453" y="70" on="1"/>
        <pt x="281" y="241" on="1"/>
      </contour>
    </TTGlyph>
    <TTGlyph name="n" xMin="49" yMin="0" xMax="513" yMax="529">
      <contour>
        <pt x="390" y="0" on="1"/>
        <pt x="390" y="370" on="1"/>
        <pt x="390" y="399" on="0"/>
        <pt x="366" y="436" on="0"/>
        <pt x="338" y="436" on="1"/>
        <pt x="322" y="436" on="0"/>
        <pt x="292" y="427" on="0"/>
        <pt x="275" y="429" on="1"/>
        <pt x="255" y="429" on="0"/>
        <pt x="227" y="461" on="0"/>
        <pt x="214" y="480" on="1"/>
        <pt x="265" y="509" on="0"/>
        <pt x="338" y="529" on="0"/>
        <pt x="370" y="529" on="1"/>
        <pt x="397" y="529" on="0"/>
        <pt x="449" y="511" on="0"/>
        <pt x="489" y="472" on="0"/>
        <pt x="513" y="411" on="0"/>
        <pt x="513" y="368" on="1"/>
        <pt x="513" y="0" on="1"/>
      </contour>
      <contour>
        <pt x="49" y="517" on="1"/>
        <pt x="149" y="517" on="1"/>
        <pt x="173" y="490" on="0"/>
        <pt x="188" y="437" on="0"/>
        <pt x="188" y="407" on="1"/>
        <pt x="188" y="0" on="1"/>
        <pt x="65" y="0" on="1"/>
        <pt x="65" y="391" on="1"/>
        <pt x="65" y="449" on="0"/>
      </contour>
    </TTGlyph>
    <TTGlyph name="nine" xMin="62" yMin="-10" xMax="582" yMax="714">
      <contour>
        <pt x="230" y="81" on="1"/>
        <pt x="284" y="81" on="0"/>
        <pt x="367" y="125" on="0"/>
        <pt x="424" y="203" on="0"/>
        <pt x="454" y="309" on="0"/>
        <pt x="454" y="371" on="1"/>
        <pt x="454" y="411" on="0"/>
        <pt x="441" y="500" on="0"/>
        <pt x="408" y="575" on="0"/>
        <pt x="351" y="623" on="0"/>
        <pt x="308" y="623" on="1"/>
        <pt x="283" y="623" on="0"/>
        <pt x="240" y="601" on="0"/>
        <pt x="209" y="562" on="0"/>
        <pt x="191" y="509" on="0"/>
        <pt x="191" y="478" on="1"/>
        <pt x="191" y="415" on="0"/>
        <pt x="244" y="353" on="0"/>
        <pt x="280" y="353" on="1"/>
        <pt x="285" y="353" on="0"/>
        <pt x="303" y="355" on="0"/>
        <pt x="313" y="357" on="1"/>
        <pt x="331" y="360" on="0"/>
        <pt x="361" y="352" on="0"/>
        <pt x="386" y="336" on="0"/>
        <pt x="405" y="314" on="0"/>
        <pt x="412" y="304" on="1"/>
        <pt x="365" y="280" on="0"/>
        <pt x="299" y="263" on="0"/>
        <pt x="271" y="263" on="1"/>
        <pt x="227" y="263" on="0"/>
        <pt x="151" y="291" on="0"/>
        <pt x="95" y="345" on="0"/>
        <pt x="62" y="425" on="0"/>
        <pt x="62" y="478" on="1"/>
        <pt x="62" y="521" on="0"/>
        <pt x="96" y="606" on="0"/>
        <pt x="159" y="673" on="0"/>
        <pt x="249" y="714" on="0"/>
        <pt x="305" y="714" on="1"/>
        <pt x="380" y="714" on="0"/>
        <pt x="486" y="657" on="0"/>
        <pt x="552" y="562" on="0"/>
        <pt x="582" y="439" on="0"/>
        <pt x="582" y="373" on="1"/>
        <pt x="582" y="299" on="0"/>
        <pt x="533" y="161" on="0"/>
        <pt x="442" y="54" on="0"/>
        <pt x="311" y="-10" on="0"/>
        <pt x="230" y="-10" on="1"/>
        <pt x="205" y="-10" on="0"/>
        <pt x="142" y="1" on="0"/>
        <pt x="110" y="14" on="1"/>
        <pt x="138" y="97" on="1"/>
        <pt x="166" y="88" on="0"/>
        <pt x="211" y="81" on="0"/>
      </contour>
    </TTGlyph>
    <TTGlyph name="ntilde" xMin="56" yMin="0" xMax="519" yMax="738">
      <contour>
        <pt x="207" y="618" on="1"/>
        <pt x="140" y="624" on="1"/>
        <pt x="142" y="679" on="0"/>
        <pt x="198" y="738" on="0"/>
        <pt x="235" y="738" on="1"/>
        <pt x="257" y="738" on="0"/>
        <pt x="289" y="721" on="0"/>
        <pt x="316" y="701" on="0"/>
        <pt x="340" y="684" on="0"/>
        <pt x="353" y="684" on="1"/>
        <pt x="366" y="684" on="0"/>
        <pt x="382" y="711" on="0"/>
        <pt x="384" y="734" on="1"/>
        <pt x="449" y="728" on="1"/>
        <pt x="448" y="697" on="0"/>
        <pt x="430" y="653" on="0"/>
        <pt x="405" y="626" on="0"/>
        <pt x="374" y="614" on="0"/>
        <pt x="359" y="614" on="1"/>
        <pt x="335" y="614" on="0"/>
        <pt x="302" y="631" on="0"/>
        <pt x="276" y="651" on="0"/>
        <pt x="255" y="668" on="0"/>
        <pt x="242" y="668" on="1"/>
        <pt x="231" y="668" on="0"/>
        <pt x="209" y="646" on="0"/>
      </contour>
      <contour>
        <pt x="396" y="0" on="1"/>
        <pt x="396" y="370" on="1"/>
        <pt x="396" y="399" on="0"/>
        <pt x="372" y="436" on="0"/>
        <pt x="344" y="436" on="1"/>
        <pt x="328" y="436" on="0"/>
        <pt x="298" y="427" on="0"/>
        <pt x="281" y="429" on="1"/>
        <pt x="261" y="429" on="0"/>
        <pt x="233" y="461" on="0"/>
        <pt x="220" y="480" on="1"/>
        <pt x="271" y="509" on="0"/>
        <pt x="344" y="529" on="0"/>
        <pt x="376" y="529" on="1"/>
        <pt x="403" y="529" on="0"/>
        <pt x="455" y="511" on="0"/>
        <pt x="495" y="472" on="0"/>
        <pt x="519" y="411" on="0"/>
        <pt x="519" y="368" on="1"/>
        <pt x="519" y="0" on="1"/>
      </contour>
      <contour>
        <pt x="56" y="517" on="1"/>
        <pt x="155" y="517" on="1"/>
        <pt x="179" y="490" on="0"/>
        <pt x="195" y="437" on="0"/>
        <pt x="195" y="407" on="1"/>
        <pt x="195" y="0" on="1"/>
        <pt x="71" y="0" on="1"/>
        <pt x="71" y="391" on="1"/>
        <pt x="71" y="419" on="0"/>
        <pt x="64" y="482" on="0"/>
      </contour>
    </TTGlyph>
    <TTGlyph name="numbersign" xMin="71" yMin="0" xMax="772" yMax="702">
      <contour>
        <pt x="459" y="0" on="1"/>
        <pt x="465" y="34" on="0"/>
        <pt x="478" y="101" on="0"/>
        <pt x="485" y="135" on="1"/>
        <pt x="492" y="159" on="1"/>
        <pt x="313" y="158" on="1"/>
        <pt x="319" y="174" on="0"/>
        <pt x="336" y="203" on="0"/>
        <pt x="363" y="225" on="0"/>
        <pt x="402" y="237" on="0"/>
        <pt x="430" y="237" on="1"/>
        <pt x="502" y="237" on="1"/>
        <pt x="541" y="439" on="1"/>
        <pt x="550" y="468" on="1"/>
        <pt x="339" y="467" on="1"/>
        <pt x="250" y="0" on="1"/>
        <pt x="152" y="0" on="1"/>
        <pt x="159" y="34" on="0"/>
        <pt x="171" y="103" on="0"/>
        <pt x="179" y="137" on="1"/>
        <pt x="186" y="159" on="1"/>
        <pt x="71" y="158" on="1"/>
        <pt x="71" y="236" on="1"/>
        <pt x="196" y="236" on="1"/>
        <pt x="236" y="442" on="1"/>
        <pt x="243" y="468" on="1"/>
        <pt x="130" y="467" on="1"/>
        <pt x="130" y="546" on="1"/>
        <pt x="256" y="546" on="1"/>
        <pt x="285" y="702" on="1"/>
        <pt x="383" y="702" on="1"/>
        <pt x="353" y="546" on="1"/>
        <pt x="562" y="546" on="1"/>
        <pt x="592" y="702" on="1"/>
        <pt x="690" y="702" on="1"/>
        <pt x="660" y="546" on="1"/>
        <pt x="772" y="546" on="1"/>
        <pt x="772" y="467" on="1"/>
        <pt x="645" y="467" on="1"/>
        <pt x="601" y="237" on="1"/>
        <pt x="712" y="237" on="1"/>
        <pt x="712" y="158" on="1"/>
        <pt x="588" y="158" on="1"/>
        <pt x="557" y="0" on="1"/>
      </contour>
    </TTGlyph>
    <TTGlyph name="o" xMin="36" yMin="-12" xMax="552" yMax="529">
      <contour>
        <pt x="166" y="259" on="1"/>
        <pt x="166" y="219" on="0"/>
        <pt x="183" y="153" on="0"/>
        <pt x="216" y="105" on="0"/>
        <pt x="264" y="79" on="0"/>
        <pt x="294" y="79" on="1"/>
        <pt x="326" y="79" on="0"/>
        <pt x="374" y="107" on="0"/>
        <pt x="406" y="156" on="0"/>
        <pt x="422" y="222" on="0"/>
        <pt x="422" y="259" on="1"/>
        <pt x="422" y="340" on="0"/>
        <pt x="352" y="438" on="0"/>
        <pt x="294" y="438" on="1"/>
        <pt x="236" y="438" on="0"/>
        <pt x="166" y="340" on="0"/>
      </contour>
      <contour>
        <pt x="36" y="259" on="1"/>
        <pt x="36" y="329" on="0"/>
        <pt x="84" y="431" on="0"/>
        <pt x="159" y="497" on="0"/>
        <pt x="250" y="529" on="0"/>
        <pt x="294" y="529" on="1"/>
        <pt x="353" y="529" on="0"/>
        <pt x="448" y="488" on="0"/>
        <pt x="516" y="416" on="0"/>
        <pt x="552" y="317" on="0"/>
        <pt x="552" y="259" on="1"/>
        <pt x="552" y="194" on="0"/>
        <pt x="508" y="94" on="0"/>
        <pt x="436" y="24" on="0"/>
        <pt x="343" y="-12" on="0"/>
        <pt x="294" y="-12" on="1"/>
        <pt x="242" y="-12" on="0"/>
        <pt x="149" y="24" on="0"/>
        <pt x="78" y="93" on="0"/>
        <pt x="36" y="194" on="0"/>
      </contour>
    </TTGlyph>
    <TTGlyph name="oacute" xMin="23" yMin="-12" xMax="539" yMax="740">
      <contour>
        <pt x="435" y="740" on="1"/>
        <pt x="352" y="640" on="1"/>
        <pt x="339" y="624" on="0"/>
        <pt x="306" y="605" on="0"/>
        <pt x="270" y="598" on="0"/>
        <pt x="237" y="599" on="0"/>
        <pt x="224" y="602" on="1"/>
        <pt x="312" y="740" on="1"/>
      </contour>
      <contour>
        <pt x="409" y="259" on="1"/>
        <pt x="409" y="340" on="0"/>
        <pt x="339" y="438" on="0"/>
        <pt x="281" y="438" on="1"/>
        <pt x="223" y="438" on="0"/>
        <pt x="153" y="340" on="0"/>
        <pt x="153" y="259" on="1"/>
        <pt x="153" y="177" on="0"/>
        <pt x="222" y="79" on="0"/>
        <pt x="281" y="79" on="1"/>
        <pt x="339" y="79" on="0"/>
        <pt x="409" y="177" on="0"/>
      </contour>
      <contour>
        <pt x="539" y="259" on="1"/>
        <pt x="539" y="198" on="0"/>
        <pt x="498" y="98" on="0"/>
        <pt x="428" y="27" on="0"/>
        <pt x="334" y="-12" on="0"/>
        <pt x="281" y="-12" on="1"/>
        <pt x="227" y="-12" on="0"/>
        <pt x="133" y="25" on="0"/>
        <pt x="63" y="95" on="0"/>
        <pt x="23" y="195" on="0"/>
        <pt x="23" y="259" on="1"/>
        <pt x="23" y="319" on="0"/>
        <pt x="64" y="419" on="0"/>
        <pt x="134" y="490" on="0"/>
        <pt x="228" y="529" on="0"/>
        <pt x="281" y="529" on="1"/>
        <pt x="335" y="529" on="0"/>
        <pt x="429" y="492" on="0"/>
        <pt x="499" y="422" on="0"/>
        <pt x="539" y="322" on="0"/>
      </contour>
    </TTGlyph>
    <TTGlyph name="ocircumflex" xMin="23" yMin="-12" xMax="539" yMax="743">
      <contour>
        <pt x="238" y="743" on="1"/>
        <pt x="324" y="743" on="1"/>
        <pt x="432" y="601" on="1"/>
        <pt x="362" y="587" on="1"/>
        <pt x="280" y="664" on="1"/>
        <pt x="200" y="587" on="1"/>
        <pt x="132" y="601" on="1"/>
      </contour>
      <contour>
        <pt x="409" y="259" on="1"/>
        <pt x="409" y="340" on="0"/>
        <pt x="339" y="438" on="0"/>
        <pt x="281" y="438" on="1"/>
        <pt x="223" y="438" on="0"/>
        <pt x="153" y="340" on="0"/>
        <pt x="153" y="259" on="1"/>
        <pt x="153" y="177" on="0"/>
        <pt x="222" y="79" on="0"/>
        <pt x="281" y="79" on="1"/>
        <pt x="339" y="79" on="0"/>
        <pt x="409" y="177" on="0"/>
      </contour>
      <contour>
        <pt x="539" y="259" on="1"/>
        <pt x="539" y="198" on="0"/>
        <pt x="498" y="98" on="0"/>
        <pt x="428" y="27" on="0"/>
        <pt x="334" y="-12" on="0"/>
        <pt x="281" y="-12" on="1"/>
        <pt x="227" y="-12" on="0"/>
        <pt x="133" y="25" on="0"/>
        <pt x="63" y="95" on="0"/>
        <pt x="23" y="195" on="0"/>
        <pt x="23" y="259" on="1"/>
        <pt x="23" y="319" on="0"/>
        <pt x="64" y="419" on="0"/>
        <pt x="134" y="490" on="0"/>
        <pt x="228" y="529" on="0"/>
        <pt x="281" y="529" on="1"/>
        <pt x="335" y="529" on="0"/>
        <pt x="429" y="492" on="0"/>
        <pt x="499" y="422" on="0"/>
        <pt x="539" y="322" on="0"/>
      </contour>
    </TTGlyph>
    <TTGlyph name="odieresis" xMin="23" yMin="-12" xMax="538" yMax="729">
      <contour>
        <pt x="319" y="670" on="1"/>
        <pt x="319" y="695" on="0"/>
        <pt x="354" y="729" on="0"/>
        <pt x="378" y="729" on="1"/>
        <pt x="402" y="729" on="0"/>
        <pt x="437" y="695" on="0"/>
        <pt x="437" y="670" on="1"/>
        <pt x="437" y="645" on="0"/>
        <pt x="402" y="611" on="0"/>
        <pt x="378" y="611" on="1"/>
        <pt x="354" y="611" on="0"/>
        <pt x="319" y="645" on="0"/>
      </contour>
      <contour>
        <pt x="124" y="670" on="1"/>
        <pt x="124" y="695" on="0"/>
        <pt x="159" y="729" on="0"/>
        <pt x="183" y="729" on="1"/>
        <pt x="208" y="729" on="0"/>
        <pt x="243" y="695" on="0"/>
        <pt x="243" y="670" on="1"/>
        <pt x="243" y="645" on="0"/>
        <pt x="208" y="611" on="0"/>
        <pt x="183" y="611" on="1"/>
        <pt x="159" y="611" on="0"/>
        <pt x="124" y="645" on="0"/>
      </contour>
      <contour>
        <pt x="408" y="259" on="1"/>
        <pt x="408" y="340" on="0"/>
        <pt x="339" y="438" on="0"/>
        <pt x="280" y="438" on="1"/>
        <pt x="222" y="438" on="0"/>
        <pt x="152" y="340" on="0"/>
        <pt x="152" y="259" on="1"/>
        <pt x="152" y="177" on="0"/>
        <pt x="222" y="79" on="0"/>
        <pt x="280" y="79" on="1"/>
        <pt x="339" y="79" on="0"/>
        <pt x="408" y="177" on="0"/>
      </contour>
      <contour>
        <pt x="538" y="259" on="1"/>
        <pt x="538" y="198" on="0"/>
        <pt x="497" y="98" on="0"/>
        <pt x="427" y="27" on="0"/>
        <pt x="333" y="-12" on="0"/>
        <pt x="280" y="-12" on="1"/>
        <pt x="226" y="-12" on="0"/>
        <pt x="132" y="25" on="0"/>
        <pt x="63" y="95" on="0"/>
        <pt x="23" y="195" on="0"/>
        <pt x="23" y="259" on="1"/>
        <pt x="23" y="319" on="0"/>
        <pt x="63" y="419" on="0"/>
        <pt x="133" y="490" on="0"/>
        <pt x="227" y="529" on="0"/>
        <pt x="280" y="529" on="1"/>
        <pt x="334" y="529" on="0"/>
        <pt x="428" y="492" on="0"/>
        <pt x="498" y="422" on="0"/>
        <pt x="538" y="322" on="0"/>
      </contour>
    </TTGlyph>
    <TTGlyph name="oe" xMin="24" yMin="-12" xMax="876" yMax="529">
      <contour>
        <pt x="410" y="259" on="1"/>
        <pt x="409" y="342" on="0"/>
        <pt x="340" y="438" on="0"/>
        <pt x="282" y="438" on="1"/>
        <pt x="224" y="438" on="0"/>
        <pt x="154" y="340" on="0"/>
        <pt x="154" y="259" on="1"/>
        <pt x="154" y="177" on="0"/>
        <pt x="224" y="79" on="0"/>
        <pt x="282" y="79" on="1"/>
        <pt x="340" y="79" on="0"/>
        <pt x="409" y="175" on="0"/>
      </contour>
      <contour>
        <pt x="535" y="267" on="1"/>
        <pt x="535" y="179" on="0"/>
        <pt x="617" y="79" on="0"/>
        <pt x="682" y="79" on="1"/>
        <pt x="717" y="79" on="0"/>
        <pt x="782" y="96" on="0"/>
        <pt x="826" y="116" on="1"/>
        <pt x="857" y="33" on="1"/>
        <pt x="805" y="8" on="0"/>
        <pt x="712" y="-12" on="0"/>
        <pt x="669" y="-12" on="1"/>
        <pt x="636" y="-12" on="0"/>
        <pt x="575" y="7" on="0"/>
        <pt x="524" y="40" on="0"/>
        <pt x="485" y="86" on="0"/>
        <pt x="473" y="113" on="1"/>
        <pt x="444" y="58" on="0"/>
        <pt x="342" y="-12" on="0"/>
        <pt x="282" y="-12" on="1"/>
        <pt x="228" y="-12" on="0"/>
        <pt x="134" y="25" on="0"/>
        <pt x="64" y="95" on="0"/>
        <pt x="24" y="195" on="0"/>
        <pt x="24" y="259" on="1"/>
        <pt x="24" y="319" on="0"/>
        <pt x="65" y="419" on="0"/>
        <pt x="135" y="490" on="0"/>
        <pt x="229" y="529" on="0"/>
        <pt x="282" y="529" on="1"/>
        <pt x="310" y="529" on="0"/>
        <pt x="366" y="515" on="0"/>
        <pt x="416" y="485" on="0"/>
        <pt x="457" y="440" on="0"/>
        <pt x="470" y="409" on="1"/>
        <pt x="498" y="467" on="0"/>
        <pt x="606" y="529" on="0"/>
        <pt x="669" y="529" on="1"/>
        <pt x="723" y="529" on="0"/>
        <pt x="810" y="484" on="0"/>
        <pt x="863" y="406" on="0"/>
        <pt x="876" y="301" on="0"/>
        <pt x="856" y="241" on="1"/>
        <pt x="572" y="241" on="1"/>
        <pt x="583" y="273" on="0"/>
        <pt x="623" y="317" on="0"/>
        <pt x="653" y="317" on="1"/>
        <pt x="756" y="317" on="1"/>
        <pt x="759" y="342" on="0"/>
        <pt x="748" y="387" on="0"/>
        <pt x="722" y="421" on="0"/>
        <pt x="685" y="441" on="0"/>
        <pt x="661" y="441" on="1"/>
        <pt x="637" y="441" on="0"/>
        <pt x="591" y="420" on="0"/>
        <pt x="557" y="378" on="0"/>
        <pt x="535" y="312" on="0"/>
      </contour>
    </TTGlyph>
</ttFont>
